<svg xmlns="http://www.w3.org/2000/svg" viewBox="0 0 512 512" width="512" height="512" preserveAspectRatio="xMidYMid meet" style="width: 100%; height: 100%; transform: translate3d(0px, 0px, 0px); content-visibility: visible;"><defs><clipPath id="__lottie_element_2"><rect width="512" height="512" x="0" y="0"/></clipPath><filter id="__lottie_element_7" filterUnits="objectBoundingBox" x="0%" y="0%" width="100%" height="100%"><feComponentTransfer in="SourceGraphic"><feFuncA type="table" tableValues="1.0 0.0"/></feComponentTransfer></filter><mask id="__lottie_element_6" mask-type="alpha"><g filter="url(#__lottie_element_7)"><rect width="512" height="512" x="0" y="0" fill="#ffffff" opacity="0"/><g style="display: block;" transform="matrix(1,0,0,1,27.75,-0.25)" opacity="1"><g opacity="1" transform="matrix(1,0,0,1,74.05000305175781,256.25)"><path fill="rgb(188,220,234)" fill-opacity="1" d=" M-102.94999694824219,276.8500061035156 C-102.94999694824219,276.8500061035156 73.80000305175781,256 73.80000305175781,256 C73.80000305175781,256 74.5999984741211,-294 74.5999984741211,-294 C74.5999984741211,-294 -102.1500015258789,-273.1499938964844 -102.1500015258789,-273.1499938964844 C-102.1500015258789,-273.1499938964844 -102.94999694824219,276.8500061035156 -102.94999694824219,276.8500061035156z"/></g></g></g></mask><mask id="__lottie_element_19" mask-type="alpha"><g style="display: block;" transform="matrix(0.9743700623512268,0.21244041621685028,-0.0269941259175539,0.11042165756225586,320.7810363769531,283.46954345703125)" opacity="1"><g opacity="1" transform="matrix(1,0,0,1,71.8499984741211,71.8499984741211)"><path fill="rgb(255,255,255)" fill-opacity="1" d=" M0,-71.5999984741211 C39.54399871826172,-71.5999984741211 71.5999984741211,-39.54399871826172 71.5999984741211,0 C71.5999984741211,39.54399871826172 39.54399871826172,71.5999984741211 0,71.5999984741211 C-39.54399871826172,71.5999984741211 -71.5999984741211,39.54399871826172 -71.5999984741211,0 C-71.5999984741211,-39.54399871826172 -39.54399871826172,-71.5999984741211 0,-71.5999984741211z"/></g></g></mask><mask id="__lottie_element_31" mask-type="alpha"><g clip-path="url(#__lottie_element_32)" style="display: block;" transform="matrix(1,0,0,0.9017649292945862,0,45.63752746582031)" opacity="1"><g transform="matrix(1,0,0,1.047260046005249,317,214.22036743164062)" opacity="1" style="display: block;"><g opacity="1" transform="matrix(1,0,0,1,71.8499984741211,71.8499984741211)"><path fill="rgb(255,255,255)" fill-opacity="1" d=" M0,-71.5999984741211 C39.54399871826172,-71.5999984741211 71.5999984741211,-39.54399871826172 71.5999984741211,0 C71.5999984741211,39.54399871826172 39.54399871826172,71.5999984741211 0,71.5999984741211 C-39.54399871826172,71.5999984741211 -71.5999984741211,39.54399871826172 -71.5999984741211,0 C-71.5999984741211,-39.54399871826172 -39.54399871826172,-71.5999984741211 0,-71.5999984741211z"/></g></g><g transform="matrix(1,0,0,1.047260046005249,144.89999389648438,176.72836303710938)" opacity="1" style="display: block;"><g opacity="1" transform="matrix(1,0,0,1,71.8499984741211,71.8499984741211)"><path fill="rgb(255,255,255)" fill-opacity="1" d=" M0,-71.5999984741211 C39.54399871826172,-71.5999984741211 71.5999984741211,-39.54399871826172 71.5999984741211,0 C71.5999984741211,39.54399871826172 39.54399871826172,71.5999984741211 0,71.5999984741211 C-39.54399871826172,71.5999984741211 -71.5999984741211,39.54399871826172 -71.5999984741211,0 C-71.5999984741211,-39.54399871826172 -39.54399871826172,-71.5999984741211 0,-71.5999984741211z"/></g></g></g></mask><clipPath id="__lottie_element_32"><path d="M0,0 L512,0 L512,512 L0,512z"/></clipPath></defs><g clip-path="url(#__lottie_element_2)"><g mask="url(#__lottie_element_6)" style="display: block;"><g transform="matrix(1,0,0,0.9443850517272949,66.5,49.558349609375)" opacity="1"><g opacity="1" transform="matrix(1,0,0,1,209.5,245.6999969482422)"><path fill="rgb(255,153,0)" fill-opacity="1" d=" M180.75,-182.4499969482422 C180.75,-182.4499969482422 53.75,-56.45000076293945 53.75,-56.45000076293945 C53.75,-56.45000076293945 -125.3499984741211,-245.4499969482422 -125.3499984741211,-245.4499969482422 C-125.3499984741211,-245.4499969482422 -209.25,158.5500030517578 -209.25,158.5500030517578 C-209.25,158.5500030517578 209.25,237.4499969482422 209.25,237.4499969482422 C209.25,237.4499969482422 180.75,-182.4499969482422 180.75,-182.4499969482422z"/></g></g></g><g style="display: block;" transform="matrix(1,0,0,0.9443850517272949,217.04998779296875,333.865478515625)" opacity="1"><g opacity="1" transform="matrix(1,0,0,1,70.4000015258789,57.900001525878906)"><path stroke-linecap="butt" stroke-linejoin="miter" fill-opacity="0" stroke-miterlimit="10" stroke="rgb(0,0,0)" stroke-opacity="1" stroke-width="14" d=" M-43.112998962402344,-15.619999885559082 C-33.86899948120117,2.86899995803833 -26.41200065612793,11.777999877929688 -6.26200008392334,15.586999893188477 C14.137999534606934,19.447999954223633 23.78700065612793,14.293000221252441 39.775001525878906,2.0999999046325684"/></g></g><g style="display: none;" transform="matrix(0.9743700623512268,0.2019527405500412,-0.0269941259175539,0.10497040301561356,320.7810363769531,287.15191650390625)" opacity="0.001819999999966626"><g opacity="1" transform="matrix(1,0,0,1,71.8499984741211,71.8499984741211)"><path fill="rgb(255,255,255)" fill-opacity="1" d=" M0,-71.5999984741211 C39.54399871826172,-71.5999984741211 71.5999984741211,-39.54399871826172 71.5999984741211,0 C71.5999984741211,39.54399871826172 39.54399871826172,71.5999984741211 0,71.5999984741211 C-39.54399871826172,71.5999984741211 -71.5999984741211,39.54399871826172 -71.5999984741211,0 C-71.5999984741211,-39.54399871826172 -39.54399871826172,-71.5999984741211 0,-71.5999984741211z"/></g></g><g mask="url(#__lottie_element_19)" style="display: none;"><g transform="matrix(1,0,0,0.8977630138397217,375.3000183105469,297.0396728515625)" opacity="0.001819999999966626"><g opacity="1" transform="matrix(1,0,0,1,13.550000190734863,13.550000190734863)"><path fill="rgb(0,0,0)" fill-opacity="1" d=" M0,-13.300000190734863 C7.34499979019165,-13.300000190734863 13.300000190734863,-7.34499979019165 13.300000190734863,0 C13.300000190734863,7.34499979019165 7.34499979019165,13.300000190734863 0,13.300000190734863 C-7.34499979019165,13.300000190734863 -13.300000190734863,7.34499979019165 -13.300000190734863,0 C-13.300000190734863,-7.34499979019165 -7.34499979019165,-13.300000190734863 0,-13.300000190734863z"/></g></g></g><g style="display: block;" transform="matrix(1,0,0,0.9443850517272949,144.89999389648438,205.00413513183594)" opacity="1"><g opacity="1" transform="matrix(1,0,0,1,71.8499984741211,71.8499984741211)"><path fill="rgb(255,255,255)" fill-opacity="1" d=" M0,-71.5999984741211 C39.54399871826172,-71.5999984741211 71.5999984741211,-39.54399871826172 71.5999984741211,0 C71.5999984741211,39.54399871826172 39.54399871826172,71.5999984741211 0,71.5999984741211 C-39.54399871826172,71.5999984741211 -71.5999984741211,39.54399871826172 -71.5999984741211,0 C-71.5999984741211,-39.54399871826172 -39.54399871826172,-71.5999984741211 0,-71.5999984741211z"/></g></g><g style="display: block;" transform="matrix(1,0,0,0.9443850517272949,203.1999969482422,260.061767578125)" opacity="1"><g opacity="1" transform="matrix(1,0,0,1,13.550000190734863,13.550000190734863)"><path fill="rgb(0,0,0)" fill-opacity="1" d=" M0,-13.300000190734863 C7.34499979019165,-13.300000190734863 13.300000190734863,-7.34499979019165 13.300000190734863,0 C13.300000190734863,7.34499979019165 7.34499979019165,13.300000190734863 0,13.300000190734863 C-7.34499979019165,13.300000190734863 -13.300000190734863,7.34499979019165 -13.300000190734863,0 C-13.300000190734863,-7.34499979019165 -7.34499979019165,-13.300000190734863 0,-13.300000190734863z"/></g></g><g mask="url(#__lottie_element_31)" style="display: block;"><g transform="matrix(0.8220254778862,0.1650094836950302,-0.1764359325170517,0.7839017510414124,327,245.98289489746094)" opacity="1"><g opacity="1" transform="matrix(1,0,0,1,0,0)"><path fill="rgb(239,116,6)" fill-opacity="1" d=" M209,-330 C209,-330 -231,-314 -231,-314 C-231,-314 -229,20 -229,20 C-229,20 -211,19 -211,19 C-211,19 -195.99400329589844,-25.06399917602539 -123,-26 C-45,-27 -30,18 -30,18 C-30,18 -1,19 -1,19 C-1,19 27,-27 93,-27 C157,-27 180,21 180,21 C180,21 210,22 210,22 C210,22 209,-330 209,-330z"/></g></g></g><g transform="matrix(1,0,0,0.9443850517272949,302.04998779296875,244.29525756835938)" opacity="1" style="display: block;"><g opacity="1" transform="matrix(1,0,0,1,86.80000305175781,64)"><path stroke-linecap="butt" stroke-linejoin="miter" fill-opacity="0" stroke-miterlimit="10" stroke="rgb(0,0,0)" stroke-opacity="1" stroke-width="14" d=" M51.79999923706055,29 C50.900001525878906,3.5 33.599998474121094,-18.700000762939453 8.800000190734863,-23.799999237060547 C-16,-29 -40.70000076293945,-15.5 -51.79999923706055,7.5"/></g></g><g style="display: block;" transform="matrix(1,0,0,1,27.75,-0.25)" opacity="1"><g opacity="1" transform="matrix(1,0,0,1,74.05000305175781,256.25)"><path fill="rgb(188,220,234)" fill-opacity="1" d=" M-102.94999694824219,276.8500061035156 C-102.94999694824219,276.8500061035156 73.80000305175781,256 73.80000305175781,256 C73.80000305175781,256 73.3499984741211,-276 73.3499984741211,-276 C73.3499984741211,-276 -102.55000305175781,-281.1499938964844 -102.55000305175781,-281.1499938964844 C-102.55000305175781,-281.1499938964844 -102.94999694824219,276.8500061035156 -102.94999694824219,276.8500061035156z"/></g></g></g></svg>