<?xml version="1.0" encoding="UTF-8"?>
<svg xmlns="http://www.w3.org/2000/svg" xmlns:xlink="http://www.w3.org/1999/xlink" width="80px" height="80px" viewBox="0 0 80 80" version="1.1">
<g id="surface1">
<path style=" stroke:none;fill-rule:nonzero;fill:rgb(63.137255%,82.745098%,89.803922%);fill-opacity:1;" d="M 30.84375 64.796875 C 30.84375 64.796875 31.835938 87.578125 31.835938 87.578125 C 31.835938 87.578125 61.277344 86.296875 61.277344 86.296875 C 61.277344 86.296875 60.285156 63.511719 60.285156 63.511719 C 60.285156 63.511719 30.84375 64.796875 30.84375 64.796875 Z M 30.84375 64.796875 "/>
<path style=" stroke:none;fill-rule:nonzero;fill:rgb(91.764706%,89.411765%,84.313725%);fill-opacity:1;" d="M 34.054688 64.65625 C 34.054688 64.65625 35.097656 88.585938 35.097656 88.585938 C 35.097656 88.585938 58.117188 87.582031 58.117188 87.582031 C 58.117188 87.582031 59.84375 85.09375 59.84375 85.09375 C 59.84375 85.09375 58.90625 63.570312 58.90625 63.570312 C 58.90625 63.570312 34.054688 64.65625 34.054688 64.65625 Z M 34.054688 64.65625 "/>
<path style=" stroke:none;fill-rule:nonzero;fill:rgb(74.117647%,86.27451%,91.764706%);fill-opacity:1;" d="M 27.8125 69.0625 C 27.8125 69.0625 28.804688 91.847656 28.804688 91.847656 C 28.804688 91.847656 58.246094 90.5625 58.246094 90.5625 C 58.246094 90.5625 57.253906 67.78125 57.253906 67.78125 C 57.253906 67.78125 27.8125 69.0625 27.8125 69.0625 Z M 27.8125 69.0625 "/>
<path style=" stroke:none;fill-rule:nonzero;fill:rgb(53.72549%,31.372549%,90.196078%);fill-opacity:1;" d="M 27.8125 69.0625 C 27.8125 69.0625 30.726562 64.734375 30.726562 64.734375 C 30.726562 64.734375 60.164062 63.449219 60.164062 63.449219 C 60.164062 63.449219 57.253906 67.78125 57.253906 67.78125 C 57.253906 67.78125 27.8125 69.0625 27.8125 69.0625 Z M 27.8125 69.0625 "/>
<path style=" stroke:none;fill-rule:nonzero;fill:rgb(53.72549%,31.372549%,90.196078%);fill-opacity:1;" d="M 43.617188 77.40625 C 43.617188 77.40625 53.796875 57 53.796875 57 C 53.796875 57 80.164062 70.15625 80.164062 70.15625 C 80.164062 70.15625 69.984375 90.5625 69.984375 90.5625 C 69.984375 90.5625 43.617188 77.40625 43.617188 77.40625 Z M 43.617188 77.40625 "/>
<path style=" stroke:none;fill-rule:nonzero;fill:rgb(91.764706%,89.411765%,84.313725%);fill-opacity:1;" d="M 46.492188 78.84375 C 46.492188 78.84375 57.1875 57.410156 57.1875 57.410156 C 57.1875 57.410156 77.800781 67.695312 77.800781 67.695312 C 77.800781 67.695312 78.371094 70.671875 78.371094 70.671875 C 78.371094 70.671875 68.753906 89.945312 68.753906 89.945312 C 68.753906 89.945312 46.492188 78.84375 46.492188 78.84375 Z M 46.492188 78.84375 "/>
<path style=" stroke:none;fill-rule:nonzero;fill:rgb(53.72549%,31.372549%,90.196078%);fill-opacity:1;" d="M 42.585938 72.277344 C 42.585938 72.277344 52.765625 51.867188 52.765625 51.867188 C 52.765625 51.867188 79.132812 65.023438 79.132812 65.023438 C 79.132812 65.023438 68.953125 85.429688 68.953125 85.429688 C 68.953125 85.429688 42.585938 72.277344 42.585938 72.277344 Z M 42.585938 72.277344 "/>
<path style=" stroke:none;fill-rule:nonzero;fill:rgb(74.117647%,86.27451%,91.764706%);fill-opacity:1;" d="M 42.585938 72.277344 C 42.585938 72.277344 43.484375 77.414062 43.484375 77.414062 C 43.484375 77.414062 69.851562 90.570312 69.851562 90.570312 C 69.851562 90.570312 68.953125 85.429688 68.953125 85.429688 C 68.953125 85.429688 42.585938 72.277344 42.585938 72.277344 Z M 42.585938 72.277344 "/>
<path style="fill:none;stroke-width:2.946;stroke-linecap:butt;stroke-linejoin:miter;stroke:rgb(0%,0%,0%);stroke-opacity:1;stroke-miterlimit:10;" d="M 9.459843 39.459261 C 9.459843 39.459261 -9.472649 -39.459697 -9.472649 -39.459697 " transform="matrix(0.119694,0.100436,-0.100436,0.119694,68.295666,72.111997)"/>
<path style="fill:none;stroke-width:2.946;stroke-linecap:butt;stroke-linejoin:miter;stroke:rgb(0%,0%,0%);stroke-opacity:1;stroke-miterlimit:10;" d="M 9.456143 39.469144 C 9.456143 39.469144 -9.457197 -39.465883 -9.457197 -39.465883 " transform="matrix(0.119694,0.100436,-0.100436,0.119694,66.117414,71.025248)"/>
<path style=" stroke:none;fill-rule:nonzero;fill:rgb(100%,62.352941%,0%);fill-opacity:1;" d="M 39.285156 19.523438 C 39.285156 19.523438 41.136719 52.75 41.136719 52.75 C 41.136719 52.75 52.21875 54.039062 52.21875 54.039062 C 52.21875 54.039062 47.691406 19.515625 47.691406 19.515625 C 47.691406 19.515625 45.574219 23.148438 45.574219 23.148438 C 45.574219 23.148438 43.371094 19.011719 43.371094 19.011719 C 43.371094 19.011719 41.949219 22.726562 41.949219 22.726562 C 41.949219 22.726562 39.285156 19.523438 39.285156 19.523438 Z M 39.285156 19.523438 "/>
<path style=" stroke:none;fill-rule:nonzero;fill:rgb(100%,60%,0%);fill-opacity:1;" d="M 52.359375 46.667969 C 52.359375 46.667969 51.207031 48.324219 51.195312 48.335938 C 51.195312 48.335938 43.65625 58.808594 43.65625 58.808594 C 43.65625 58.808594 24.816406 46.710938 24.816406 46.710938 C 24.816406 46.710938 24.816406 50.621094 24.816406 50.621094 C 24.816406 50.621094 24.816406 80.273438 24.816406 80.273438 C 24.816406 80.273438 62.496094 80.273438 62.496094 80.273438 C 62.496094 80.273438 52.359375 46.667969 52.359375 46.667969 Z M 52.359375 46.667969 "/>
<path style=" stroke:none;fill-rule:nonzero;fill:rgb(53.72549%,31.372549%,90.196078%);fill-opacity:1;" d="M 56.105469 68.351562 C 56.105469 72.167969 53.707031 75.261719 50.742188 75.261719 C 47.78125 75.261719 45.378906 72.167969 45.378906 68.351562 C 45.378906 64.535156 47.78125 61.441406 50.742188 61.441406 C 53.707031 61.441406 56.105469 64.535156 56.105469 68.351562 Z M 56.105469 68.351562 "/>
<path style=" stroke:none;fill-rule:nonzero;fill:rgb(53.72549%,31.372549%,90.196078%);fill-opacity:1;" d="M 41.929688 68.457031 C 41.929688 72.273438 39.53125 75.367188 36.566406 75.367188 C 33.605469 75.367188 31.203125 72.273438 31.203125 68.457031 C 31.203125 64.644531 33.605469 61.550781 36.566406 61.550781 C 39.53125 61.550781 41.929688 64.644531 41.929688 68.457031 Z M 41.929688 68.457031 "/>
<path style=" stroke:none;fill-rule:nonzero;fill:rgb(100%,100%,100%);fill-opacity:1;" d="M 45.378906 64.730469 C 45.378906 68.546875 47.78125 71.640625 50.742188 71.640625 C 53.707031 71.640625 56.105469 68.546875 56.105469 64.730469 C 56.105469 60.917969 53.707031 57.824219 50.742188 57.824219 C 47.78125 57.824219 45.378906 60.917969 45.378906 64.730469 Z M 45.378906 64.730469 "/>
<path style=" stroke:none;fill-rule:nonzero;fill:rgb(100%,100%,100%);fill-opacity:1;" d="M 41.929688 64.730469 C 41.929688 68.546875 39.53125 71.640625 36.566406 71.640625 C 33.605469 71.640625 31.203125 68.546875 31.203125 64.730469 C 31.203125 60.917969 33.605469 57.824219 36.566406 57.824219 C 39.53125 57.824219 41.929688 60.917969 41.929688 64.730469 Z M 41.929688 64.730469 "/>
<path style=" stroke:none;fill-rule:nonzero;fill:rgb(100%,30.588235%,30.588235%);fill-opacity:1;" d="M 41.125 68.378906 C 41.039062 68.558594 40.945312 68.734375 40.84375 68.902344 C 40.84375 68.902344 39.351562 67.953125 39.351562 67.953125 C 39.351562 67.953125 39.175781 66.859375 39.175781 66.859375 C 39.175781 66.859375 39.792969 66.773438 39.792969 66.773438 C 39.792969 66.773438 39.929688 67.617188 39.929688 67.617188 C 39.929688 67.617188 41.125 68.378906 41.125 68.378906 Z M 41.125 68.378906 "/>
<path style=" stroke:none;fill-rule:nonzero;fill:rgb(100%,30.588235%,30.588235%);fill-opacity:1;" d="M 41.761719 63.007812 C 41.761719 63.007812 40.222656 63.4375 40.222656 63.4375 C 40.222656 63.4375 40.042969 62.882812 40.042969 62.882812 C 40.042969 62.882812 41.628906 62.441406 41.628906 62.441406 C 41.679688 62.628906 41.722656 62.816406 41.761719 63.007812 Z M 41.761719 63.007812 "/>
<path style=" stroke:none;fill-rule:nonzero;fill:rgb(100%,30.588235%,30.588235%);fill-opacity:1;" d="M 33.730469 64.628906 C 33.730469 64.628906 32.925781 65.449219 32.925781 65.449219 C 32.925781 65.449219 31.265625 65.800781 31.265625 65.800781 C 31.246094 65.609375 31.226562 65.417969 31.21875 65.21875 C 31.21875 65.21875 32.59375 64.925781 32.59375 64.925781 C 32.59375 64.925781 33.269531 64.242188 33.269531 64.242188 C 33.269531 64.242188 33.730469 64.628906 33.730469 64.628906 Z M 33.730469 64.628906 "/>
<path style=" stroke:none;fill-rule:nonzero;fill:rgb(100%,30.588235%,30.588235%);fill-opacity:1;" d="M 37.167969 70.28125 C 37.167969 70.28125 36.570312 71.640625 36.570312 71.640625 C 36.570312 71.640625 36.566406 71.640625 36.566406 71.640625 C 36.347656 71.640625 36.132812 71.625 35.917969 71.59375 C 35.917969 71.59375 36.492188 70.28125 36.492188 70.28125 C 36.492188 70.28125 36.015625 69.1875 36.015625 69.1875 C 36.015625 69.1875 36.59375 68.972656 36.59375 68.972656 C 36.59375 68.972656 37.167969 70.28125 37.167969 70.28125 Z M 37.167969 70.28125 "/>
<path style=" stroke:none;fill-rule:nonzero;fill:rgb(100%,30.588235%,30.588235%);fill-opacity:1;" d="M 33.476562 68.457031 C 33.476562 68.457031 32.410156 69.101562 32.410156 69.101562 C 32.304688 68.9375 32.207031 68.765625 32.117188 68.589844 C 32.117188 68.589844 33.132812 67.972656 33.132812 67.972656 C 33.132812 67.972656 33.476562 68.457031 33.476562 68.457031 Z M 33.476562 68.457031 "/>
<path style=" stroke:none;fill-rule:nonzero;fill:rgb(100%,30.588235%,30.588235%);fill-opacity:1;" d="M 46.1875 68.378906 C 46.273438 68.558594 46.367188 68.734375 46.464844 68.902344 C 46.464844 68.902344 47.957031 67.953125 47.957031 67.953125 C 47.957031 67.953125 48.136719 66.859375 48.136719 66.859375 C 48.136719 66.859375 47.515625 66.773438 47.515625 66.773438 C 47.515625 66.773438 47.378906 67.617188 47.378906 67.617188 C 47.378906 67.617188 46.1875 68.378906 46.1875 68.378906 Z M 46.1875 68.378906 "/>
<path style=" stroke:none;fill-rule:nonzero;fill:rgb(100%,30.588235%,30.588235%);fill-opacity:1;" d="M 45.546875 63.007812 C 45.546875 63.007812 47.089844 63.4375 47.089844 63.4375 C 47.089844 63.4375 47.269531 62.882812 47.269531 62.882812 C 47.269531 62.882812 45.683594 62.441406 45.683594 62.441406 C 45.632812 62.628906 45.585938 62.816406 45.546875 63.007812 Z M 45.546875 63.007812 "/>
<path style=" stroke:none;fill-rule:nonzero;fill:rgb(100%,30.588235%,30.588235%);fill-opacity:1;" d="M 53.578125 64.628906 C 53.578125 64.628906 54.382812 65.449219 54.382812 65.449219 C 54.382812 65.449219 56.042969 65.800781 56.042969 65.800781 C 56.066406 65.609375 56.082031 65.417969 56.09375 65.21875 C 56.09375 65.21875 54.71875 64.925781 54.71875 64.925781 C 54.71875 64.925781 54.042969 64.242188 54.042969 64.242188 C 54.042969 64.242188 53.578125 64.628906 53.578125 64.628906 Z M 53.578125 64.628906 "/>
<path style=" stroke:none;fill-rule:nonzero;fill:rgb(100%,30.588235%,30.588235%);fill-opacity:1;" d="M 50.144531 70.28125 C 50.144531 70.28125 50.738281 71.640625 50.738281 71.640625 C 50.738281 71.640625 50.742188 71.640625 50.742188 71.640625 C 50.960938 71.640625 51.179688 71.625 51.390625 71.59375 C 51.390625 71.59375 50.816406 70.28125 50.816406 70.28125 C 50.816406 70.28125 51.296875 69.1875 51.296875 69.1875 C 51.296875 69.1875 50.714844 68.972656 50.714844 68.972656 C 50.714844 68.972656 50.144531 70.28125 50.144531 70.28125 Z M 50.144531 70.28125 "/>
<path style=" stroke:none;fill-rule:nonzero;fill:rgb(100%,30.588235%,30.588235%);fill-opacity:1;" d="M 53.832031 68.457031 C 53.832031 68.457031 54.898438 69.101562 54.898438 69.101562 C 55.003906 68.9375 55.101562 68.765625 55.195312 68.589844 C 55.195312 68.589844 54.175781 67.972656 54.175781 67.972656 C 54.175781 67.972656 53.832031 68.457031 53.832031 68.457031 Z M 53.832031 68.457031 "/>
<path style=" stroke:none;fill-rule:nonzero;fill:rgb(0%,0%,0%);fill-opacity:1;" d="M 49.308594 62.484375 C 49.308594 63.5 49.953125 64.328125 50.742188 64.328125 C 51.535156 64.328125 52.175781 63.5 52.175781 62.484375 C 52.175781 61.464844 51.535156 60.636719 50.742188 60.636719 C 49.953125 60.636719 49.308594 61.464844 49.308594 62.484375 Z M 49.308594 62.484375 "/>
<path style=" stroke:none;fill-rule:nonzero;fill:rgb(0%,0%,0%);fill-opacity:1;" d="M 38 62.484375 C 38 63.5 37.359375 64.328125 36.566406 64.328125 C 35.777344 64.328125 35.132812 63.5 35.132812 62.484375 C 35.132812 61.464844 35.777344 60.636719 36.566406 60.636719 C 37.359375 60.636719 38 61.464844 38 62.484375 Z M 38 62.484375 "/>
<path style="fill:none;stroke-width:26.884;stroke-linecap:round;stroke-linejoin:miter;stroke:rgb(93.72549%,45.490196%,2.352941%);stroke-opacity:1;stroke-miterlimit:10;" d="M 14.947715 -4.769111 C 14.947715 -4.769111 -14.953637 4.764688 -14.953637 4.764688 " transform="matrix(0.157673,-0.0362882,0.0393122,0.145544,35.811101,55.369355)"/>
<path style="fill:none;stroke-width:26.884;stroke-linecap:round;stroke-linejoin:miter;stroke:rgb(93.72549%,45.490196%,2.352941%);stroke-opacity:1;stroke-miterlimit:10;" d="M -14.949645 -4.768216 C -14.949645 -4.768216 14.934995 4.771897 14.934995 4.771897 " transform="matrix(0.147275,0.0633926,-0.0686753,0.135946,51.452377,55.369355)"/>
<path style="fill:none;stroke-width:6.777;stroke-linecap:butt;stroke-linejoin:miter;stroke:rgb(0%,0%,0%);stroke-opacity:1;stroke-miterlimit:10;" d="M 234.759618 732.02604 C 234.759618 732.02604 322.524044 732.02604 322.524044 732.02604 " transform="matrix(0.1625,0,0,0.15,-1.624999,-32.643747)"/>
<path style=" stroke:none;fill-rule:nonzero;fill:rgb(100%,100%,100%);fill-opacity:1;" d="M 4.757812 42.785156 C 4.757812 42.785156 8.59375 69.070312 8.59375 69.070312 C 8.59375 69.070312 38.921875 64.644531 38.921875 64.644531 C 38.921875 64.644531 35.085938 38.359375 35.085938 38.359375 C 35.085938 38.359375 4.757812 42.785156 4.757812 42.785156 Z M 4.757812 42.785156 "/>
<path style="fill:none;stroke-width:2.318;stroke-linecap:butt;stroke-linejoin:miter;stroke:rgb(74.117647%,86.27451%,91.764706%);stroke-opacity:1;stroke-miterlimit:10;" d="M -59.789415 60.427967 C -59.789415 60.427967 59.786482 -60.418872 59.786482 -60.418872 " transform="matrix(0.0940336,-0.124787,0.124787,0.0940336,10.636289,55.348999)"/>
<path style="fill:none;stroke-width:2.318;stroke-linecap:butt;stroke-linejoin:miter;stroke:rgb(74.117647%,86.27451%,91.764706%);stroke-opacity:1;stroke-miterlimit:10;" d="M -59.786257 60.424489 C -59.786257 60.424489 59.78964 -60.42235 59.78964 -60.42235 " transform="matrix(0.0940336,-0.124787,0.124787,0.0940336,13.843458,54.88097)"/>
<path style="fill:none;stroke-width:2.318;stroke-linecap:butt;stroke-linejoin:miter;stroke:rgb(74.117647%,86.27451%,91.764706%);stroke-opacity:1;stroke-miterlimit:10;" d="M -59.784099 60.420064 C -59.784099 60.420064 59.791798 -60.426775 59.791798 -60.426775 " transform="matrix(0.0940336,-0.124787,0.124787,0.0940336,17.050838,54.412905)"/>
<path style="fill:none;stroke-width:2.318;stroke-linecap:butt;stroke-linejoin:miter;stroke:rgb(74.117647%,86.27451%,91.764706%);stroke-opacity:1;stroke-miterlimit:10;" d="M -59.780941 60.415609 C -59.780941 60.415609 59.794956 -60.43123 59.794956 -60.43123 " transform="matrix(0.0940336,-0.124787,0.124787,0.0940336,20.258128,53.944968)"/>
<path style="fill:none;stroke-width:2.318;stroke-linecap:butt;stroke-linejoin:miter;stroke:rgb(74.117647%,86.27451%,91.764706%);stroke-opacity:1;stroke-miterlimit:10;" d="M -59.794736 60.429191 C -59.794736 60.429191 59.781161 -60.417649 59.781161 -60.417649 " transform="matrix(0.0940336,-0.124787,0.124787,0.0940336,23.464762,53.477126)"/>
<path style="fill:none;stroke-width:2.318;stroke-linecap:butt;stroke-linejoin:miter;stroke:rgb(74.117647%,86.27451%,91.764706%);stroke-opacity:1;stroke-miterlimit:10;" d="M -59.792577 60.425743 C -59.792577 60.425743 59.78332 -60.421097 59.78332 -60.421097 " transform="matrix(0.0940336,-0.124787,0.124787,0.0940336,26.67202,53.00897)"/>
<path style="fill:none;stroke-width:2.318;stroke-linecap:butt;stroke-linejoin:miter;stroke:rgb(74.117647%,86.27451%,91.764706%);stroke-opacity:1;stroke-miterlimit:10;" d="M -59.790419 60.421288 C -59.790419 60.421288 59.785478 -60.425552 59.785478 -60.425552 " transform="matrix(0.0940336,-0.124787,0.124787,0.0940336,29.879405,52.540908)"/>
<path style="fill:none;stroke-width:2.318;stroke-linecap:butt;stroke-linejoin:miter;stroke:rgb(74.117647%,86.27451%,91.764706%);stroke-opacity:1;stroke-miterlimit:10;" d="M -59.787254 60.41784 C -59.787254 60.41784 59.788643 -60.428999 59.788643 -60.428999 " transform="matrix(0.0940336,-0.124787,0.124787,0.0940336,33.086568,52.072877)"/>
<path style="fill:none;stroke-width:2.318;stroke-linecap:butt;stroke-linejoin:miter;stroke:rgb(100%,30.588235%,30.588235%);stroke-opacity:1;stroke-miterlimit:10;" d="M -69.634996 -68.890866 C -69.634996 -68.890866 69.628237 68.893259 69.628237 68.893259 " transform="matrix(0.0940336,-0.124787,0.124787,0.0940336,23.246262,63.206497)"/>
<path style=" stroke:none;fill-rule:nonzero;fill:rgb(100%,100%,100%);fill-opacity:1;" d="M 42.980469 40.839844 C 42.980469 40.839844 47.03125 67.09375 47.03125 67.09375 C 47.03125 67.09375 77.324219 62.421875 77.324219 62.421875 C 77.324219 62.421875 73.273438 36.167969 73.273438 36.167969 C 73.273438 36.167969 42.980469 40.839844 42.980469 40.839844 Z M 42.980469 40.839844 "/>
<path style="fill:none;stroke-width:2.318;stroke-linecap:butt;stroke-linejoin:miter;stroke:rgb(74.117647%,86.27451%,91.764706%);stroke-opacity:1;stroke-miterlimit:10;" d="M -67.677022 -51.418807 C -67.677022 -51.418807 67.674533 51.421177 67.674533 51.421177 " transform="matrix(0.112397,0.10854,-0.10854,0.112397,71.342065,49.906252)"/>
<path style="fill:none;stroke-width:2.318;stroke-linecap:butt;stroke-linejoin:miter;stroke:rgb(74.117647%,86.27451%,91.764706%);stroke-opacity:1;stroke-miterlimit:10;" d="M -67.684309 -51.429381 C -67.684309 -51.429381 67.684612 51.428587 67.684612 51.428587 " transform="matrix(0.112397,0.10854,-0.10854,0.112397,68.138612,50.400419)"/>
<path style="fill:none;stroke-width:2.318;stroke-linecap:butt;stroke-linejoin:miter;stroke:rgb(74.117647%,86.27451%,91.764706%);stroke-opacity:1;stroke-miterlimit:10;" d="M -67.674198 -51.420964 C -67.674198 -51.420964 67.677356 51.419021 67.677356 51.419021 " transform="matrix(0.112397,0.10854,-0.10854,0.112397,64.935264,50.894469)"/>
<path style="fill:none;stroke-width:2.318;stroke-linecap:butt;stroke-linejoin:miter;stroke:rgb(74.117647%,86.27451%,91.764706%);stroke-opacity:1;stroke-miterlimit:10;" d="M -67.682493 -51.431553 C -67.682493 -51.431553 67.686428 51.426415 67.686428 51.426415 " transform="matrix(0.112397,0.10854,-0.10854,0.112397,61.731922,51.388747)"/>
<path style="fill:none;stroke-width:2.318;stroke-linecap:butt;stroke-linejoin:miter;stroke:rgb(74.117647%,86.27451%,91.764706%);stroke-opacity:1;stroke-miterlimit:10;" d="M -67.675404 -51.420145 C -67.675404 -51.420145 67.67615 51.41984 67.67615 51.41984 " transform="matrix(0.112397,0.10854,-0.10854,0.112397,58.529238,51.882789)"/>
<path style="fill:none;stroke-width:2.318;stroke-linecap:butt;stroke-linejoin:miter;stroke:rgb(74.117647%,86.27451%,91.764706%);stroke-opacity:1;stroke-miterlimit:10;" d="M -67.682691 -51.429711 C -67.682691 -51.429711 67.68623 51.428257 67.68623 51.428257 " transform="matrix(0.112397,0.10854,-0.10854,0.112397,55.325894,52.376843)"/>
<path style="fill:none;stroke-width:2.318;stroke-linecap:butt;stroke-linejoin:miter;stroke:rgb(74.117647%,86.27451%,91.764706%);stroke-opacity:1;stroke-miterlimit:10;" d="M -67.688971 -51.440285 C -67.688971 -51.440285 67.67995 51.417683 67.67995 51.417683 " transform="matrix(0.112397,0.10854,-0.10854,0.112397,52.122327,52.8709)"/>
<path style="fill:none;stroke-width:2.318;stroke-linecap:butt;stroke-linejoin:miter;stroke:rgb(74.117647%,86.27451%,91.764706%);stroke-opacity:1;stroke-miterlimit:10;" d="M -67.679898 -51.431868 C -67.679898 -51.431868 67.689023 51.4261 67.689023 51.4261 " transform="matrix(0.112397,0.10854,-0.10854,0.112397,48.919096,53.365063)"/>
<path style="fill:none;stroke-width:2.318;stroke-linecap:butt;stroke-linejoin:miter;stroke:rgb(100%,30.588235%,30.588235%);stroke-opacity:1;stroke-miterlimit:10;" d="M 59.26418 -77.97462 C 59.26418 -77.97462 -59.264357 77.983606 -59.264357 77.983606 " transform="matrix(0.112397,0.10854,-0.10854,0.112397,58.668466,42.151848)"/>
<path style=" stroke:none;fill-rule:nonzero;fill:rgb(53.72549%,31.372549%,90.196078%);fill-opacity:1;" d="M 37.074219 41.386719 C 37.074219 41.386719 16.808594 51.847656 16.808594 51.847656 C 16.808594 51.847656 30.320312 78.03125 30.320312 78.03125 C 30.320312 78.03125 50.585938 67.574219 50.585938 67.574219 C 50.585938 67.574219 37.074219 41.386719 37.074219 41.386719 Z M 37.074219 41.386719 "/>
<path style=" stroke:none;fill-rule:nonzero;fill:rgb(91.764706%,89.411765%,84.313725%);fill-opacity:1;" d="M 28.847656 75.175781 C 28.847656 75.175781 50.132812 64.191406 50.132812 64.191406 C 50.132812 64.191406 39.566406 43.714844 39.566406 43.714844 C 39.566406 43.714844 36.582031 43.191406 36.582031 43.191406 C 36.582031 43.191406 17.4375 53.070312 17.4375 53.070312 C 17.4375 53.070312 28.847656 75.175781 28.847656 75.175781 Z M 28.847656 75.175781 "/>
<path style=" stroke:none;fill-rule:nonzero;fill:rgb(53.72549%,31.372549%,90.196078%);fill-opacity:1;" d="M 35.46875 78.992188 C 35.46875 78.992188 55.734375 68.53125 55.734375 68.53125 C 55.734375 68.53125 42.21875 42.347656 42.21875 42.347656 C 42.21875 42.347656 21.953125 52.808594 21.953125 52.808594 C 21.953125 52.808594 35.46875 78.992188 35.46875 78.992188 Z M 35.46875 78.992188 "/>
<path style=" stroke:none;fill-rule:nonzero;fill:rgb(74.117647%,86.27451%,91.764706%);fill-opacity:1;" d="M 35.46875 78.992188 C 35.46875 78.992188 30.316406 78.164062 30.316406 78.164062 C 30.316406 78.164062 16.800781 51.980469 16.800781 51.980469 C 16.800781 51.980469 21.953125 52.808594 21.953125 52.808594 C 21.953125 52.808594 35.46875 78.992188 35.46875 78.992188 Z M 35.46875 78.992188 "/>
<path style="fill:none;stroke-width:2.946;stroke-linecap:butt;stroke-linejoin:miter;stroke:rgb(0%,0%,0%);stroke-opacity:1;stroke-miterlimit:10;" d="M -33.915465 22.284602 C -33.915465 22.284602 33.92337 -22.275569 33.92337 -22.275569 " transform="matrix(0.155394,0.0163325,-0.0163325,0.155394,35.278757,53.282437)"/>
<path style="fill:none;stroke-width:2.946;stroke-linecap:butt;stroke-linejoin:miter;stroke:rgb(0%,0%,0%);stroke-opacity:1;stroke-miterlimit:10;" d="M -33.934791 22.291973 C -33.934791 22.291973 33.926294 -22.295675 33.926294 -22.295675 " transform="matrix(0.155394,0.0163325,-0.0163325,0.155394,36.395161,55.44567)"/>
<path style=" stroke:none;fill-rule:nonzero;fill:rgb(63.137255%,82.745098%,89.803922%);fill-opacity:1;" d="M 48.304688 58.992188 C 48.304688 58.992188 57.703125 87.007812 57.703125 87.007812 C 57.703125 87.007812 79.386719 79.734375 79.386719 79.734375 C 79.386719 79.734375 69.984375 51.71875 69.984375 51.71875 C 69.984375 51.71875 48.304688 58.992188 48.304688 58.992188 Z M 48.304688 58.992188 "/>
<path style=" stroke:none;fill-rule:nonzero;fill:rgb(91.764706%,89.411765%,84.313725%);fill-opacity:1;" d="M 71.011719 54.773438 C 71.011719 54.773438 48.238281 62.417969 48.238281 62.417969 C 48.238281 62.417969 55.589844 84.320312 55.589844 84.320312 C 55.589844 84.320312 58.464844 85.296875 58.464844 85.296875 C 58.464844 85.296875 78.945312 78.425781 78.945312 78.425781 C 78.945312 78.425781 71.011719 54.773438 71.011719 54.773438 Z M 71.011719 54.773438 "/>
<path style=" stroke:none;fill-rule:nonzero;fill:rgb(53.72549%,31.372549%,90.196078%);fill-opacity:1;" d="M 74.433594 77.996094 C 74.433594 77.996094 79.414062 79.601562 79.414062 79.601562 C 79.414062 79.601562 70.011719 51.589844 70.011719 51.589844 C 70.011719 51.589844 65.03125 49.980469 65.03125 49.980469 C 65.03125 49.980469 74.433594 77.996094 74.433594 77.996094 Z M 74.433594 77.996094 "/>
<path style=" stroke:none;fill-rule:nonzero;fill:rgb(74.117647%,86.27451%,91.764706%);fill-opacity:1;" d="M 65.03125 49.980469 C 65.03125 49.980469 43.351562 57.257812 43.351562 57.257812 C 43.351562 57.257812 52.75 85.269531 52.75 85.269531 C 52.75 85.269531 74.433594 77.996094 74.433594 77.996094 C 74.433594 77.996094 65.03125 49.980469 65.03125 49.980469 Z M 65.03125 49.980469 "/>
<path style="fill:none;stroke-width:2.946;stroke-linecap:butt;stroke-linejoin:miter;stroke:rgb(0%,0%,0%);stroke-opacity:1;stroke-miterlimit:10;" d="M 39.408171 -10.231558 C 39.408171 -10.231558 -39.385522 10.221911 -39.385522 10.221911 " transform="matrix(0.155869,-0.0108994,0.0108994,0.155869,61.297116,75.493063)"/>
<path style="fill:none;stroke-width:2.946;stroke-linecap:butt;stroke-linejoin:miter;stroke:rgb(0%,0%,0%);stroke-opacity:1;stroke-miterlimit:10;" d="M 39.4027 -10.219558 C 39.4027 -10.219558 -39.390992 10.233912 -39.390992 10.233912 " transform="matrix(0.155869,-0.0108994,0.0108994,0.155869,60.520494,73.178633)"/>
<path style=" stroke:none;fill-rule:nonzero;fill:rgb(63.137255%,82.745098%,89.803922%);fill-opacity:1;" d="M 6.054688 83.710938 C 6.054688 83.710938 28.683594 80.394531 28.683594 80.394531 C 28.683594 80.394531 24.394531 51.15625 24.394531 51.15625 C 24.394531 51.15625 1.769531 54.472656 1.769531 54.472656 C 1.769531 54.472656 6.054688 83.710938 6.054688 83.710938 Z M 6.054688 83.710938 "/>
<path style=" stroke:none;fill-rule:nonzero;fill:rgb(91.764706%,89.411765%,84.313725%);fill-opacity:1;" d="M 5.585938 80.519531 C 5.585938 80.519531 29.351562 77.035156 29.351562 77.035156 C 29.351562 77.035156 26.003906 54.175781 26.003906 54.175781 C 26.003906 54.175781 23.34375 52.703125 23.34375 52.703125 C 23.34375 52.703125 1.96875 55.839844 1.96875 55.839844 C 1.96875 55.839844 5.585938 80.519531 5.585938 80.519531 Z M 5.585938 80.519531 "/>
<path style=" stroke:none;fill-rule:nonzero;fill:rgb(53.72549%,31.372549%,90.196078%);fill-opacity:1;" d="M 6.003906 83.832031 C 6.003906 83.832031 10.621094 86.296875 10.621094 86.296875 C 10.621094 86.296875 6.335938 57.058594 6.335938 57.058594 C 6.335938 57.058594 1.71875 54.59375 1.71875 54.59375 C 1.71875 54.59375 6.003906 83.832031 6.003906 83.832031 Z M 6.003906 83.832031 "/>
<path style=" stroke:none;fill-rule:nonzero;fill:rgb(74.117647%,86.27451%,91.764706%);fill-opacity:1;" d="M 10.621094 86.296875 C 10.621094 86.296875 33.25 82.980469 33.25 82.980469 C 33.25 82.980469 28.964844 53.742188 28.964844 53.742188 C 28.964844 53.742188 6.335938 57.0625 6.335938 57.0625 C 6.335938 57.0625 10.621094 86.296875 10.621094 86.296875 Z M 10.621094 86.296875 "/>
<path style="fill:none;stroke-width:2.946;stroke-linecap:butt;stroke-linejoin:miter;stroke:rgb(0%,0%,0%);stroke-opacity:1;stroke-miterlimit:10;" d="M -37.818854 -15.026149 C -37.818854 -15.026149 37.81785 15.017234 37.81785 15.017234 " transform="matrix(0.135316,-0.078125,0.078125,0.135316,18.818776,61.852127)"/>
<path style="fill:none;stroke-width:2.946;stroke-linecap:butt;stroke-linejoin:miter;stroke:rgb(0%,0%,0%);stroke-opacity:1;stroke-miterlimit:10;" d="M -37.840795 -15.020401 C -37.840795 -15.020401 37.830059 15.013832 37.830059 15.013832 " transform="matrix(0.135316,-0.078125,0.078125,0.135316,19.172858,64.267603)"/>
<path style=" stroke:none;fill-rule:nonzero;fill:rgb(100%,100%,100%);fill-opacity:1;" d="M 23.347656 71.039062 C 23.347656 71.039062 59.945312 70.71875 59.945312 70.71875 C 59.945312 70.71875 60.019531 79 60.019531 79 C 60.019531 79 23.417969 79.320312 23.417969 79.320312 C 23.980469 76.164062 24.089844 74.371094 23.347656 71.039062 Z M 23.347656 71.039062 "/>
<path style=" stroke:none;fill-rule:nonzero;fill:rgb(68.235294%,49.411765%,98.823529%);fill-opacity:1;" d="M 60.734375 80.144531 C 60.734375 80.144531 21.734375 80.488281 21.734375 80.488281 C 21.734375 80.488281 21.722656 79.074219 21.722656 79.074219 C 21.722656 79.074219 59.308594 78.746094 59.308594 78.746094 C 59.308594 78.746094 59.246094 71.433594 59.246094 71.433594 C 59.246094 71.433594 21.65625 71.761719 21.65625 71.761719 C 21.65625 71.761719 21.644531 70.347656 21.644531 70.347656 C 21.644531 70.347656 60.644531 70.007812 60.644531 70.007812 C 60.644531 70.007812 60.734375 80.144531 60.734375 80.144531 Z M 60.734375 80.144531 "/>
<path style="fill:none;stroke-width:2.946;stroke-linecap:butt;stroke-linejoin:miter;stroke:rgb(0%,0%,0%);stroke-opacity:1;stroke-miterlimit:10;" d="M -56.673849 5.106151 C -56.673849 5.106151 56.680298 -17.971848 56.680298 -17.971848 M -54.071319 17.970927 C -54.071319 17.970927 15.554038 3.80043 15.554038 3.80043 " transform="matrix(0.153379,0.0298139,-0.0298139,0.153379,32.680764,75.429929)"/>
</g>
</svg>
