<?xml version="1.0" encoding="UTF-8"?>
<svg xmlns="http://www.w3.org/2000/svg" xmlns:xlink="http://www.w3.org/1999/xlink" width="80px" height="80px" viewBox="0 0 80 80" version="1.1">
<g id="surface1">
<path style=" stroke:none;fill-rule:nonzero;fill:rgb(100%,60%,0%);fill-opacity:1;" d="M 73.914062 16.40625 C 72.019531 14.46875 66.992188 10.582031 59.78125 10.898438 C 51.167969 11.273438 43.941406 20.597656 43.941406 20.597656 C 43.941406 20.597656 37.457031 11.351562 27.402344 11.011719 C 19.132812 10.738281 14.050781 16.578125 14.050781 16.578125 C 5.730469 24.367188 8.425781 37.304688 14.09375 42.238281 C 14.09375 42.238281 44.082031 72.085938 44.082031 72.085938 C 44.082031 72.085938 73.917969 42.167969 73.917969 42.167969 C 83.898438 31.527344 77.8125 19.9375 73.914062 16.40625 Z M 73.914062 16.40625 "/>
<path style=" stroke:none;fill-rule:nonzero;fill:rgb(100%,60%,0%);fill-opacity:1;" d="M 73.914062 16.40625 C 72.019531 14.46875 66.992188 10.582031 59.78125 10.898438 C 51.167969 11.273438 43.941406 20.597656 43.941406 20.597656 C 43.941406 20.597656 37.457031 11.351562 27.402344 11.011719 C 19.132812 10.738281 14.050781 16.578125 14.050781 16.578125 C 5.730469 24.367188 8.425781 37.304688 14.09375 42.238281 C 14.09375 42.238281 44.082031 72.085938 44.082031 72.085938 C 44.082031 72.085938 73.917969 42.167969 73.917969 42.167969 C 83.898438 31.527344 77.8125 19.9375 73.914062 16.40625 Z M 73.914062 16.40625 "/>
<path style=" stroke:none;fill-rule:nonzero;fill:rgb(100%,100%,100%);fill-opacity:1;" d="M 22.546875 31.402344 C 24.183594 31.402344 25.511719 29.089844 25.511719 26.242188 C 25.511719 23.390625 24.183594 21.082031 22.546875 21.082031 C 20.90625 21.082031 19.578125 23.390625 19.578125 26.242188 C 19.578125 29.089844 20.90625 31.402344 22.546875 31.402344 Z M 22.546875 31.402344 "/>
<path style=" stroke:none;fill-rule:nonzero;fill:rgb(100%,100%,100%);fill-opacity:1;" d="M 14.035156 31.402344 C 15.675781 31.402344 17.003906 29.089844 17.003906 26.242188 C 17.003906 23.390625 15.675781 21.082031 14.035156 21.082031 C 12.398438 21.082031 11.070312 23.390625 11.070312 26.242188 C 11.070312 29.089844 12.398438 31.402344 14.035156 31.402344 Z M 14.035156 31.402344 "/>
<path style=" stroke:none;fill-rule:nonzero;fill:rgb(0%,0%,0%);fill-opacity:1;" d="M 23.648438 28.824219 C 24.503906 28.824219 25.199219 27.667969 25.199219 26.242188 C 25.199219 24.816406 24.503906 23.664062 23.648438 23.664062 C 22.796875 23.664062 22.101562 24.816406 22.101562 26.242188 C 22.101562 27.667969 22.796875 28.824219 23.648438 28.824219 Z M 23.648438 28.824219 "/>
<path style=" stroke:none;fill-rule:nonzero;fill:rgb(0%,0%,0%);fill-opacity:1;" d="M 15.140625 28.824219 C 15.996094 28.824219 16.6875 27.667969 16.6875 26.242188 C 16.6875 24.816406 15.996094 23.664062 15.140625 23.664062 C 14.285156 23.664062 13.589844 24.816406 13.589844 26.242188 C 13.589844 27.667969 14.285156 28.824219 15.140625 28.824219 Z M 15.140625 28.824219 "/>
<path style=" stroke:none;fill-rule:nonzero;fill:rgb(100%,100%,100%);fill-opacity:1;" d="M 24.558594 24.550781 C 24.953125 24.550781 25.273438 24.871094 25.273438 25.265625 C 25.273438 25.660156 24.953125 25.980469 24.558594 25.980469 C 24.164062 25.980469 23.84375 25.660156 23.84375 25.265625 C 23.84375 24.871094 24.164062 24.550781 24.558594 24.550781 Z M 24.558594 24.550781 "/>
<path style=" stroke:none;fill-rule:nonzero;fill:rgb(100%,100%,100%);fill-opacity:1;" d="M 16.070312 24.429688 C 16.464844 24.429688 16.785156 24.753906 16.785156 25.148438 C 16.785156 25.542969 16.464844 25.863281 16.070312 25.863281 C 15.675781 25.863281 15.355469 25.542969 15.355469 25.148438 C 15.355469 24.753906 15.675781 24.429688 16.070312 24.429688 Z M 16.070312 24.429688 "/>
<path style=" stroke:none;fill-rule:nonzero;fill:rgb(100%,60%,0%);fill-opacity:1;" d="M 18.226562 26.824219 C 18.226562 26.824219 18.214844 36.671875 18.214844 36.671875 C 18.214844 36.671875 4.796875 32.605469 4.796875 32.605469 C 4.796875 32.605469 4.726562 30.128906 4.726562 30.128906 C 4.726562 30.128906 18.226562 26.824219 18.226562 26.824219 Z M 18.226562 26.824219 "/>
<path style=" stroke:none;fill-rule:nonzero;fill:rgb(0%,0%,0%);fill-opacity:1;" d="M 4.871094 32.703125 C 4.871094 32.703125 4.871094 30.035156 4.871094 30.035156 C 4.871094 30.035156 0.625 31.339844 0.625 31.339844 C 0.625 31.339844 4.871094 32.703125 4.871094 32.703125 Z M 4.871094 32.703125 "/>
<path style="fill:none;stroke-width:7.996;stroke-linecap:butt;stroke-linejoin:miter;stroke:rgb(0%,0%,0%);stroke-opacity:1;stroke-miterlimit:4;" d="M -16.127675 1.21564 C -16.127675 1.21564 -7.479682 6.744269 1.371196 4.867579 C 10.145993 3.016249 16.131114 -6.747614 16.131114 -6.747614 " transform="matrix(0.154028,0,0,0.154028,19.441141,36.808851)"/>
<path style=" stroke:none;fill-rule:nonzero;fill:rgb(100%,30.588235%,30.588235%);fill-opacity:1;" d="M 77.789062 45.296875 C 77.800781 45.007812 77.695312 44.722656 77.496094 44.507812 C 77.296875 44.292969 77.019531 44.167969 76.726562 44.160156 C 76.4375 44.148438 76.152344 44.253906 75.9375 44.453125 C 75.9375 44.453125 75.671875 44.703125 75.671875 44.703125 C 75.671875 44.703125 75.421875 44.4375 75.421875 44.4375 C 75.222656 44.222656 74.949219 44.097656 74.65625 44.085938 C 74.363281 44.074219 74.078125 44.183594 73.867188 44.382812 C 73.652344 44.582031 73.527344 44.855469 73.515625 45.148438 C 73.507812 45.441406 73.613281 45.722656 73.8125 45.9375 C 73.8125 45.9375 75.5625 47.816406 75.5625 47.816406 C 75.5625 47.816406 77.171875 46.3125 77.171875 46.3125 C 77.171875 46.3125 77.441406 46.066406 77.441406 46.066406 C 77.652344 45.867188 77.78125 45.589844 77.789062 45.296875 Z M 77.789062 45.296875 "/>
<path style=" stroke:none;fill-rule:nonzero;fill:rgb(100%,30.588235%,30.588235%);fill-opacity:1;" d="M 46.113281 16.238281 C 46.285156 16.007812 46.355469 15.71875 46.316406 15.4375 C 46.316406 15.4375 46.316406 15.433594 46.316406 15.433594 C 46.277344 15.152344 46.125 14.894531 45.894531 14.722656 C 45.664062 14.554688 45.375 14.480469 45.09375 14.519531 C 45.09375 14.519531 44.738281 14.570312 44.738281 14.570312 C 44.738281 14.570312 44.6875 14.21875 44.6875 14.21875 C 44.644531 13.933594 44.496094 13.679688 44.265625 13.507812 C 44.035156 13.335938 43.746094 13.261719 43.464844 13.304688 C 43.179688 13.34375 42.925781 13.496094 42.753906 13.726562 C 42.582031 13.957031 42.507812 14.242188 42.550781 14.527344 C 42.550781 14.527344 42.910156 17.019531 42.910156 17.019531 C 42.910156 17.019531 45.046875 16.710938 45.046875 16.710938 C 45.046875 16.710938 45.402344 16.660156 45.402344 16.660156 C 45.683594 16.617188 45.941406 16.464844 46.113281 16.238281 Z M 46.113281 16.238281 "/>
<path style=" stroke:none;fill-rule:nonzero;fill:rgb(100%,30.588235%,30.588235%);fill-opacity:1;" d="M 66.082031 34.929688 C 66.105469 34.664062 66.027344 34.402344 65.859375 34.195312 C 65.859375 34.195312 65.855469 34.195312 65.855469 34.195312 C 65.6875 33.992188 65.445312 33.859375 65.179688 33.835938 C 64.914062 33.808594 64.652344 33.890625 64.445312 34.058594 C 64.445312 34.058594 64.1875 34.269531 64.1875 34.269531 C 64.1875 34.269531 63.976562 34.015625 63.976562 34.015625 C 63.808594 33.808594 63.5625 33.679688 63.300781 33.65625 C 63.035156 33.628906 62.769531 33.710938 62.566406 33.878906 C 62.359375 34.046875 62.230469 34.292969 62.207031 34.558594 C 62.179688 34.820312 62.261719 35.085938 62.429688 35.292969 C 62.429688 35.292969 63.917969 37.09375 63.917969 37.09375 C 63.917969 37.09375 65.464844 35.820312 65.464844 35.820312 C 65.464844 35.820312 65.722656 35.609375 65.722656 35.609375 C 65.925781 35.4375 66.054688 35.195312 66.082031 34.929688 Z M 66.082031 34.929688 "/>
<path style=" stroke:none;fill-rule:nonzero;fill:rgb(100%,30.588235%,30.588235%);fill-opacity:1;" d="M 32.304688 40.1875 C 32.171875 39.804688 31.894531 39.488281 31.53125 39.3125 C 31.167969 39.132812 30.75 39.105469 30.367188 39.238281 C 29.984375 39.367188 29.667969 39.644531 29.488281 40.007812 C 29.488281 40.007812 29.265625 40.464844 29.265625 40.464844 C 29.265625 40.464844 28.8125 40.242188 28.8125 40.242188 C 28.449219 40.0625 28.03125 40.035156 27.648438 40.167969 C 27.265625 40.296875 26.949219 40.574219 26.773438 40.9375 C 26.59375 41.304688 26.566406 41.722656 26.699219 42.105469 C 26.828125 42.488281 27.105469 42.804688 27.46875 42.980469 C 27.46875 42.980469 30.664062 44.546875 30.664062 44.546875 C 30.664062 44.546875 32.007812 41.808594 32.007812 41.808594 C 32.007812 41.808594 32.007812 41.804688 32.007812 41.804688 C 32.007812 41.804688 32.230469 41.351562 32.230469 41.351562 C 32.40625 40.988281 32.433594 40.570312 32.304688 40.1875 Z M 32.304688 40.1875 "/>
<path style=" stroke:none;fill-rule:nonzero;fill:rgb(100%,30.588235%,30.588235%);fill-opacity:1;" d="M 59.058594 51.878906 C 59.261719 51.707031 59.386719 51.457031 59.40625 51.191406 C 59.425781 50.921875 59.339844 50.660156 59.167969 50.457031 C 58.992188 50.253906 58.742188 50.125 58.476562 50.105469 C 58.476562 50.105469 58.144531 50.082031 58.144531 50.082031 C 58.144531 50.082031 58.167969 49.746094 58.167969 49.746094 C 58.191406 49.480469 58.101562 49.214844 57.929688 49.011719 C 57.753906 48.808594 57.507812 48.683594 57.238281 48.664062 C 56.972656 48.644531 56.707031 48.730469 56.503906 48.902344 C 56.300781 49.078125 56.175781 49.324219 56.15625 49.59375 C 56.15625 49.59375 55.976562 51.9375 55.976562 51.9375 C 55.976562 51.9375 57.988281 52.09375 57.988281 52.09375 C 57.988281 52.09375 58.324219 52.121094 58.324219 52.121094 C 58.589844 52.140625 58.851562 52.054688 59.058594 51.878906 Z M 59.058594 51.878906 "/>
<path style=" stroke:none;fill-rule:nonzero;fill:rgb(100%,30.588235%,30.588235%);fill-opacity:1;" d="M 69.34375 13.367188 C 69.566406 13.019531 69.644531 12.59375 69.554688 12.1875 C 69.464844 11.78125 69.21875 11.429688 68.867188 11.207031 C 68.515625 10.984375 68.09375 10.90625 67.6875 10.996094 C 67.6875 10.996094 67.179688 11.109375 67.179688 11.109375 C 67.179688 11.109375 67.070312 10.601562 67.070312 10.601562 C 66.980469 10.199219 66.734375 9.84375 66.382812 9.621094 C 66.03125 9.398438 65.609375 9.320312 65.203125 9.410156 C 64.796875 9.5 64.445312 9.75 64.222656 10.097656 C 64 10.449219 63.921875 10.871094 64.011719 11.277344 C 64.011719 11.277344 64.800781 14.839844 64.800781 14.839844 C 64.800781 14.839844 67.855469 14.164062 67.855469 14.164062 C 67.855469 14.164062 68.363281 14.054688 68.363281 14.054688 C 68.765625 13.964844 69.121094 13.71875 69.34375 13.367188 Z M 69.34375 13.367188 "/>
<path style=" stroke:none;fill-rule:nonzero;fill:rgb(100%,30.588235%,30.588235%);fill-opacity:1;" d="M 14.339844 45.03125 C 14.203125 44.804688 13.984375 44.636719 13.730469 44.570312 C 13.730469 44.570312 13.726562 44.570312 13.726562 44.570312 C 13.472656 44.503906 13.199219 44.542969 12.96875 44.679688 C 12.742188 44.8125 12.574219 45.03125 12.507812 45.289062 C 12.507812 45.289062 12.425781 45.609375 12.425781 45.609375 C 12.425781 45.609375 12.105469 45.527344 12.105469 45.527344 C 11.847656 45.460938 11.574219 45.5 11.347656 45.632812 C 11.117188 45.769531 10.953125 45.988281 10.886719 46.246094 C 10.820312 46.503906 10.859375 46.773438 10.992188 47.003906 C 11.128906 47.230469 11.347656 47.398438 11.605469 47.464844 C 11.605469 47.464844 13.863281 48.046875 13.863281 48.046875 C 13.863281 48.046875 14.363281 46.113281 14.363281 46.113281 C 14.363281 46.113281 14.445312 45.789062 14.445312 45.789062 C 14.511719 45.535156 14.472656 45.261719 14.339844 45.03125 Z M 14.339844 45.03125 "/>
<path style=" stroke:none;fill-rule:nonzero;fill:rgb(100%,30.588235%,30.588235%);fill-opacity:1;" d="M 24.304688 53.371094 C 24.476562 53.441406 24.671875 53.4375 24.84375 53.367188 C 25.015625 53.292969 25.152344 53.15625 25.222656 52.984375 C 25.292969 52.8125 25.292969 52.617188 25.21875 52.445312 C 25.21875 52.445312 25.128906 52.230469 25.128906 52.230469 C 25.128906 52.230469 25.34375 52.140625 25.34375 52.140625 C 25.515625 52.066406 25.652344 51.929688 25.722656 51.757812 C 25.792969 51.585938 25.792969 51.390625 25.71875 51.21875 C 25.648438 51.046875 25.507812 50.910156 25.335938 50.839844 C 25.164062 50.769531 24.96875 50.769531 24.796875 50.84375 C 24.796875 50.84375 23.285156 51.480469 23.285156 51.480469 C 23.285156 51.480469 23.832031 52.777344 23.832031 52.777344 C 23.832031 52.777344 23.921875 52.992188 23.921875 52.992188 C 23.996094 53.164062 24.132812 53.300781 24.304688 53.371094 Z M 24.304688 53.371094 "/>
<path style=" stroke:none;fill-rule:nonzero;fill:rgb(100%,30.588235%,30.588235%);fill-opacity:1;" d="M 20.601562 11.148438 C 20.410156 10.824219 20.097656 10.585938 19.734375 10.492188 C 19.371094 10.398438 18.984375 10.453125 18.65625 10.644531 C 18.332031 10.835938 18.097656 11.148438 18.003906 11.511719 C 18.003906 11.511719 17.886719 11.96875 17.886719 11.96875 C 17.886719 11.96875 17.429688 11.847656 17.429688 11.847656 C 17.066406 11.753906 16.679688 11.808594 16.355469 12 C 16.03125 12.191406 15.792969 12.503906 15.699219 12.867188 C 15.605469 13.234375 15.660156 13.621094 15.851562 13.945312 C 16.042969 14.269531 16.355469 14.503906 16.71875 14.597656 C 16.71875 14.597656 19.925781 15.429688 19.925781 15.429688 C 19.925781 15.429688 20.636719 12.679688 20.636719 12.679688 C 20.636719 12.679688 20.753906 12.222656 20.753906 12.222656 C 20.847656 11.859375 20.792969 11.472656 20.601562 11.148438 Z M 20.601562 11.148438 "/>
</g>
</svg>
