<?xml version="1.0" encoding="UTF-8"?>
<svg xmlns="http://www.w3.org/2000/svg" xmlns:xlink="http://www.w3.org/1999/xlink" width="80px" height="80px" viewBox="0 0 80 80" version="1.1">
<g id="surface1">
<path style=" stroke:none;fill-rule:nonzero;fill:rgb(97.254902%,14.509804%,14.509804%);fill-opacity:1;" d="M 21.945312 34.890625 C 21.765625 33.980469 21.234375 33.179688 20.464844 32.664062 C 19.695312 32.148438 18.753906 31.957031 17.84375 32.136719 C 16.9375 32.316406 16.136719 32.847656 15.621094 33.617188 C 15.621094 33.617188 14.976562 34.574219 14.976562 34.574219 C 14.976562 34.574219 14.019531 33.933594 14.019531 33.933594 C 13.25 33.417969 12.308594 33.226562 11.398438 33.40625 C 10.492188 33.582031 9.691406 34.113281 9.175781 34.882812 C 8.660156 35.652344 8.46875 36.59375 8.648438 37.503906 C 8.828125 38.410156 9.359375 39.210938 10.128906 39.726562 C 10.128906 39.726562 16.878906 44.261719 16.878906 44.261719 C 16.878906 44.261719 20.769531 38.46875 20.769531 38.46875 C 20.769531 38.46875 21.414062 37.507812 21.414062 37.507812 C 21.929688 36.738281 22.121094 35.796875 21.945312 34.890625 Z M 21.945312 34.890625 "/>
<path style=" stroke:none;fill-rule:nonzero;fill:rgb(97.254902%,14.509804%,14.509804%);fill-opacity:1;" d="M 45.734375 32.0625 C 45.738281 31.136719 45.371094 30.25 44.71875 29.59375 C 44.0625 28.9375 43.175781 28.570312 42.25 28.566406 C 41.324219 28.566406 40.4375 28.933594 39.78125 29.585938 C 39.78125 29.585938 38.964844 30.402344 38.964844 30.402344 C 38.964844 30.402344 38.148438 29.585938 38.148438 29.585938 C 37.492188 28.929688 36.605469 28.5625 35.679688 28.558594 C 34.753906 28.558594 33.867188 28.925781 33.210938 29.578125 C 32.554688 30.234375 32.1875 31.121094 32.1875 32.046875 C 32.1875 32.972656 32.554688 33.859375 33.207031 34.515625 C 33.207031 34.515625 38.953125 40.273438 38.953125 40.273438 C 38.953125 40.273438 43.890625 35.34375 43.890625 35.34375 C 43.890625 35.34375 44.710938 34.527344 44.710938 34.527344 C 45.367188 33.875 45.734375 32.988281 45.734375 32.0625 Z M 45.734375 32.0625 "/>
<path style=" stroke:none;fill-rule:nonzero;fill:rgb(100%,60%,0%);fill-opacity:1;" d="M 22.050781 19.121094 C 22.050781 19.121094 23.960938 22.015625 23.976562 22.035156 C 23.976562 22.035156 36.464844 40.308594 36.464844 40.308594 C 36.464844 40.308594 66.605469 18.496094 66.605469 18.496094 C 66.605469 18.496094 67.625 81.796875 67.625 81.796875 C 67.625 81.796875 6.183594 81.226562 6.183594 81.226562 C 6.183594 81.226562 22.050781 19.121094 22.050781 19.121094 Z M 22.050781 19.121094 "/>
<path style=" stroke:none;fill-rule:nonzero;fill:rgb(97.647059%,14.901961%,14.901961%);fill-opacity:1;" d="M 62.296875 45.957031 C 62.269531 43.917969 61.042969 38.363281 54.539062 38.375 C 50.460938 38.382812 47.402344 42.535156 47.402344 42.535156 C 47.402344 42.535156 45.039062 38.476562 40.144531 38.585938 C 34.234375 38.71875 32.582031 44.347656 32.613281 46.390625 C 32.640625 48.429688 33.476562 50.375 34.929688 51.796875 C 34.929688 51.796875 47.71875 64.292969 47.71875 64.292969 C 47.71875 64.292969 60.136719 51.429688 60.136719 51.429688 C 61.550781 49.964844 62.324219 47.996094 62.296875 45.957031 Z M 62.296875 45.957031 "/>
<path style=" stroke:none;fill-rule:nonzero;fill:rgb(100%,30.588235%,30.588235%);fill-opacity:1;" d="M 53.632812 45.632812 C 52.773438 44.996094 51.839844 44.519531 50.773438 44.488281 C 48.820312 44.4375 47.027344 46.671875 47.027344 46.671875 C 47.027344 46.671875 45.183594 44.539062 43.214844 44.601562 C 42.152344 44.632812 41.261719 45.207031 40.394531 45.824219 C 38.40625 47.238281 39.714844 50.789062 40.480469 51.535156 C 40.480469 51.535156 47.191406 58.097656 47.191406 58.097656 C 47.191406 58.097656 53.710938 51.34375 53.710938 51.34375 C 54.453125 50.574219 55.800781 47.242188 53.632812 45.632812 Z M 53.632812 45.632812 "/>
<path style=" stroke:none;fill-rule:nonzero;fill:rgb(97.647059%,14.901961%,14.901961%);fill-opacity:1;" d="M 32.746094 46.421875 C 32.71875 44.386719 31.492188 38.828125 24.988281 38.839844 C 20.910156 38.847656 17.851562 43 17.851562 43 C 17.851562 43 15.488281 38.941406 10.59375 39.050781 C 4.683594 39.183594 3.03125 44.816406 3.0625 46.855469 C 3.09375 48.894531 3.925781 50.839844 5.378906 52.261719 C 5.378906 52.261719 18.167969 64.757812 18.167969 64.757812 C 18.167969 64.757812 30.585938 51.894531 30.585938 51.894531 C 32 50.429688 32.773438 48.464844 32.746094 46.421875 Z M 32.746094 46.421875 "/>
<path style=" stroke:none;fill-rule:nonzero;fill:rgb(100%,30.588235%,30.588235%);fill-opacity:1;" d="M 24.082031 46.097656 C 23.222656 45.460938 22.289062 44.984375 21.222656 44.953125 C 19.273438 44.902344 17.476562 47.136719 17.476562 47.136719 C 17.476562 47.136719 15.632812 45.007812 13.664062 45.066406 C 12.601562 45.097656 11.710938 45.671875 10.84375 46.289062 C 8.855469 47.703125 10.164062 51.253906 10.929688 52 C 10.929688 52 17.640625 58.5625 17.640625 58.5625 C 17.640625 58.5625 24.160156 51.808594 24.160156 51.808594 C 24.902344 51.039062 26.25 47.710938 24.082031 46.097656 Z M 24.082031 46.097656 "/>
<path style=" stroke:none;fill-rule:nonzero;fill:rgb(100%,60%,0%);fill-opacity:1;" d="M 32.042969 74.667969 C 34.828125 69.972656 38.246094 65.820312 45.347656 65.707031 C 52.511719 65.59375 55.746094 69.644531 58.679688 74.25 C 58.679688 74.25 32.042969 74.667969 32.042969 74.667969 Z M 32.042969 74.667969 "/>
<path style=" stroke:none;fill-rule:nonzero;fill:rgb(100%,60%,0%);fill-opacity:1;" d="M 10.566406 75.007812 C 10.566406 75.007812 33.613281 74.644531 33.613281 74.644531 C 30.679688 70.042969 27.445312 65.988281 20.28125 66.101562 C 16.839844 66.15625 12.96875 67.191406 11.722656 70.414062 C 11.722656 70.414062 11.71875 70.414062 11.71875 70.414062 C 11.71875 70.414062 10.566406 75.007812 10.566406 75.007812 Z M 10.566406 75.007812 "/>
<path style="fill:none;stroke-width:9.961;stroke-linecap:butt;stroke-linejoin:miter;stroke:rgb(0%,0%,0%);stroke-opacity:1;stroke-miterlimit:10;" d="M -67.16902 -22.782078 C -59.416627 3.421561 -32.291463 22.780748 -0.00187594 22.789272 C 32.26428 22.773761 59.407421 3.435863 67.181038 -22.785036 " transform="matrix(0.164042,-0.00258406,0.00259982,0.165043,33.062154,70.473167)"/>
<path style=" stroke:none;fill-rule:nonzero;fill:rgb(97.254902%,14.509804%,14.509804%);fill-opacity:1;" d="M 74.636719 50.199219 C 74.167969 49.398438 73.398438 48.820312 72.503906 48.585938 C 71.605469 48.355469 70.65625 48.488281 69.855469 48.957031 C 69.855469 48.957031 68.859375 49.542969 68.859375 49.542969 C 68.859375 49.542969 68.273438 48.550781 68.273438 48.550781 C 67.804688 47.75 67.039062 47.171875 66.144531 46.941406 C 65.246094 46.707031 64.296875 46.84375 63.496094 47.3125 C 62.699219 47.78125 62.121094 48.546875 61.886719 49.441406 C 61.65625 50.339844 61.789062 51.289062 62.257812 52.089844 C 62.257812 52.089844 66.382812 59.101562 66.382812 59.101562 C 66.382812 59.101562 72.398438 55.5625 72.398438 55.5625 C 72.398438 55.5625 72.398438 55.558594 72.398438 55.558594 C 72.398438 55.558594 73.394531 54.972656 73.394531 54.972656 C 74.191406 54.503906 74.769531 53.738281 75.003906 52.84375 C 75.234375 51.945312 75.105469 50.996094 74.636719 50.199219 Z M 74.636719 50.199219 "/>
<path style=" stroke:none;fill-rule:nonzero;fill:rgb(97.254902%,14.509804%,14.509804%);fill-opacity:1;" d="M 38.035156 17.027344 C 37.757812 15.804688 37.003906 14.742188 35.941406 14.074219 C 34.878906 13.40625 33.597656 13.183594 32.375 13.464844 C 31.148438 13.742188 30.085938 14.496094 29.417969 15.558594 C 29.417969 15.558594 28.585938 16.882812 28.585938 16.882812 C 28.585938 16.882812 27.261719 16.050781 27.261719 16.050781 C 26.199219 15.382812 24.914062 15.164062 23.691406 15.441406 C 22.46875 15.722656 21.40625 16.472656 20.738281 17.535156 C 20.070312 18.601562 19.851562 19.882812 20.132812 21.105469 C 20.414062 22.328125 21.164062 23.390625 22.226562 24.058594 C 22.226562 24.058594 23.550781 24.890625 23.550781 24.890625 C 23.550781 24.890625 31.558594 29.925781 31.558594 29.925781 C 31.558594 29.925781 36.59375 21.917969 36.59375 21.917969 C 36.59375 21.917969 37.425781 20.59375 37.425781 20.59375 C 38.09375 19.53125 38.3125 18.25 38.035156 17.027344 Z M 38.035156 17.027344 "/>
<path style=" stroke:none;fill-rule:nonzero;fill:rgb(97.254902%,14.509804%,14.509804%);fill-opacity:1;" d="M 61.960938 15.652344 C 61.59375 14.449219 60.761719 13.445312 59.65625 12.859375 C 58.546875 12.269531 57.25 12.144531 56.050781 12.511719 C 56.050781 12.511719 54.554688 12.96875 54.554688 12.96875 C 54.554688 12.96875 54.097656 11.472656 54.097656 11.472656 C 53.730469 10.269531 52.902344 9.265625 51.792969 8.675781 C 50.683594 8.089844 49.390625 7.964844 48.1875 8.332031 C 46.992188 8.699219 45.984375 9.527344 45.398438 10.632812 C 44.808594 11.738281 44.683594 13.035156 45.050781 14.234375 C 45.050781 14.234375 48.273438 24.777344 48.273438 24.777344 C 48.273438 24.777344 57.320312 22.011719 57.320312 22.011719 C 57.320312 22.011719 58.816406 21.554688 58.816406 21.554688 C 60.015625 21.1875 61.019531 20.359375 61.609375 19.253906 C 62.199219 18.144531 62.324219 16.851562 61.960938 15.652344 Z M 61.960938 15.652344 "/>
</g>
</svg>
