<?xml version="1.0" encoding="UTF-8"?>
<svg xmlns="http://www.w3.org/2000/svg" xmlns:xlink="http://www.w3.org/1999/xlink" width="80px" height="80px" viewBox="0 0 80 80" version="1.1">
<g id="surface1">
<path style=" stroke:none;fill-rule:nonzero;fill:rgb(46.27451%,45.882353%,45.490196%);fill-opacity:1;" d="M 34.496094 21.835938 C 34.875 21.835938 35.183594 22.144531 35.183594 22.523438 C 35.183594 22.902344 34.875 23.210938 34.496094 23.210938 C 34.117188 23.210938 33.808594 22.902344 33.808594 22.523438 C 33.808594 22.144531 34.117188 21.835938 34.496094 21.835938 Z M 34.496094 21.835938 "/>
<path style=" stroke:none;fill-rule:nonzero;fill:rgb(46.27451%,45.882353%,45.490196%);fill-opacity:1;" d="M 55.105469 21.355469 C 55.484375 21.355469 55.792969 21.664062 55.792969 22.042969 C 55.792969 22.421875 55.484375 22.730469 55.105469 22.730469 C 54.726562 22.730469 54.417969 22.421875 54.417969 22.042969 C 54.417969 21.664062 54.726562 21.355469 55.105469 21.355469 Z M 55.105469 21.355469 "/>
<path style=" stroke:none;fill-rule:nonzero;fill:rgb(45.882353%,45.882353%,45.882353%);fill-opacity:1;" d="M 0.726562 80.042969 C 0.726562 80.042969 80.15625 80.46875 80.183594 80.351562 C 81.25 70.015625 72.578125 71.484375 70.304688 69.074219 C 68.722656 67.398438 69.730469 64.6875 68.792969 61.601562 C 66.953125 55.535156 54.609375 57.082031 54.496094 46.953125 C 54.445312 42.304688 59.625 40.820312 59.625 40.820312 C 59.625 40.820312 53.671875 33.003906 47.839844 39.722656 C 43.945312 41.367188 38.234375 38.746094 34.199219 41.433594 C 30 44.230469 29.320312 47.976562 29.320312 47.976562 C 29.320312 47.976562 25.820312 45.082031 22.339844 44.753906 C 13.269531 43.898438 10.78125 48.644531 5.71875 40.722656 C 5.859375 40.746094 3.554688 44.128906 4.679688 47.175781 C 5.9375 50.578125 12.460938 52.980469 9.738281 57.949219 C 8.804688 59.648438 7.09375 59.214844 5.890625 62.105469 C 3.984375 66.683594 10.859375 69.316406 1.992188 73.417969 C -0.738281 74.679688 0.726562 80.042969 0.726562 80.042969 Z M 0.726562 80.042969 "/>
<path style="fill:none;stroke-width:8.576;stroke-linecap:butt;stroke-linejoin:miter;stroke:rgb(0%,0%,0%);stroke-opacity:1;stroke-miterlimit:10;" d="M -81.095996 79.354797 C -80.845996 70.854082 -76.245996 52.616641 -64.870996 49.539231 C -45.845996 44.342948 -38.595996 63.6146 -24.495996 58.241744 C -13.970996 54.256245 -11.345996 38.591722 -0.0209961 36.245827 C 14.279004 33.269315 24.404004 43.359186 31.204004 52.868888 " transform="matrix(0.15625,0,0,0.154858,40.218124,63.656565)"/>
<path style=" stroke:none;fill-rule:nonzero;fill:rgb(100%,100%,100%);fill-opacity:1;" d="M 34.6875 58.066406 C 36.160156 62.835938 41.25 65.515625 46.058594 64.058594 C 50.867188 62.601562 53.574219 57.558594 52.105469 52.789062 C 50.632812 48.023438 45.542969 45.339844 40.734375 46.796875 C 35.925781 48.253906 33.21875 53.300781 34.6875 58.066406 Z M 34.6875 58.066406 "/>
<path style=" stroke:none;fill-rule:nonzero;fill:rgb(100%,100%,100%);fill-opacity:1;" d="M 12.433594 62.785156 C 13.074219 65.535156 14.886719 67.714844 17.226562 68.929688 C 17.671875 69.160156 18.136719 69.355469 18.617188 69.515625 C 19.496094 69.804688 20.417969 69.964844 21.367188 69.984375 C 22.128906 70 22.902344 69.925781 23.675781 69.746094 C 24.492188 69.558594 25.253906 69.273438 25.960938 68.902344 C 26.660156 68.539062 27.296875 68.089844 27.867188 67.574219 C 30.296875 65.386719 31.492188 62 30.699219 58.605469 C 29.535156 53.605469 24.503906 50.488281 19.457031 51.640625 C 14.414062 52.796875 11.269531 57.785156 12.433594 62.785156 Z M 12.433594 62.785156 "/>
<path style=" stroke:none;fill-rule:nonzero;fill:rgb(100%,100%,100%);fill-opacity:1;" d="M 24.921875 69.046875 C 24.921875 69.046875 18.085938 69.085938 18.085938 69.085938 C 18.085938 69.085938 20.234375 70.398438 20.273438 70.90625 C 20.351562 71.910156 19.414062 74.140625 19.414062 75.535156 C 19.414062 76.925781 20.195312 77.972656 21.445312 77.972656 C 22.695312 77.972656 23.28125 76.460938 23.28125 75.378906 C 23.28125 74.292969 22.265625 71.71875 22.34375 71.019531 C 22.421875 70.324219 24.921875 69.046875 24.921875 69.046875 Z M 24.921875 69.046875 "/>
<path style=" stroke:none;fill-rule:nonzero;fill:rgb(0%,0%,0%);fill-opacity:1;" d="M 42.003906 60.640625 C 42.277344 61.527344 43.222656 62.023438 44.113281 61.753906 C 45.003906 61.484375 45.503906 60.546875 45.234375 59.664062 C 44.960938 58.78125 44.015625 58.285156 43.125 58.554688 C 42.234375 58.824219 41.734375 59.757812 42.003906 60.640625 Z M 42.003906 60.640625 "/>
<path style=" stroke:none;fill-rule:nonzero;fill:rgb(0%,0%,0%);fill-opacity:1;" d="M 20.152344 65.832031 C 20.367188 66.761719 21.300781 67.335938 22.234375 67.125 C 23.171875 66.910156 23.753906 65.984375 23.535156 65.058594 C 23.320312 64.132812 22.386719 63.554688 21.453125 63.769531 C 20.519531 63.984375 19.9375 64.90625 20.152344 65.832031 Z M 20.152344 65.832031 "/>
</g>
</svg>
