<?xml version="1.0" encoding="UTF-8"?>
<svg xmlns="http://www.w3.org/2000/svg" xmlns:xlink="http://www.w3.org/1999/xlink" width="80px" height="80px" viewBox="0 0 80 80" version="1.1">
<g id="surface1">
<path style=" stroke:none;fill-rule:nonzero;fill:rgb(100%,60%,0%);fill-opacity:1;" d="M 43.210938 44.09375 C 43.210938 44.09375 14.121094 31.679688 14.121094 31.679688 C 14.121094 31.679688 14.121094 80 14.121094 80 C 14.121094 80 72.296875 80 72.296875 80 C 72.296875 80 56.636719 31.597656 56.636719 31.597656 C 56.636719 31.597656 43.210938 44.09375 43.210938 44.09375 Z M 43.210938 44.09375 "/>
<path style="fill:none;stroke-width:8;stroke-linecap:butt;stroke-linejoin:miter;stroke:rgb(0%,0%,0%);stroke-opacity:1;stroke-miterlimit:10;" d="M -24.892993 -6.636993 C -19.067993 9.113007 -9.567993 14.763007 1.182007 14.563007 C 11.932007 14.363007 20.432007 10.113007 27.657007 -7.011993 " transform="matrix(0.15625,0,0,0.15625,41.768436,65.138593)"/>
<path style=" stroke:none;fill-rule:nonzero;fill:rgb(100%,100%,100%);fill-opacity:1;" d="M 52.976562 43.628906 C 58.339844 43.628906 62.683594 47.976562 62.683594 53.339844 C 62.683594 58.703125 58.339844 63.050781 52.976562 63.050781 C 47.613281 63.050781 43.265625 58.703125 43.265625 53.339844 C 43.265625 47.976562 47.613281 43.628906 52.976562 43.628906 Z M 52.976562 43.628906 "/>
<path style=" stroke:none;fill-rule:nonzero;fill:rgb(0%,0%,0%);fill-opacity:1;" d="M 52.976562 46.066406 C 56.992188 46.066406 60.25 49.320312 60.25 53.339844 C 60.25 57.359375 56.992188 60.617188 52.976562 60.617188 C 48.957031 60.617188 45.699219 57.359375 45.699219 53.339844 C 45.699219 49.320312 48.957031 46.066406 52.976562 46.066406 Z M 52.976562 46.066406 "/>
<path style=" stroke:none;fill-rule:nonzero;fill:rgb(100%,100%,100%);fill-opacity:1;" d="M 49.332031 54.71875 C 50.765625 54.71875 51.929688 55.882812 51.929688 57.320312 C 51.929688 58.753906 50.765625 59.917969 49.332031 59.917969 C 47.894531 59.917969 46.730469 58.753906 46.730469 57.320312 C 46.730469 55.882812 47.894531 54.71875 49.332031 54.71875 Z M 49.332031 54.71875 "/>
<path style=" stroke:none;fill-rule:nonzero;fill:rgb(100%,100%,100%);fill-opacity:1;" d="M 52.082031 47.039062 C 53.066406 47.039062 53.863281 47.835938 53.863281 48.820312 C 53.863281 49.800781 53.066406 50.601562 52.082031 50.601562 C 51.097656 50.601562 50.300781 49.800781 50.300781 48.820312 C 50.300781 47.835938 51.097656 47.039062 52.082031 47.039062 Z M 52.082031 47.039062 "/>
<path style=" stroke:none;fill-rule:nonzero;fill:rgb(100%,100%,100%);fill-opacity:1;" d="M 29.15625 43.628906 C 34.519531 43.628906 38.867188 47.976562 38.867188 53.339844 C 38.867188 58.703125 34.519531 63.050781 29.15625 63.050781 C 23.792969 63.050781 19.445312 58.703125 19.445312 53.339844 C 19.445312 47.976562 23.792969 43.628906 29.15625 43.628906 Z M 29.15625 43.628906 "/>
<path style=" stroke:none;fill-rule:nonzero;fill:rgb(0%,0%,0%);fill-opacity:1;" d="M 29.15625 46.066406 C 33.175781 46.066406 36.429688 49.320312 36.429688 53.339844 C 36.429688 57.359375 33.175781 60.617188 29.15625 60.617188 C 25.136719 60.617188 21.878906 57.359375 21.878906 53.339844 C 21.878906 49.320312 25.136719 46.066406 29.15625 46.066406 Z M 29.15625 46.066406 "/>
<path style=" stroke:none;fill-rule:nonzero;fill:rgb(100%,100%,100%);fill-opacity:1;" d="M 25.140625 54.71875 C 26.574219 54.71875 27.738281 55.882812 27.738281 57.320312 C 27.738281 58.753906 26.574219 59.917969 25.140625 59.917969 C 23.703125 59.917969 22.539062 58.753906 22.539062 57.320312 C 22.539062 55.882812 23.703125 54.71875 25.140625 54.71875 Z M 25.140625 54.71875 "/>
<path style=" stroke:none;fill-rule:nonzero;fill:rgb(100%,100%,100%);fill-opacity:1;" d="M 29.882812 47.039062 C 30.867188 47.039062 31.664062 47.835938 31.664062 48.820312 C 31.664062 49.800781 30.867188 50.601562 29.882812 50.601562 C 28.902344 50.601562 28.101562 49.800781 28.101562 48.820312 C 28.101562 47.835938 28.902344 47.039062 29.882812 47.039062 Z M 29.882812 47.039062 "/>
<path style="fill:none;stroke-width:33;stroke-linecap:round;stroke-linejoin:miter;stroke:rgb(93.72549%,45.490196%,2.352941%);stroke-opacity:1;stroke-miterlimit:10;" d="M 20.659315 13.782466 C 20.659315 13.782466 -20.664188 -13.784079 -20.664188 -13.784079 " transform="matrix(0.155085,-0.0190421,0.0190421,0.155085,52.033596,39.252032)"/>
<path style="fill:none;stroke-width:33;stroke-linecap:round;stroke-linejoin:miter;stroke:rgb(93.72549%,45.490196%,2.352941%);stroke-opacity:1;stroke-miterlimit:10;" d="M -20.66571 13.790589 C -20.66571 13.790589 20.66263 -13.79137 20.66263 -13.79137 " transform="matrix(0.155655,0.0136181,-0.0136181,0.155655,29.588125,39.252035)"/>
<path style=" stroke:none;fill-rule:nonzero;fill:rgb(100%,98.039216%,49.019608%);fill-opacity:1;" d="M 0.0351562 -3.238281 C 0.0351562 -3.238281 1.039062 -1.09375 1.039062 -1.09375 C 1.039062 -1.09375 3.375 -0.707031 3.375 -0.707031 C 3.375 -0.707031 1.644531 0.902344 1.644531 0.902344 C 1.644531 0.902344 1.988281 3.238281 1.988281 3.238281 C 1.988281 3.238281 -0.0625 2.082031 -0.0625 2.082031 C -0.0625 2.082031 -2.195312 3.128906 -2.195312 3.128906 C -2.195312 3.128906 -1.726562 0.816406 -1.726562 0.816406 C -1.726562 0.816406 -3.375 -0.859375 -3.375 -0.859375 C -3.375 -0.859375 -1.039062 -1.148438 -1.039062 -1.148438 C -1.039062 -1.148438 0.0351562 -3.238281 0.0351562 -3.238281 Z M 0.0351562 -3.238281 "/>
<path style=" stroke:none;fill-rule:nonzero;fill:rgb(100%,98.039216%,49.019608%);fill-opacity:1;" d="M -0.757812 -0.816406 C -0.757812 -0.816406 -2.40625 -0.613281 -2.40625 -0.613281 C -2.40625 -0.613281 -1.238281 0.585938 -1.238281 0.585938 C -1.238281 0.585938 -1.554688 2.234375 -1.554688 2.234375 C -1.554688 2.234375 -0.0703125 1.492188 -0.0703125 1.492188 C -0.0703125 1.492188 1.417969 2.304688 1.417969 2.304688 C 1.417969 2.304688 1.167969 0.652344 1.167969 0.652344 C 1.167969 0.652344 2.40625 -0.503906 2.40625 -0.503906 C 2.40625 -0.503906 0.730469 -0.777344 0.730469 -0.777344 C 0.730469 -0.777344 0.0429688 -2.304688 0.0429688 -2.304688 C 0.0429688 -2.304688 -0.757812 -0.816406 -0.757812 -0.816406 Z M -0.757812 -0.816406 "/>
<path style=" stroke:none;fill-rule:nonzero;fill:rgb(100%,98.039216%,49.019608%);fill-opacity:1;" d="M 0.0703125 -4.089844 C 0.0703125 -4.089844 1.347656 -1.382812 1.347656 -1.382812 C 1.347656 -1.382812 4.261719 -0.886719 4.261719 -0.886719 C 4.261719 -0.886719 2.089844 1.148438 2.089844 1.148438 C 2.089844 1.148438 2.515625 4.089844 2.515625 4.089844 C 2.515625 4.089844 -0.0703125 2.632812 -0.0703125 2.632812 C -0.0703125 2.632812 -2.75 3.953125 -2.75 3.953125 C -2.75 3.953125 -2.171875 1.039062 -2.171875 1.039062 C -2.171875 1.039062 -4.261719 -1.09375 -4.261719 -1.09375 C -4.261719 -1.09375 -1.304688 -1.449219 -1.304688 -1.449219 C -1.304688 -1.449219 0.0703125 -4.089844 0.0703125 -4.089844 Z M 0.0703125 -4.089844 "/>
<path style=" stroke:none;fill-rule:nonzero;fill:rgb(100%,98.039216%,49.019608%);fill-opacity:1;" d="M 1.046875 -1.140625 C 1.046875 -1.140625 3.382812 -0.851562 3.382812 -0.851562 C 3.382812 -0.851562 1.734375 0.8125 1.734375 0.8125 C 1.734375 0.8125 2.171875 3.136719 2.171875 3.136719 C 2.171875 3.136719 0.0546875 2.089844 0.0546875 2.089844 C 0.0546875 2.089844 -1.980469 3.230469 -1.980469 3.230469 C -1.980469 3.230469 -1.636719 0.894531 -1.636719 0.894531 C -1.636719 0.894531 -3.382812 -0.714844 -3.382812 -0.714844 C -3.382812 -0.714844 -1.046875 -1.101562 -1.046875 -1.101562 C -1.046875 -1.101562 -0.0546875 -3.230469 -0.0546875 -3.230469 C -0.0546875 -3.230469 1.046875 -1.140625 1.046875 -1.140625 Z M 1.046875 -1.140625 "/>
<path style=" stroke:none;fill-rule:nonzero;fill:rgb(100%,98.039216%,49.019608%);fill-opacity:1;" d="M -0.742188 -0.785156 C -0.742188 -0.785156 -2.40625 -0.496094 -2.40625 -0.496094 C -2.40625 -0.496094 -1.195312 0.644531 -1.195312 0.644531 C -1.195312 0.644531 -1.429688 2.308594 -1.429688 2.308594 C -1.429688 2.308594 0.0429688 1.484375 0.0429688 1.484375 C 0.0429688 1.484375 1.554688 2.242188 1.554688 2.242188 C 1.554688 2.242188 1.210938 0.589844 1.210938 0.589844 C 1.210938 0.589844 2.40625 -0.605469 2.40625 -0.605469 C 2.40625 -0.605469 0.730469 -0.824219 0.730469 -0.824219 C 0.730469 -0.824219 -0.0546875 -2.308594 -0.0546875 -2.308594 C -0.0546875 -2.308594 -0.742188 -0.785156 -0.742188 -0.785156 Z M -0.742188 -0.785156 "/>
<path style=" stroke:none;fill-rule:nonzero;fill:rgb(100%,98.039216%,49.019608%);fill-opacity:1;" d="M 1.304688 -1.457031 C 1.304688 -1.457031 4.261719 -1.085938 4.261719 -1.085938 C 4.261719 -1.085938 2.199219 1.046875 2.199219 1.046875 C 2.199219 1.046875 2.75 3.960938 2.75 3.960938 C 2.75 3.960938 0.0976562 2.640625 0.0976562 2.640625 C 0.0976562 2.640625 -2.515625 4.085938 -2.515625 4.085938 C -2.515625 4.085938 -2.0625 1.140625 -2.0625 1.140625 C -2.0625 1.140625 -4.261719 -0.894531 -4.261719 -0.894531 C -4.261719 -0.894531 -1.335938 -1.390625 -1.335938 -1.390625 C -1.335938 -1.390625 -0.0703125 -4.085938 -0.0703125 -4.085938 C -0.0703125 -4.085938 1.304688 -1.457031 1.304688 -1.457031 Z M 1.304688 -1.457031 "/>
<path style=" stroke:none;fill-rule:nonzero;fill:rgb(100%,98.039216%,49.019608%);fill-opacity:1;" d="M 11.242188 48.46875 C 11.242188 48.46875 11.082031 48.246094 11.082031 48.246094 C 11.082031 48.246094 10.808594 48.257812 10.808594 48.257812 C 10.808594 48.257812 10.96875 48.035156 10.96875 48.035156 C 10.96875 48.035156 10.875 47.777344 10.875 47.777344 C 10.875 47.777344 11.132812 47.863281 11.132812 47.863281 C 11.132812 47.863281 11.351562 47.695312 11.351562 47.695312 C 11.351562 47.695312 11.351562 47.96875 11.351562 47.96875 C 11.351562 47.96875 11.578125 48.121094 11.578125 48.121094 C 11.578125 48.121094 11.316406 48.207031 11.316406 48.207031 C 11.316406 48.207031 11.242188 48.46875 11.242188 48.46875 Z M 11.242188 48.46875 "/>
<path style=" stroke:none;fill-rule:nonzero;fill:rgb(100%,98.039216%,49.019608%);fill-opacity:1;" d="M 1.753906 52.910156 C 1.753906 52.910156 0.933594 53.523438 0.933594 53.523438 C 0.933594 53.523438 1.921875 53.808594 1.921875 53.808594 C 1.921875 53.808594 2.253906 54.789062 2.253906 54.789062 C 2.253906 54.789062 2.824219 53.941406 2.824219 53.941406 C 2.824219 53.941406 3.863281 53.925781 3.863281 53.925781 C 3.863281 53.925781 3.230469 53.117188 3.230469 53.117188 C 3.230469 53.117188 3.542969 52.121094 3.542969 52.121094 C 3.542969 52.121094 2.5625 52.484375 2.5625 52.484375 C 2.5625 52.484375 1.730469 51.875 1.730469 51.875 C 1.730469 51.875 1.753906 52.910156 1.753906 52.910156 Z M 1.753906 52.910156 "/>
<path style=" stroke:none;fill-rule:nonzero;fill:rgb(100%,98.039216%,49.019608%);fill-opacity:1;" d="M 5.496094 60.71875 C 5.496094 60.71875 8.414062 60.488281 8.414062 60.488281 C 8.414062 60.488281 9.875 57.992188 9.875 57.992188 C 9.875 57.992188 10.988281 60.683594 10.988281 60.683594 C 10.988281 60.683594 13.824219 61.308594 13.824219 61.308594 C 13.824219 61.308594 11.597656 63.167969 11.597656 63.167969 C 11.597656 63.167969 11.878906 66.078125 11.878906 66.078125 C 11.878906 66.078125 9.414062 64.542969 9.414062 64.542969 C 9.414062 64.542969 6.742188 65.71875 6.742188 65.71875 C 6.742188 65.71875 7.4375 62.890625 7.4375 62.890625 C 7.4375 62.890625 5.496094 60.71875 5.496094 60.71875 Z M 5.496094 60.71875 "/>
<path style=" stroke:none;fill-rule:nonzero;fill:rgb(100%,98.039216%,49.019608%);fill-opacity:1;" d="M 68.796875 46.433594 C 68.796875 46.433594 67.800781 47.101562 67.800781 47.101562 C 67.800781 47.101562 67.882812 45.910156 67.882812 45.910156 C 67.882812 45.910156 66.9375 45.164062 66.9375 45.164062 C 66.9375 45.164062 68.101562 44.859375 68.101562 44.859375 C 68.101562 44.859375 68.503906 43.742188 68.503906 43.742188 C 68.503906 43.742188 69.152344 44.757812 69.152344 44.757812 C 69.152344 44.757812 70.359375 44.792969 70.359375 44.792969 C 70.359375 44.792969 69.585938 45.722656 69.585938 45.722656 C 69.585938 45.722656 69.914062 46.871094 69.914062 46.871094 C 69.914062 46.871094 68.796875 46.433594 68.796875 46.433594 Z M 68.796875 46.433594 "/>
<path style=" stroke:none;fill-rule:nonzero;fill:rgb(100%,98.039216%,49.019608%);fill-opacity:1;" d="M -0.742188 -0.785156 C -0.742188 -0.785156 -2.40625 -0.496094 -2.40625 -0.496094 C -2.40625 -0.496094 -1.195312 0.644531 -1.195312 0.644531 C -1.195312 0.644531 -1.429688 2.308594 -1.429688 2.308594 C -1.429688 2.308594 0.0429688 1.484375 0.0429688 1.484375 C 0.0429688 1.484375 1.554688 2.242188 1.554688 2.242188 C 1.554688 2.242188 1.210938 0.589844 1.210938 0.589844 C 1.210938 0.589844 2.40625 -0.605469 2.40625 -0.605469 C 2.40625 -0.605469 0.730469 -0.824219 0.730469 -0.824219 C 0.730469 -0.824219 -0.0546875 -2.308594 -0.0546875 -2.308594 C -0.0546875 -2.308594 -0.742188 -0.785156 -0.742188 -0.785156 Z M -0.742188 -0.785156 "/>
<path style=" stroke:none;fill-rule:nonzero;fill:rgb(100%,98.039216%,49.019608%);fill-opacity:1;" d="M 1.304688 -1.457031 C 1.304688 -1.457031 4.261719 -1.085938 4.261719 -1.085938 C 4.261719 -1.085938 2.199219 1.046875 2.199219 1.046875 C 2.199219 1.046875 2.75 3.960938 2.75 3.960938 C 2.75 3.960938 0.0976562 2.640625 0.0976562 2.640625 C 0.0976562 2.640625 -2.515625 4.085938 -2.515625 4.085938 C -2.515625 4.085938 -2.0625 1.140625 -2.0625 1.140625 C -2.0625 1.140625 -4.261719 -0.894531 -4.261719 -0.894531 C -4.261719 -0.894531 -1.335938 -1.390625 -1.335938 -1.390625 C -1.335938 -1.390625 -0.0703125 -4.085938 -0.0703125 -4.085938 C -0.0703125 -4.085938 1.304688 -1.457031 1.304688 -1.457031 Z M 1.304688 -1.457031 "/>
</g>
</svg>
