<?xml version="1.0" encoding="UTF-8"?>
<svg xmlns="http://www.w3.org/2000/svg" xmlns:xlink="http://www.w3.org/1999/xlink" width="80px" height="80px" viewBox="0 0 80 80" version="1.1">
<g id="surface1">
<path style=" stroke:none;fill-rule:nonzero;fill:rgb(90.196078%,90.196078%,90.196078%);fill-opacity:1;" d="M 20.070312 72.511719 C 20.441406 72.511719 20.742188 72.210938 20.742188 71.839844 C 20.742188 71.46875 20.441406 71.167969 20.070312 71.167969 C 19.699219 71.167969 19.398438 71.46875 19.398438 71.839844 C 19.398438 72.210938 19.699219 72.511719 20.070312 72.511719 Z M 20.070312 72.511719 "/>
<path style=" stroke:none;fill-rule:nonzero;fill:rgb(90.196078%,90.196078%,90.196078%);fill-opacity:1;" d="M 15.574219 74.882812 C 16.761719 74.882812 17.726562 73.921875 17.726562 72.730469 C 17.726562 71.542969 16.761719 70.578125 15.574219 70.578125 C 14.386719 70.578125 13.421875 71.542969 13.421875 72.730469 C 13.421875 73.921875 14.386719 74.882812 15.574219 74.882812 Z M 15.574219 74.882812 "/>
<path style=" stroke:none;fill-rule:nonzero;fill:rgb(90.196078%,90.196078%,90.196078%);fill-opacity:1;" d="M 19.476562 76.910156 C 20.445312 76.910156 21.230469 76.246094 21.230469 75.425781 C 21.230469 74.605469 20.445312 73.941406 19.476562 73.941406 C 18.507812 73.941406 17.722656 74.605469 17.722656 75.425781 C 17.722656 76.246094 18.507812 76.910156 19.476562 76.910156 Z M 19.476562 76.910156 "/>
<path style=" stroke:none;fill-rule:nonzero;fill:rgb(90.196078%,90.196078%,90.196078%);fill-opacity:1;" d="M 22.277344 74.746094 C 22.78125 74.746094 23.1875 74.339844 23.1875 73.835938 C 23.1875 73.332031 22.78125 72.921875 22.277344 72.921875 C 21.773438 72.921875 21.363281 73.332031 21.363281 73.835938 C 21.363281 74.339844 21.773438 74.746094 22.277344 74.746094 Z M 22.277344 74.746094 "/>
<path style=" stroke:none;fill-rule:nonzero;fill:rgb(0%,0%,0%);fill-opacity:1;" d="M 17.914062 65.328125 C 17.914062 65.328125 27.011719 65.328125 27.011719 65.328125 C 27.011719 65.328125 27.011719 75.589844 27.011719 75.589844 C 27.011719 75.589844 14.371094 75.589844 14.371094 75.589844 C 14.371094 75.589844 14.371094 68.871094 14.371094 68.871094 C 14.371094 66.914062 15.957031 65.328125 17.914062 65.328125 Z M 17.914062 65.328125 "/>
<path style=" stroke:none;fill-rule:nonzero;fill:rgb(100%,60%,0%);fill-opacity:1;" d="M 43.875 45.925781 C 43.875 45.925781 38.042969 54.953125 38.042969 54.953125 C 38.042969 54.953125 25.414062 45.957031 25.414062 45.957031 C 25.414062 45.957031 25.414062 77.808594 25.414062 77.808594 C 25.414062 77.808594 52.507812 78.238281 52.507812 78.238281 C 52.507812 78.238281 43.875 45.925781 43.875 45.925781 Z M 43.875 45.925781 "/>
<path style=" stroke:none;fill-rule:nonzero;fill:rgb(100%,60%,0%);fill-opacity:1;" d="M 43.875 45.925781 C 43.875 45.925781 38.042969 54.953125 38.042969 54.953125 C 38.042969 54.953125 25.414062 45.957031 25.414062 45.957031 C 25.414062 45.957031 25.414062 70.917969 25.414062 70.917969 C 25.414062 70.917969 50.667969 70.917969 50.667969 70.917969 C 50.667969 70.917969 43.875 45.925781 43.875 45.925781 Z M 43.875 45.925781 "/>
<path style="fill:none;stroke-width:11.356;stroke-linecap:butt;stroke-linejoin:miter;stroke:rgb(15.686275%,15.686275%,15.686275%);stroke-opacity:1;stroke-miterlimit:10;" d="M 62.414716 25.334892 C 55.223318 -3.875874 30.053427 -25.302452 0.0335231 -25.302452 C -30.070001 -25.302452 -55.239893 -3.795624 -62.43129 25.334892 " transform="matrix(0.0467138,0,0,0.0486764,33.963278,59.141789)"/>
<path style="fill:none;stroke-width:11.356;stroke-linecap:butt;stroke-linejoin:miter;stroke:rgb(15.686275%,15.686275%,15.686275%);stroke-opacity:1;stroke-miterlimit:10;" d="M 62.437218 25.334892 C 55.24582 -3.875874 30.075929 -25.302452 -0.0275957 -25.302452 C -30.13112 -25.302452 -55.217391 -3.795624 -62.492409 25.334892 " transform="matrix(0.0467138,0,0,0.0486764,44.559883,59.141789)"/>
<path style=" stroke:none;fill-rule:nonzero;fill:rgb(0%,0%,0%);fill-opacity:1;" d="M 40.191406 58.933594 C 40.191406 58.933594 50.15625 58.933594 50.15625 58.933594 C 50.15625 58.933594 50.15625 57.242188 50.15625 57.242188 C 50.15625 57.242188 40.191406 57.242188 40.191406 57.242188 C 40.191406 57.242188 40.191406 58.933594 40.191406 58.933594 Z M 40.191406 58.933594 "/>
<path style=" stroke:none;fill-rule:nonzero;fill:rgb(0%,0%,0%);fill-opacity:1;" d="M 49.308594 58.511719 C 49.308594 58.511719 40.8125 58.511719 40.8125 58.511719 C 40.8125 58.511719 40.8125 60.199219 40.8125 60.199219 C 40.8125 60.199219 49.308594 60.199219 49.308594 60.199219 C 49.308594 60.199219 49.308594 58.511719 49.308594 58.511719 Z M 49.308594 58.511719 "/>
<path style=" stroke:none;fill-rule:nonzero;fill:rgb(0%,0%,0%);fill-opacity:1;" d="M 48.457031 59.777344 C 48.457031 59.777344 41.433594 59.777344 41.433594 59.777344 C 41.433594 59.777344 41.433594 61.46875 41.433594 61.46875 C 41.433594 61.46875 48.457031 61.46875 48.457031 61.46875 C 48.457031 61.46875 48.457031 59.777344 48.457031 59.777344 Z M 48.457031 59.777344 "/>
<path style=" stroke:none;fill-rule:nonzero;fill:rgb(0%,0%,0%);fill-opacity:1;" d="M 47.609375 61.046875 C 47.609375 61.046875 42.050781 61.046875 42.050781 61.046875 C 42.050781 61.046875 42.050781 62.738281 42.050781 62.738281 C 42.050781 62.738281 47.609375 62.738281 47.609375 62.738281 C 47.609375 62.738281 47.609375 61.046875 47.609375 61.046875 Z M 47.609375 61.046875 "/>
<path style=" stroke:none;fill-rule:nonzero;fill:rgb(0%,0%,0%);fill-opacity:1;" d="M 33.6875 58.933594 C 33.6875 58.933594 49.039062 58.933594 49.039062 58.933594 C 49.039062 58.933594 49.039062 57.242188 49.039062 57.242188 C 49.039062 57.242188 33.6875 57.242188 33.6875 57.242188 C 33.6875 57.242188 33.6875 58.933594 33.6875 58.933594 Z M 33.6875 58.933594 "/>
<path style=" stroke:none;fill-rule:nonzero;fill:rgb(100%,100%,100%);fill-opacity:1;" d="M 48.238281 58.933594 C 48.238281 58.933594 49.039062 58.933594 49.039062 58.933594 C 49.039062 58.933594 49.039062 57.875 49.039062 57.875 C 49.039062 57.875 48.238281 57.875 48.238281 57.875 C 48.238281 57.875 48.238281 58.933594 48.238281 58.933594 Z M 48.238281 58.933594 "/>
<path style=" stroke:none;fill-rule:nonzero;fill:rgb(100%,100%,100%);fill-opacity:1;" d="M 47.4375 59.988281 C 47.4375 59.988281 48.238281 59.988281 48.238281 59.988281 C 48.238281 59.988281 48.238281 58.933594 48.238281 58.933594 C 48.238281 58.933594 47.4375 58.933594 47.4375 58.933594 C 47.4375 58.933594 47.4375 59.988281 47.4375 59.988281 Z M 47.4375 59.988281 "/>
<path style=" stroke:none;fill-rule:nonzero;fill:rgb(100%,100%,100%);fill-opacity:1;" d="M 46.636719 61.046875 C 46.636719 61.046875 47.4375 61.046875 47.4375 61.046875 C 47.4375 61.046875 47.4375 59.992188 47.4375 59.992188 C 47.4375 59.992188 46.636719 59.992188 46.636719 59.992188 C 46.636719 59.992188 46.636719 61.046875 46.636719 61.046875 Z M 46.636719 61.046875 "/>
<path style=" stroke:none;fill-rule:nonzero;fill:rgb(100%,100%,100%);fill-opacity:1;" d="M 46.636719 58.933594 C 46.636719 58.933594 47.4375 58.933594 47.4375 58.933594 C 47.4375 58.933594 47.4375 57.875 47.4375 57.875 C 47.4375 57.875 46.636719 57.875 46.636719 57.875 C 46.636719 57.875 46.636719 58.933594 46.636719 58.933594 Z M 46.636719 58.933594 "/>
<path style=" stroke:none;fill-rule:nonzero;fill:rgb(100%,100%,100%);fill-opacity:1;" d="M 45.839844 59.988281 C 45.839844 59.988281 46.636719 59.988281 46.636719 59.988281 C 46.636719 59.988281 46.636719 58.933594 46.636719 58.933594 C 46.636719 58.933594 45.839844 58.933594 45.839844 58.933594 C 45.839844 58.933594 45.839844 59.988281 45.839844 59.988281 Z M 45.839844 59.988281 "/>
<path style=" stroke:none;fill-rule:nonzero;fill:rgb(100%,100%,100%);fill-opacity:1;" d="M 45.039062 61.046875 C 45.039062 61.046875 45.839844 61.046875 45.839844 61.046875 C 45.839844 61.046875 45.839844 59.992188 45.839844 59.992188 C 45.839844 59.992188 45.039062 59.992188 45.039062 59.992188 C 45.039062 59.992188 45.039062 61.046875 45.039062 61.046875 Z M 45.039062 61.046875 "/>
<path style=" stroke:none;fill-rule:nonzero;fill:rgb(0%,0%,0%);fill-opacity:1;" d="M 38.804688 57.242188 C 38.804688 57.242188 28.839844 57.242188 28.839844 57.242188 C 28.839844 57.242188 28.839844 58.933594 28.839844 58.933594 C 28.839844 58.933594 38.804688 58.933594 38.804688 58.933594 C 38.804688 58.933594 38.804688 57.242188 38.804688 57.242188 Z M 38.804688 57.242188 "/>
<path style=" stroke:none;fill-rule:nonzero;fill:rgb(0%,0%,0%);fill-opacity:1;" d="M 37.953125 58.511719 C 37.953125 58.511719 29.460938 58.511719 29.460938 58.511719 C 29.460938 58.511719 29.460938 60.199219 29.460938 60.199219 C 29.460938 60.199219 37.953125 60.199219 37.953125 60.199219 C 37.953125 60.199219 37.953125 58.511719 37.953125 58.511719 Z M 37.953125 58.511719 "/>
<path style=" stroke:none;fill-rule:nonzero;fill:rgb(0%,0%,0%);fill-opacity:1;" d="M 37.105469 59.777344 C 37.105469 59.777344 30.078125 59.777344 30.078125 59.777344 C 30.078125 59.777344 30.078125 61.46875 30.078125 61.46875 C 30.078125 61.46875 37.105469 61.46875 37.105469 61.46875 C 37.105469 61.46875 37.105469 59.777344 37.105469 59.777344 Z M 37.105469 59.777344 "/>
<path style=" stroke:none;fill-rule:nonzero;fill:rgb(0%,0%,0%);fill-opacity:1;" d="M 36.253906 61.046875 C 36.253906 61.046875 30.699219 61.046875 30.699219 61.046875 C 30.699219 61.046875 30.699219 62.738281 30.699219 62.738281 C 30.699219 62.738281 36.253906 62.738281 36.253906 62.738281 C 36.253906 62.738281 36.253906 61.046875 36.253906 61.046875 Z M 36.253906 61.046875 "/>
<path style=" stroke:none;fill-rule:nonzero;fill:rgb(100%,100%,100%);fill-opacity:1;" d="M 36.882812 58.933594 C 36.882812 58.933594 37.683594 58.933594 37.683594 58.933594 C 37.683594 58.933594 37.683594 57.875 37.683594 57.875 C 37.683594 57.875 36.882812 57.875 36.882812 57.875 C 36.882812 57.875 36.882812 58.933594 36.882812 58.933594 Z M 36.882812 58.933594 "/>
<path style=" stroke:none;fill-rule:nonzero;fill:rgb(100%,100%,100%);fill-opacity:1;" d="M 36.085938 59.988281 C 36.085938 59.988281 36.722656 60.207031 36.882812 59.988281 C 37.09375 59.710938 36.882812 58.933594 36.882812 58.933594 C 36.882812 58.933594 36.085938 58.933594 36.085938 58.933594 C 36.085938 58.933594 36.085938 59.988281 36.085938 59.988281 Z M 36.085938 59.988281 "/>
<path style=" stroke:none;fill-rule:nonzero;fill:rgb(100%,100%,100%);fill-opacity:1;" d="M 35.285156 61.046875 C 35.285156 61.046875 36.085938 61.046875 36.085938 61.046875 C 36.085938 61.046875 36.085938 59.992188 36.085938 59.992188 C 36.085938 59.992188 35.285156 59.992188 35.285156 59.992188 C 35.285156 59.992188 35.285156 61.046875 35.285156 61.046875 Z M 35.285156 61.046875 "/>
<path style=" stroke:none;fill-rule:nonzero;fill:rgb(100%,100%,100%);fill-opacity:1;" d="M 35.285156 58.933594 C 35.285156 58.933594 36.085938 58.933594 36.085938 58.933594 C 36.085938 58.933594 36.085938 57.875 36.085938 57.875 C 36.085938 57.875 35.285156 57.875 35.285156 57.875 C 35.285156 57.875 35.285156 58.933594 35.285156 58.933594 Z M 35.285156 58.933594 "/>
<path style=" stroke:none;fill-rule:nonzero;fill:rgb(100%,100%,100%);fill-opacity:1;" d="M 34.484375 59.988281 C 34.484375 59.988281 35.285156 59.988281 35.285156 59.988281 C 35.285156 59.988281 35.285156 58.933594 35.285156 58.933594 C 35.285156 58.933594 34.484375 58.933594 34.484375 58.933594 C 34.484375 58.933594 34.484375 59.988281 34.484375 59.988281 Z M 34.484375 59.988281 "/>
<path style=" stroke:none;fill-rule:nonzero;fill:rgb(100%,100%,100%);fill-opacity:1;" d="M 33.6875 61.046875 C 33.6875 61.046875 34.484375 61.046875 34.484375 61.046875 C 34.484375 61.046875 34.484375 59.992188 34.484375 59.992188 C 34.484375 59.992188 33.6875 59.992188 33.6875 59.992188 C 33.6875 59.992188 33.6875 61.046875 33.6875 61.046875 Z M 33.6875 61.046875 "/>
<path style=" stroke:none;fill-rule:nonzero;fill:rgb(100%,100%,100%);fill-opacity:1;" d="M 35.449219 64.425781 C 36.027344 66.703125 38.046875 68.386719 40.453125 68.386719 C 42.859375 68.386719 44.882812 66.703125 45.460938 64.425781 C 45.460938 64.425781 35.449219 64.425781 35.449219 64.425781 Z M 35.449219 64.425781 "/>
<path style=" stroke:none;fill-rule:nonzero;fill:rgb(100%,100%,100%);fill-opacity:1;" d="M 18.992188 34.578125 C 15.839844 33.515625 14.722656 32.121094 13.914062 27.855469 C 13.886719 27.730469 13.832031 27.597656 13.71875 27.53125 C 13.609375 27.441406 13.492188 27.398438 13.34375 27.402344 C 13.199219 27.40625 13.066406 27.460938 12.980469 27.542969 C 12.871094 27.628906 12.800781 27.761719 12.78125 27.882812 C 12.027344 32.109375 10.910156 33.511719 7.722656 34.65625 C 7.621094 34.6875 7.507812 34.769531 7.441406 34.882812 C 7.378906 34.996094 7.335938 35.113281 7.339844 35.234375 C 7.347656 35.359375 7.375 35.484375 7.460938 35.570312 C 7.519531 35.679688 7.632812 35.746094 7.75 35.785156 C 10.917969 36.898438 12.035156 38.269531 12.84375 42.386719 C 12.871094 42.515625 12.925781 42.644531 13.035156 42.734375 C 13.144531 42.824219 13.285156 42.871094 13.40625 42.863281 C 13.554688 42.859375 13.683594 42.808594 13.773438 42.722656 C 13.882812 42.640625 13.953125 42.503906 13.96875 42.382812 C 14.710938 38.25 15.847656 36.878906 18.984375 35.753906 C 19.085938 35.71875 19.199219 35.640625 19.261719 35.550781 C 19.328125 35.4375 19.371094 35.320312 19.363281 35.199219 C 19.355469 35.074219 19.328125 34.949219 19.242188 34.859375 C 19.191406 34.707031 19.109375 34.621094 18.992188 34.578125 Z M 18.992188 34.578125 "/>
<path style=" stroke:none;fill-rule:nonzero;fill:rgb(100%,100%,100%);fill-opacity:1;" d="M 9.144531 28.445312 C 7.113281 27.761719 6.394531 26.863281 5.871094 24.113281 C 5.851562 24.03125 5.816406 23.945312 5.746094 23.902344 C 5.675781 23.84375 5.597656 23.816406 5.503906 23.820312 C 5.410156 23.820312 5.324219 23.855469 5.269531 23.910156 C 5.199219 23.964844 5.152344 24.050781 5.140625 24.128906 C 4.65625 26.855469 3.933594 27.761719 1.878906 28.496094 C 1.8125 28.519531 1.738281 28.570312 1.699219 28.644531 C 1.65625 28.714844 1.628906 28.792969 1.632812 28.871094 C 1.636719 28.949219 1.65625 29.03125 1.710938 29.085938 C 1.746094 29.15625 1.820312 29.199219 1.894531 29.226562 C 3.9375 29.941406 4.660156 30.828125 5.179688 33.484375 C 5.199219 33.566406 5.234375 33.648438 5.304688 33.707031 C 5.375 33.761719 5.464844 33.792969 5.542969 33.789062 C 5.640625 33.789062 5.722656 33.753906 5.777344 33.699219 C 5.851562 33.644531 5.894531 33.558594 5.90625 33.480469 C 6.382812 30.8125 7.117188 29.925781 9.140625 29.203125 C 9.207031 29.179688 9.277344 29.128906 9.320312 29.070312 C 9.363281 28.996094 9.390625 28.921875 9.386719 28.84375 C 9.382812 28.765625 9.363281 28.683594 9.308594 28.625 C 9.273438 28.527344 9.21875 28.472656 9.144531 28.445312 Z M 9.144531 28.445312 "/>
<path style=" stroke:none;fill-rule:nonzero;fill:rgb(80.392157%,92.156863%,97.647059%);fill-opacity:1;" d="M 64.675781 73.808594 C 64.675781 73.808594 50.382812 73.808594 50.382812 73.808594 C 50.382812 73.808594 43.042969 66.683594 43.042969 66.683594 C 43.042969 66.683594 55.175781 66.683594 55.175781 66.683594 C 55.175781 66.683594 64.675781 73.808594 64.675781 73.808594 Z M 64.675781 73.808594 "/>
<path style=" stroke:none;fill-rule:nonzero;fill:rgb(53.72549%,31.372549%,90.196078%);fill-opacity:1;" d="M 73.457031 80.046875 C 73.457031 80.046875 7.964844 80.046875 7.964844 80.046875 C 7.964844 80.046875 9.222656 74.824219 9.222656 74.824219 C 9.742188 72.675781 11.664062 71.15625 13.875 71.15625 C 13.875 71.15625 64.550781 71.136719 64.550781 71.136719 C 69.46875 71.136719 73.457031 75.125 73.457031 80.042969 C 73.457031 80.042969 73.457031 80.046875 73.457031 80.046875 Z M 73.457031 80.046875 "/>
<path style=" stroke:none;fill-rule:nonzero;fill:rgb(53.72549%,31.372549%,90.196078%);fill-opacity:1;" d="M 50.5625 74.691406 C 50.5625 74.691406 42.363281 66.683594 42.363281 66.683594 C 42.363281 66.683594 43.890625 66.683594 43.890625 66.683594 C 43.890625 66.683594 51.472656 73.863281 51.472656 73.863281 C 51.472656 73.863281 50.5625 74.691406 50.5625 74.691406 Z M 50.5625 74.691406 "/>
<path style=" stroke:none;fill-rule:nonzero;fill:rgb(100%,98.039216%,49.019608%);fill-opacity:1;" d="M 70.726562 76.199219 C 71.152344 75.542969 70.433594 74.324219 69.121094 73.476562 C 67.808594 72.628906 66.402344 72.472656 65.980469 73.128906 C 65.554688 73.785156 66.277344 75.003906 67.585938 75.851562 C 68.898438 76.699219 70.304688 76.855469 70.726562 76.199219 Z M 70.726562 76.199219 "/>
<path style=" stroke:none;fill-rule:nonzero;fill:rgb(0%,0%,0%);fill-opacity:1;" d="M 42.40625 74.914062 C 42.40625 74.914062 36.679688 74.914062 36.679688 74.914062 C 36.679688 74.914062 36.679688 75.972656 36.679688 75.972656 C 36.679688 75.972656 42.40625 75.972656 42.40625 75.972656 C 42.40625 75.972656 42.40625 74.914062 42.40625 74.914062 Z M 42.40625 74.914062 "/>
</g>
</svg>
