<?xml version="1.0" encoding="UTF-8"?>
<svg xmlns="http://www.w3.org/2000/svg" xmlns:xlink="http://www.w3.org/1999/xlink" width="80px" height="80px" viewBox="0 0 80 80" version="1.1">
<g id="surface1">
<path style=" stroke:none;fill-rule:nonzero;fill:rgb(100%,60%,0%);fill-opacity:1;" d="M 58.332031 4.613281 C 58.332031 4.613281 39.988281 31.839844 39.988281 31.839844 C 39.988281 31.839844 0.265625 4.710938 0.265625 4.710938 C 0.265625 4.710938 0.265625 91.203125 0.265625 91.203125 C 0.265625 91.203125 82.832031 91.902344 82.832031 91.902344 C 82.832031 91.902344 58.332031 4.613281 58.332031 4.613281 Z M 58.332031 4.613281 "/>
<path style=" stroke:none;fill-rule:nonzero;fill:rgb(100%,60%,0%);fill-opacity:1;" d="M 58.332031 4.613281 C 58.332031 4.613281 39.988281 31.839844 39.988281 31.839844 C 39.988281 31.839844 0.265625 4.710938 0.265625 4.710938 C 0.265625 4.710938 0.265625 79.984375 0.265625 79.984375 C 0.265625 79.984375 79.703125 79.984375 79.703125 79.984375 C 79.703125 79.984375 58.332031 4.613281 58.332031 4.613281 Z M 58.332031 4.613281 "/>
<path style="fill:none;stroke-width:11.356;stroke-linecap:butt;stroke-linejoin:miter;stroke:rgb(15.686275%,15.686275%,15.686275%);stroke-opacity:1;stroke-miterlimit:10;" d="M 62.459181 25.349596 C 55.228918 -3.894687 30.082489 -25.342269 -0.00816473 -25.342269 C -30.098818 -25.342269 -55.218666 -3.761638 -62.448929 25.349596 " transform="matrix(0.146952,0,0,0.146797,27.15745,44.474072)"/>
<path style="fill:none;stroke-width:11.356;stroke-linecap:butt;stroke-linejoin:miter;stroke:rgb(15.686275%,15.686275%,15.686275%);stroke-opacity:1;stroke-miterlimit:10;" d="M 62.467679 25.349596 C 55.210834 -3.894687 30.090986 -25.342269 0.000332998 -25.342269 C -30.09032 -25.342269 -55.210168 -3.761638 -62.467013 25.349596 " transform="matrix(0.146952,0,0,0.146797,60.492139,44.474072)"/>
<path style=" stroke:none;fill-rule:nonzero;fill:rgb(0%,0%,0%);fill-opacity:1;" d="M 46.753906 43.847656 C 46.753906 43.847656 78.097656 43.847656 78.097656 43.847656 C 78.097656 43.847656 78.097656 38.75 78.097656 38.75 C 78.097656 38.75 46.753906 38.75 46.753906 38.75 C 46.753906 38.75 46.753906 43.847656 46.753906 43.847656 Z M 46.753906 43.847656 "/>
<path style=" stroke:none;fill-rule:nonzero;fill:rgb(0%,0%,0%);fill-opacity:1;" d="M 75.425781 42.570312 C 75.425781 42.570312 48.703125 42.570312 48.703125 42.570312 C 48.703125 42.570312 48.703125 47.667969 48.703125 47.667969 C 48.703125 47.667969 75.425781 47.667969 75.425781 47.667969 C 75.425781 47.667969 75.425781 42.570312 75.425781 42.570312 Z M 75.425781 42.570312 "/>
<path style=" stroke:none;fill-rule:nonzero;fill:rgb(0%,0%,0%);fill-opacity:1;" d="M 72.753906 46.394531 C 72.753906 46.394531 50.652344 46.394531 50.652344 46.394531 C 50.652344 46.394531 50.652344 51.492188 50.652344 51.492188 C 50.652344 51.492188 72.753906 51.492188 72.753906 51.492188 C 72.753906 51.492188 72.753906 46.394531 72.753906 46.394531 Z M 72.753906 46.394531 "/>
<path style=" stroke:none;fill-rule:nonzero;fill:rgb(0%,0%,0%);fill-opacity:1;" d="M 70.082031 50.21875 C 70.082031 50.21875 52.601562 50.21875 52.601562 50.21875 C 52.601562 50.21875 52.601562 55.316406 52.601562 55.316406 C 52.601562 55.316406 70.082031 55.316406 70.082031 55.316406 C 70.082031 55.316406 70.082031 50.21875 70.082031 50.21875 Z M 70.082031 50.21875 "/>
<path style=" stroke:none;fill-rule:nonzero;fill:rgb(0%,0%,0%);fill-opacity:1;" d="M 26.285156 43.847656 C 26.285156 43.847656 74.578125 43.847656 74.578125 43.847656 C 74.578125 43.847656 74.578125 38.75 74.578125 38.75 C 74.578125 38.75 26.285156 38.75 26.285156 38.75 C 26.285156 38.75 26.285156 43.847656 26.285156 43.847656 Z M 26.285156 43.847656 "/>
<path style=" stroke:none;fill-rule:nonzero;fill:rgb(100%,100%,100%);fill-opacity:1;" d="M 72.0625 43.84375 C 72.0625 43.84375 74.578125 43.84375 74.578125 43.84375 C 74.578125 43.84375 74.578125 40.660156 74.578125 40.660156 C 74.578125 40.660156 72.0625 40.660156 72.0625 40.660156 C 72.0625 40.660156 72.0625 43.84375 72.0625 43.84375 Z M 72.0625 43.84375 "/>
<path style=" stroke:none;fill-rule:nonzero;fill:rgb(100%,100%,100%);fill-opacity:1;" d="M 69.546875 47.03125 C 69.546875 47.03125 72.0625 47.03125 72.0625 47.03125 C 72.0625 47.03125 72.0625 43.847656 72.0625 43.847656 C 72.0625 43.847656 69.546875 43.847656 69.546875 43.847656 C 69.546875 43.847656 69.546875 47.03125 69.546875 47.03125 Z M 69.546875 47.03125 "/>
<path style=" stroke:none;fill-rule:nonzero;fill:rgb(100%,100%,100%);fill-opacity:1;" d="M 67.03125 50.21875 C 67.03125 50.21875 69.546875 50.21875 69.546875 50.21875 C 69.546875 50.21875 69.546875 47.035156 69.546875 47.035156 C 69.546875 47.035156 67.03125 47.035156 67.03125 47.035156 C 67.03125 47.035156 67.03125 50.21875 67.03125 50.21875 Z M 67.03125 50.21875 "/>
<path style=" stroke:none;fill-rule:nonzero;fill:rgb(100%,100%,100%);fill-opacity:1;" d="M 67.03125 43.84375 C 67.03125 43.84375 69.546875 43.84375 69.546875 43.84375 C 69.546875 43.84375 69.546875 40.660156 69.546875 40.660156 C 69.546875 40.660156 67.03125 40.660156 67.03125 40.660156 C 67.03125 40.660156 67.03125 43.84375 67.03125 43.84375 Z M 67.03125 43.84375 "/>
<path style=" stroke:none;fill-rule:nonzero;fill:rgb(100%,100%,100%);fill-opacity:1;" d="M 64.515625 47.03125 C 64.515625 47.03125 67.03125 47.03125 67.03125 47.03125 C 67.03125 47.03125 67.03125 43.847656 67.03125 43.847656 C 67.03125 43.847656 64.515625 43.847656 64.515625 43.847656 C 64.515625 43.847656 64.515625 47.03125 64.515625 47.03125 Z M 64.515625 47.03125 "/>
<path style=" stroke:none;fill-rule:nonzero;fill:rgb(100%,100%,100%);fill-opacity:1;" d="M 62 50.21875 C 62 50.21875 64.515625 50.21875 64.515625 50.21875 C 64.515625 50.21875 64.515625 47.035156 64.515625 47.035156 C 64.515625 47.035156 62 47.035156 62 47.035156 C 62 47.035156 62 50.21875 62 50.21875 Z M 62 50.21875 "/>
<path style=" stroke:none;fill-rule:nonzero;fill:rgb(0%,0%,0%);fill-opacity:1;" d="M 42.382812 38.75 C 42.382812 38.75 11.039062 38.75 11.039062 38.75 C 11.039062 38.75 11.039062 43.847656 11.039062 43.847656 C 11.039062 43.847656 42.382812 43.847656 42.382812 43.847656 C 42.382812 43.847656 42.382812 38.75 42.382812 38.75 Z M 42.382812 38.75 "/>
<path style=" stroke:none;fill-rule:nonzero;fill:rgb(0%,0%,0%);fill-opacity:1;" d="M 39.710938 42.570312 C 39.710938 42.570312 12.988281 42.570312 12.988281 42.570312 C 12.988281 42.570312 12.988281 47.667969 12.988281 47.667969 C 12.988281 47.667969 39.710938 47.667969 39.710938 47.667969 C 39.710938 47.667969 39.710938 42.570312 39.710938 42.570312 Z M 39.710938 42.570312 "/>
<path style=" stroke:none;fill-rule:nonzero;fill:rgb(0%,0%,0%);fill-opacity:1;" d="M 37.039062 46.394531 C 37.039062 46.394531 14.9375 46.394531 14.9375 46.394531 C 14.9375 46.394531 14.9375 51.492188 14.9375 51.492188 C 14.9375 51.492188 37.039062 51.492188 37.039062 51.492188 C 37.039062 51.492188 37.039062 46.394531 37.039062 46.394531 Z M 37.039062 46.394531 "/>
<path style=" stroke:none;fill-rule:nonzero;fill:rgb(0%,0%,0%);fill-opacity:1;" d="M 34.367188 50.21875 C 34.367188 50.21875 16.886719 50.21875 16.886719 50.21875 C 16.886719 50.21875 16.886719 55.316406 16.886719 55.316406 C 16.886719 55.316406 34.367188 55.316406 34.367188 55.316406 C 34.367188 55.316406 34.367188 50.21875 34.367188 50.21875 Z M 34.367188 50.21875 "/>
<path style=" stroke:none;fill-rule:nonzero;fill:rgb(100%,100%,100%);fill-opacity:1;" d="M 36.347656 43.84375 C 36.347656 43.84375 38.863281 43.84375 38.863281 43.84375 C 38.863281 43.84375 38.863281 40.660156 38.863281 40.660156 C 38.863281 40.660156 36.347656 40.660156 36.347656 40.660156 C 36.347656 40.660156 36.347656 43.84375 36.347656 43.84375 Z M 36.347656 43.84375 "/>
<path style=" stroke:none;fill-rule:nonzero;fill:rgb(100%,100%,100%);fill-opacity:1;" d="M 33.832031 47.03125 C 33.832031 47.03125 35.832031 47.683594 36.347656 47.03125 C 37.007812 46.191406 36.347656 43.847656 36.347656 43.847656 C 36.347656 43.847656 33.832031 43.847656 33.832031 43.847656 C 33.832031 43.847656 33.832031 47.03125 33.832031 47.03125 Z M 33.832031 47.03125 "/>
<path style=" stroke:none;fill-rule:nonzero;fill:rgb(100%,100%,100%);fill-opacity:1;" d="M 31.316406 50.21875 C 31.316406 50.21875 33.832031 50.21875 33.832031 50.21875 C 33.832031 50.21875 33.832031 47.035156 33.832031 47.035156 C 33.832031 47.035156 31.316406 47.035156 31.316406 47.035156 C 31.316406 47.035156 31.316406 50.21875 31.316406 50.21875 Z M 31.316406 50.21875 "/>
<path style=" stroke:none;fill-rule:nonzero;fill:rgb(100%,100%,100%);fill-opacity:1;" d="M 31.316406 43.84375 C 31.316406 43.84375 33.832031 43.84375 33.832031 43.84375 C 33.832031 43.84375 33.832031 40.660156 33.832031 40.660156 C 33.832031 40.660156 31.316406 40.660156 31.316406 40.660156 C 31.316406 40.660156 31.316406 43.84375 31.316406 43.84375 Z M 31.316406 43.84375 "/>
<path style=" stroke:none;fill-rule:nonzero;fill:rgb(100%,100%,100%);fill-opacity:1;" d="M 28.800781 47.03125 C 28.800781 47.03125 31.316406 47.03125 31.316406 47.03125 C 31.316406 47.03125 31.316406 43.847656 31.316406 43.847656 C 31.316406 43.847656 28.800781 43.847656 28.800781 43.847656 C 28.800781 43.847656 28.800781 47.03125 28.800781 47.03125 Z M 28.800781 47.03125 "/>
<path style=" stroke:none;fill-rule:nonzero;fill:rgb(100%,100%,100%);fill-opacity:1;" d="M 26.285156 50.21875 C 26.285156 50.21875 28.800781 50.21875 28.800781 50.21875 C 28.800781 50.21875 28.800781 47.035156 28.800781 47.035156 C 28.800781 47.035156 26.285156 47.035156 26.285156 47.035156 C 26.285156 47.035156 26.285156 50.21875 26.285156 50.21875 Z M 26.285156 50.21875 "/>
<path style=" stroke:none;fill-rule:nonzero;fill:rgb(100%,100%,100%);fill-opacity:1;" d="M 31.828125 60.40625 C 33.648438 67.277344 40.007812 72.351562 47.578125 72.351562 C 55.144531 72.351562 61.507812 67.277344 63.328125 60.40625 C 63.328125 60.40625 31.828125 60.40625 31.828125 60.40625 Z M 31.828125 60.40625 "/>
<path style=" stroke:none;fill-rule:nonzero;fill:rgb(100%,100%,100%);fill-opacity:1;" d="M 15.59375 40.046875 C 15.359375 37.066406 16.136719 35.652344 19.445312 33.484375 C 19.542969 33.414062 19.632812 33.324219 19.648438 33.207031 C 19.683594 33.085938 19.679688 32.972656 19.625 32.851562 C 19.566406 32.730469 19.476562 32.640625 19.375 32.601562 C 19.265625 32.539062 19.125 32.527344 19.019531 32.554688 C 15.183594 33.414062 13.597656 32.980469 11.496094 30.742188 C 11.429688 30.671875 11.324219 30.605469 11.203125 30.59375 C 11.085938 30.578125 10.972656 30.582031 10.871094 30.632812 C 10.769531 30.679688 10.671875 30.75 10.628906 30.847656 C 10.558594 30.933594 10.546875 31.050781 10.550781 31.164062 C 10.746094 34.175781 9.992188 35.585938 6.808594 37.699219 C 6.710938 37.769531 6.621094 37.859375 6.582031 37.980469 C 6.546875 38.101562 6.558594 38.234375 6.609375 38.335938 C 6.664062 38.457031 6.753906 38.542969 6.855469 38.585938 C 6.964844 38.648438 7.105469 38.660156 7.214844 38.632812 C 10.964844 37.792969 12.527344 38.253906 14.597656 40.457031 C 14.664062 40.527344 14.773438 40.59375 14.867188 40.613281 C 14.988281 40.628906 15.101562 40.621094 15.203125 40.574219 C 15.304688 40.523438 15.402344 40.457031 15.445312 40.355469 C 15.558594 40.261719 15.597656 40.160156 15.59375 40.046875 Z M 15.59375 40.046875 "/>
<path style=" stroke:none;fill-rule:nonzero;fill:rgb(100%,100%,100%);fill-opacity:1;" d="M 4.230469 32.402344 C 5.507812 30.972656 6.503906 30.6875 8.980469 31.195312 C 9.054688 31.207031 9.136719 31.207031 9.199219 31.160156 C 9.269531 31.121094 9.320312 31.070312 9.351562 30.992188 C 9.382812 30.914062 9.382812 30.832031 9.355469 30.769531 C 9.335938 30.691406 9.277344 30.625 9.21875 30.589844 C 7.113281 29.265625 6.605469 28.367188 6.707031 26.433594 C 6.710938 26.371094 6.691406 26.292969 6.644531 26.234375 C 6.597656 26.175781 6.546875 26.128906 6.476562 26.105469 C 6.410156 26.082031 6.335938 26.070312 6.269531 26.09375 C 6.199219 26.101562 6.140625 26.148438 6.089844 26.199219 C 4.785156 27.628906 3.800781 27.917969 1.402344 27.441406 C 1.328125 27.429688 1.246094 27.429688 1.175781 27.46875 C 1.101562 27.507812 1.046875 27.570312 1.019531 27.636719 C 0.988281 27.714844 0.988281 27.796875 1.015625 27.859375 C 1.035156 27.9375 1.09375 28.003906 1.15625 28.039062 C 3.214844 29.335938 3.699219 30.238281 3.601562 32.140625 C 3.597656 32.203125 3.617188 32.28125 3.652344 32.332031 C 3.699219 32.390625 3.75 32.441406 3.816406 32.464844 C 3.886719 32.488281 3.960938 32.5 4.027344 32.472656 C 4.121094 32.480469 4.183594 32.457031 4.234375 32.402344 C 4.234375 32.402344 4.230469 32.402344 4.230469 32.402344 Z M 4.230469 32.402344 "/>
</g>
</svg>
