<?xml version="1.0" encoding="UTF-8"?>
<svg xmlns="http://www.w3.org/2000/svg" xmlns:xlink="http://www.w3.org/1999/xlink" width="80px" height="80px" viewBox="0 0 80 80" version="1.1">
<g id="surface1">
<path style=" stroke:none;fill-rule:nonzero;fill:rgb(100%,60%,0%);fill-opacity:1;" d="M 56.332031 10.960938 C 56.332031 10.960938 40.023438 36.292969 40.023438 36.292969 C 40.023438 36.292969 4.714844 11.050781 4.714844 11.050781 C 4.714844 11.050781 4.714844 100.410156 4.714844 100.410156 C 4.714844 100.410156 80.480469 101.621094 80.480469 101.621094 C 80.480469 101.621094 56.332031 10.960938 56.332031 10.960938 Z M 56.332031 10.960938 "/>
<path style=" stroke:none;fill-rule:nonzero;fill:rgb(100%,60%,0%);fill-opacity:1;" d="M 56.332031 20.695312 C 56.332031 20.695312 40.023438 46.023438 40.023438 46.023438 C 40.023438 46.023438 4.714844 20.785156 4.714844 20.785156 C 4.714844 20.785156 4.714844 90.8125 4.714844 90.8125 C 4.714844 90.8125 75.324219 90.8125 75.324219 90.8125 C 75.324219 90.8125 56.332031 20.695312 56.332031 20.695312 Z M 56.332031 20.695312 "/>
<path style=" stroke:none;fill-rule:nonzero;fill:rgb(0%,0%,0%);fill-opacity:1;" d="M 47.84375 45.929688 C 47.84375 45.929688 74.992188 45.929688 74.992188 45.929688 C 74.992188 45.929688 74.992188 41.0625 74.992188 41.0625 C 74.992188 41.0625 47.84375 41.0625 47.84375 41.0625 C 47.84375 41.0625 47.84375 45.929688 47.84375 45.929688 Z M 47.84375 45.929688 "/>
<path style=" stroke:none;fill-rule:nonzero;fill:rgb(0%,0%,0%);fill-opacity:1;" d="M 72.679688 44.710938 C 72.679688 44.710938 49.53125 44.710938 49.53125 44.710938 C 49.53125 44.710938 49.53125 49.578125 49.53125 49.578125 C 49.53125 49.578125 72.679688 49.578125 72.679688 49.578125 C 72.679688 49.578125 72.679688 44.710938 72.679688 44.710938 Z M 72.679688 44.710938 "/>
<path style=" stroke:none;fill-rule:nonzero;fill:rgb(0%,0%,0%);fill-opacity:1;" d="M 70.363281 48.359375 C 70.363281 48.359375 51.21875 48.359375 51.21875 48.359375 C 51.21875 48.359375 51.21875 53.226562 51.21875 53.226562 C 51.21875 53.226562 70.363281 53.226562 70.363281 53.226562 C 70.363281 53.226562 70.363281 48.359375 70.363281 48.359375 Z M 70.363281 48.359375 "/>
<path style=" stroke:none;fill-rule:nonzero;fill:rgb(0%,0%,0%);fill-opacity:1;" d="M 68.050781 52.011719 C 68.050781 52.011719 52.910156 52.011719 52.910156 52.011719 C 52.910156 52.011719 52.910156 56.875 52.910156 56.875 C 52.910156 56.875 68.050781 56.875 68.050781 56.875 C 68.050781 56.875 68.050781 52.011719 68.050781 52.011719 Z M 68.050781 52.011719 "/>
<path style=" stroke:none;fill-rule:nonzero;fill:rgb(0%,0%,0%);fill-opacity:1;" d="M 30.113281 45.929688 C 30.113281 45.929688 71.941406 45.929688 71.941406 45.929688 C 71.941406 45.929688 71.941406 41.0625 71.941406 41.0625 C 71.941406 41.0625 30.113281 41.0625 30.113281 41.0625 C 30.113281 41.0625 30.113281 45.929688 30.113281 45.929688 Z M 30.113281 45.929688 "/>
<path style=" stroke:none;fill-rule:nonzero;fill:rgb(100%,100%,100%);fill-opacity:1;" d="M 69.761719 45.925781 C 69.761719 45.925781 71.941406 45.925781 71.941406 45.925781 C 71.941406 45.925781 71.941406 42.886719 71.941406 42.886719 C 71.941406 42.886719 69.761719 42.886719 69.761719 42.886719 C 69.761719 42.886719 69.761719 45.925781 69.761719 45.925781 Z M 69.761719 45.925781 "/>
<path style=" stroke:none;fill-rule:nonzero;fill:rgb(100%,100%,100%);fill-opacity:1;" d="M 67.585938 48.96875 C 67.585938 48.96875 69.765625 48.96875 69.765625 48.96875 C 69.765625 48.96875 69.765625 45.929688 69.765625 45.929688 C 69.765625 45.929688 67.585938 45.929688 67.585938 45.929688 C 67.585938 45.929688 67.585938 48.96875 67.585938 48.96875 Z M 67.585938 48.96875 "/>
<path style=" stroke:none;fill-rule:nonzero;fill:rgb(100%,100%,100%);fill-opacity:1;" d="M 65.40625 52.011719 C 65.40625 52.011719 67.585938 52.011719 67.585938 52.011719 C 67.585938 52.011719 67.585938 48.96875 67.585938 48.96875 C 67.585938 48.96875 65.40625 48.96875 65.40625 48.96875 C 65.40625 48.96875 65.40625 52.011719 65.40625 52.011719 Z M 65.40625 52.011719 "/>
<path style=" stroke:none;fill-rule:nonzero;fill:rgb(100%,100%,100%);fill-opacity:1;" d="M 65.40625 45.925781 C 65.40625 45.925781 67.585938 45.925781 67.585938 45.925781 C 67.585938 45.925781 67.585938 42.886719 67.585938 42.886719 C 67.585938 42.886719 65.40625 42.886719 65.40625 42.886719 C 65.40625 42.886719 65.40625 45.925781 65.40625 45.925781 Z M 65.40625 45.925781 "/>
<path style=" stroke:none;fill-rule:nonzero;fill:rgb(100%,100%,100%);fill-opacity:1;" d="M 63.226562 48.96875 C 63.226562 48.96875 65.40625 48.96875 65.40625 48.96875 C 65.40625 48.96875 65.40625 45.929688 65.40625 45.929688 C 65.40625 45.929688 63.226562 45.929688 63.226562 45.929688 C 63.226562 45.929688 63.226562 48.96875 63.226562 48.96875 Z M 63.226562 48.96875 "/>
<path style=" stroke:none;fill-rule:nonzero;fill:rgb(100%,100%,100%);fill-opacity:1;" d="M 61.050781 52.011719 C 61.050781 52.011719 63.230469 52.011719 63.230469 52.011719 C 63.230469 52.011719 63.230469 48.96875 63.230469 48.96875 C 63.230469 48.96875 61.050781 48.96875 61.050781 48.96875 C 61.050781 48.96875 61.050781 52.011719 61.050781 52.011719 Z M 61.050781 52.011719 "/>
<path style=" stroke:none;fill-rule:nonzero;fill:rgb(0%,0%,0%);fill-opacity:1;" d="M 44.054688 41.0625 C 44.054688 41.0625 16.90625 41.0625 16.90625 41.0625 C 16.90625 41.0625 16.90625 45.929688 16.90625 45.929688 C 16.90625 45.929688 44.054688 45.929688 44.054688 45.929688 C 44.054688 45.929688 44.054688 41.0625 44.054688 41.0625 Z M 44.054688 41.0625 "/>
<path style=" stroke:none;fill-rule:nonzero;fill:rgb(0%,0%,0%);fill-opacity:1;" d="M 41.742188 44.710938 C 41.742188 44.710938 18.597656 44.710938 18.597656 44.710938 C 18.597656 44.710938 18.597656 49.578125 18.597656 49.578125 C 18.597656 49.578125 41.742188 49.578125 41.742188 49.578125 C 41.742188 49.578125 41.742188 44.710938 41.742188 44.710938 Z M 41.742188 44.710938 "/>
<path style=" stroke:none;fill-rule:nonzero;fill:rgb(0%,0%,0%);fill-opacity:1;" d="M 39.429688 48.359375 C 39.429688 48.359375 20.285156 48.359375 20.285156 48.359375 C 20.285156 48.359375 20.285156 53.226562 20.285156 53.226562 C 20.285156 53.226562 39.429688 53.226562 39.429688 53.226562 C 39.429688 53.226562 39.429688 48.359375 39.429688 48.359375 Z M 39.429688 48.359375 "/>
<path style=" stroke:none;fill-rule:nonzero;fill:rgb(0%,0%,0%);fill-opacity:1;" d="M 37.113281 52.011719 C 37.113281 52.011719 21.972656 52.011719 21.972656 52.011719 C 21.972656 52.011719 21.972656 56.875 21.972656 56.875 C 21.972656 56.875 37.113281 56.875 37.113281 56.875 C 37.113281 56.875 37.113281 52.011719 37.113281 52.011719 Z M 37.113281 52.011719 "/>
<path style=" stroke:none;fill-rule:nonzero;fill:rgb(100%,100%,100%);fill-opacity:1;" d="M 38.828125 45.925781 C 38.828125 45.925781 41.007812 45.925781 41.007812 45.925781 C 41.007812 45.925781 41.007812 42.886719 41.007812 42.886719 C 41.007812 42.886719 38.828125 42.886719 38.828125 42.886719 C 38.828125 42.886719 38.828125 45.925781 38.828125 45.925781 Z M 38.828125 45.925781 "/>
<path style=" stroke:none;fill-rule:nonzero;fill:rgb(100%,100%,100%);fill-opacity:1;" d="M 36.648438 48.96875 C 36.648438 48.96875 38.828125 48.96875 38.828125 48.96875 C 38.828125 48.96875 38.828125 45.929688 38.828125 45.929688 C 38.828125 45.929688 36.648438 45.929688 36.648438 45.929688 C 36.648438 45.929688 36.648438 48.96875 36.648438 48.96875 Z M 36.648438 48.96875 "/>
<path style=" stroke:none;fill-rule:nonzero;fill:rgb(100%,100%,100%);fill-opacity:1;" d="M 34.472656 52.011719 C 34.472656 52.011719 36.652344 52.011719 36.652344 52.011719 C 36.652344 52.011719 36.652344 48.96875 36.652344 48.96875 C 36.652344 48.96875 34.472656 48.96875 34.472656 48.96875 C 34.472656 48.96875 34.472656 52.011719 34.472656 52.011719 Z M 34.472656 52.011719 "/>
<path style=" stroke:none;fill-rule:nonzero;fill:rgb(100%,100%,100%);fill-opacity:1;" d="M 34.472656 45.925781 C 34.472656 45.925781 36.652344 45.925781 36.652344 45.925781 C 36.652344 45.925781 36.652344 42.886719 36.652344 42.886719 C 36.652344 42.886719 34.472656 42.886719 34.472656 42.886719 C 34.472656 42.886719 34.472656 45.925781 34.472656 45.925781 Z M 34.472656 45.925781 "/>
<path style=" stroke:none;fill-rule:nonzero;fill:rgb(100%,100%,100%);fill-opacity:1;" d="M 32.292969 48.96875 C 32.292969 48.96875 34.472656 48.96875 34.472656 48.96875 C 34.472656 48.96875 34.472656 45.929688 34.472656 45.929688 C 34.472656 45.929688 32.292969 45.929688 32.292969 45.929688 C 32.292969 45.929688 32.292969 48.96875 32.292969 48.96875 Z M 32.292969 48.96875 "/>
<path style=" stroke:none;fill-rule:nonzero;fill:rgb(100%,100%,100%);fill-opacity:1;" d="M 30.113281 52.011719 C 30.113281 52.011719 32.292969 52.011719 32.292969 52.011719 C 32.292969 52.011719 32.292969 48.96875 32.292969 48.96875 C 32.292969 48.96875 30.113281 48.96875 30.113281 48.96875 C 30.113281 48.96875 30.113281 52.011719 30.113281 52.011719 Z M 30.113281 52.011719 "/>
<path style=" stroke:none;fill-rule:nonzero;fill:rgb(100%,100%,100%);fill-opacity:1;" d="M 32.769531 62.867188 C 34.386719 69.257812 40.042969 73.980469 46.769531 73.980469 C 53.496094 73.980469 59.152344 69.261719 60.769531 62.867188 C 60.769531 62.867188 32.769531 62.867188 32.769531 62.867188 Z M 32.769531 62.867188 "/>
<path style=" stroke:none;fill-rule:nonzero;fill:rgb(100%,100%,100%);fill-opacity:1;" d="M 14.238281 42.921875 C 15.988281 41.699219 17.125 41.671875 19.601562 42.941406 C 19.675781 42.976562 19.761719 43 19.839844 42.964844 C 19.929688 42.945312 19.992188 42.902344 20.050781 42.824219 C 20.105469 42.746094 20.128906 42.65625 20.117188 42.578125 C 20.117188 42.488281 20.078125 42.398438 20.023438 42.339844 C 18.171875 40.273438 17.890625 39.132812 18.542969 37.023438 C 18.566406 36.957031 18.566406 36.863281 18.535156 36.785156 C 18.503906 36.707031 18.460938 36.636719 18.394531 36.59375 C 18.328125 36.546875 18.253906 36.511719 18.179688 36.523438 C 18.101562 36.511719 18.023438 36.542969 17.957031 36.585938 C 16.171875 37.796875 15.046875 37.835938 12.652344 36.625 C 12.574219 36.589844 12.488281 36.566406 12.398438 36.585938 C 12.3125 36.609375 12.234375 36.664062 12.191406 36.730469 C 12.136719 36.808594 12.113281 36.898438 12.121094 36.976562 C 12.121094 37.066406 12.164062 37.15625 12.21875 37.214844 C 14.027344 39.238281 14.28125 40.375 13.644531 42.453125 C 13.621094 42.519531 13.621094 42.609375 13.640625 42.675781 C 13.671875 42.753906 13.714844 42.824219 13.78125 42.871094 C 13.84375 42.914062 13.917969 42.949219 13.996094 42.941406 C 14.09375 42.976562 14.171875 42.964844 14.238281 42.921875 Z M 14.238281 42.921875 "/>
<path style=" stroke:none;fill-rule:nonzero;fill:rgb(100%,100%,100%);fill-opacity:1;" d="M 8.753906 34.128906 C 8.984375 34.105469 9.09375 34.164062 9.265625 34.417969 C 9.269531 34.421875 9.277344 34.429688 9.285156 34.429688 C 9.296875 34.433594 9.304688 34.433594 9.3125 34.429688 C 9.324219 34.425781 9.328125 34.417969 9.332031 34.410156 C 9.335938 34.402344 9.335938 34.390625 9.335938 34.382812 C 9.261719 34.085938 9.292969 33.964844 9.460938 33.796875 C 9.46875 33.792969 9.472656 33.78125 9.472656 33.773438 C 9.472656 33.765625 9.472656 33.753906 9.46875 33.75 C 9.464844 33.742188 9.460938 33.734375 9.453125 33.730469 C 9.445312 33.726562 9.4375 33.722656 9.429688 33.722656 C 9.195312 33.746094 9.089844 33.6875 8.921875 33.445312 C 8.914062 33.4375 8.90625 33.433594 8.898438 33.429688 C 8.890625 33.425781 8.878906 33.429688 8.871094 33.433594 C 8.863281 33.4375 8.855469 33.445312 8.851562 33.453125 C 8.847656 33.460938 8.847656 33.472656 8.851562 33.480469 C 8.921875 33.769531 8.886719 33.890625 8.722656 34.054688 C 8.714844 34.058594 8.710938 34.066406 8.710938 34.074219 C 8.710938 34.085938 8.710938 34.09375 8.714844 34.101562 C 8.71875 34.109375 8.722656 34.117188 8.730469 34.117188 C 8.738281 34.128906 8.746094 34.128906 8.753906 34.128906 Z M 8.753906 34.128906 "/>
<path style=" stroke:none;fill-rule:nonzero;fill:rgb(67.45098%,86.666667%,74.117647%);fill-opacity:1;" d="M 45.714844 69.878906 C 45.714844 69.878906 50.605469 80.046875 50.605469 80.046875 C 50.605469 80.046875 73.707031 68.9375 73.707031 68.9375 C 73.707031 68.9375 68.816406 58.769531 68.816406 58.769531 C 68.816406 58.769531 45.714844 69.878906 45.714844 69.878906 Z M 45.714844 69.878906 "/>
<path style=" stroke:none;fill-rule:nonzero;fill:rgb(51.764706%,78.431373%,61.176471%);fill-opacity:1;" d="M 58.859375 70.359375 C 58.859375 70.359375 59.105469 70.894531 59.105469 70.894531 C 59.105469 70.894531 61.496094 69.761719 61.496094 69.761719 C 61.496094 69.761719 61.867188 70.582031 61.867188 70.582031 C 61.867188 70.582031 59.480469 71.710938 59.480469 71.710938 C 59.480469 71.710938 59.847656 72.515625 59.847656 72.515625 C 59.847656 72.515625 58.257812 73.269531 58.257812 73.269531 C 58.257812 73.269531 57.886719 72.46875 57.886719 72.46875 C 57.886719 72.46875 57.355469 72.722656 57.355469 72.722656 C 57.355469 72.722656 56.980469 71.902344 56.980469 71.902344 C 56.980469 71.902344 57.515625 71.652344 57.515625 71.652344 C 57.515625 71.652344 57.269531 71.113281 57.269531 71.113281 C 57.269531 71.113281 56.734375 71.367188 56.734375 71.367188 C 56.734375 71.367188 56.359375 70.550781 56.359375 70.550781 C 56.359375 70.550781 56.894531 70.296875 56.894531 70.296875 C 56.894531 70.296875 55.867188 68.066406 55.867188 68.066406 C 55.867188 68.066406 59.164062 66.507812 59.164062 66.507812 C 59.902344 66.15625 60.523438 66.042969 61.03125 66.148438 C 61.542969 66.253906 61.90625 66.542969 62.128906 67.023438 C 62.578125 68.003906 62.054688 68.847656 60.5625 69.554688 C 60.5625 69.554688 58.859375 70.363281 58.859375 70.363281 C 58.859375 70.363281 58.859375 70.359375 58.859375 70.359375 Z M 58.023438 68.535156 C 58.023438 68.535156 58.480469 69.539062 58.480469 69.539062 C 58.480469 69.539062 60.035156 68.804688 60.035156 68.804688 C 60.285156 68.683594 60.441406 68.554688 60.523438 68.410156 C 60.601562 68.261719 60.601562 68.109375 60.53125 67.953125 C 60.460938 67.800781 60.34375 67.707031 60.1875 67.671875 C 60.027344 67.640625 59.824219 67.679688 59.578125 67.796875 C 59.578125 67.796875 58.023438 68.535156 58.023438 68.535156 Z M 58.023438 68.535156 "/>
<path style=" stroke:none;fill-rule:nonzero;fill:rgb(67.45098%,86.666667%,74.117647%);fill-opacity:1;" d="M 3.347656 61.101562 C 3.347656 61.101562 15.601562 83.617188 15.601562 83.617188 C 15.601562 83.617188 27.753906 86.625 27.753906 86.625 C 27.753906 86.625 15.496094 64.113281 15.496094 64.113281 C 15.496094 64.113281 3.347656 61.101562 3.347656 61.101562 Z M 15.496094 64.109375 C 15.496094 64.109375 15.496094 64.113281 15.496094 64.113281 C 15.496094 64.113281 15.5 64.113281 15.5 64.113281 C 15.5 64.113281 15.496094 64.109375 15.496094 64.109375 Z M 15.496094 64.109375 "/>
<path style=" stroke:none;fill-rule:nonzero;fill:rgb(51.764706%,78.431373%,61.176471%);fill-opacity:1;" d="M 14.949219 73.03125 C 14.949219 73.03125 14.496094 73.242188 14.496094 73.242188 C 14.496094 73.242188 15.757812 75.953125 15.757812 75.953125 C 15.757812 75.953125 15.066406 76.273438 15.066406 76.273438 C 15.066406 76.273438 13.804688 73.5625 13.804688 73.5625 C 13.804688 73.5625 13.128906 73.875 13.128906 73.875 C 13.128906 73.875 12.292969 72.070312 12.292969 72.070312 C 12.292969 72.070312 12.96875 71.757812 12.96875 71.757812 C 12.96875 71.757812 12.691406 71.15625 12.691406 71.15625 C 12.691406 71.15625 13.382812 70.835938 13.382812 70.835938 C 13.382812 70.835938 13.660156 71.4375 13.660156 71.4375 C 13.660156 71.4375 14.113281 71.226562 14.113281 71.226562 C 14.113281 71.226562 13.832031 70.625 13.832031 70.625 C 13.832031 70.625 14.527344 70.300781 14.527344 70.300781 C 14.527344 70.300781 14.804688 70.90625 14.804688 70.90625 C 14.804688 70.90625 16.6875 70.03125 16.6875 70.03125 C 16.6875 70.03125 18.417969 73.765625 18.417969 73.765625 C 18.808594 74.601562 18.980469 75.289062 18.933594 75.828125 C 18.894531 76.371094 18.675781 76.734375 18.269531 76.921875 C 17.441406 77.308594 16.632812 76.652344 15.847656 74.957031 C 15.847656 74.957031 14.953125 73.027344 14.953125 73.027344 C 14.953125 73.027344 14.949219 73.03125 14.949219 73.03125 Z M 16.488281 72.320312 C 16.488281 72.320312 15.636719 72.710938 15.636719 72.710938 C 15.636719 72.710938 16.457031 74.472656 16.457031 74.472656 C 16.585938 74.753906 16.71875 74.941406 16.859375 75.042969 C 16.996094 75.140625 17.132812 75.160156 17.265625 75.101562 C 17.394531 75.039062 17.464844 74.925781 17.476562 74.757812 C 17.488281 74.585938 17.433594 74.363281 17.304688 74.082031 C 17.304688 74.082031 16.484375 72.320312 16.484375 72.320312 C 16.484375 72.320312 16.488281 72.320312 16.488281 72.320312 Z M 16.488281 72.320312 "/>
<path style=" stroke:none;fill-rule:nonzero;fill:rgb(67.45098%,86.666667%,74.117647%);fill-opacity:1;" d="M 39.0625 24.019531 C 39.0625 24.019531 16.769531 36.671875 16.769531 36.671875 C 16.769531 36.671875 22.335938 46.484375 22.335938 46.484375 C 22.335938 46.484375 44.632812 33.835938 44.632812 33.835938 C 44.632812 33.835938 39.0625 24.019531 39.0625 24.019531 Z M 39.0625 24.019531 "/>
<path style=" stroke:none;fill-rule:nonzero;fill:rgb(51.764706%,78.431373%,61.176471%);fill-opacity:1;" d="M 29.535156 35.632812 C 29.535156 35.632812 29.753906 36.003906 29.753906 36.003906 C 29.753906 36.003906 31.421875 35.042969 31.421875 35.042969 C 31.421875 35.042969 31.746094 35.609375 31.746094 35.609375 C 31.746094 35.609375 30.078125 36.574219 30.078125 36.574219 C 30.078125 36.574219 30.402344 37.132812 30.402344 37.132812 C 30.402344 37.132812 29.289062 37.773438 29.289062 37.773438 C 29.289062 37.773438 28.964844 37.21875 28.964844 37.21875 C 28.964844 37.21875 28.59375 37.433594 28.59375 37.433594 C 28.59375 37.433594 28.265625 36.863281 28.265625 36.863281 C 28.265625 36.863281 28.640625 36.648438 28.640625 36.648438 C 28.640625 36.648438 28.425781 36.277344 28.425781 36.277344 C 28.425781 36.277344 28.050781 36.492188 28.050781 36.492188 C 28.050781 36.492188 27.722656 35.921875 27.722656 35.921875 C 27.722656 35.921875 28.097656 35.707031 28.097656 35.707031 C 28.097656 35.707031 27.203125 34.15625 27.203125 34.15625 C 27.203125 34.15625 29.503906 32.828125 29.503906 32.828125 C 30.023438 32.527344 30.46875 32.402344 30.847656 32.453125 C 31.226562 32.5 31.511719 32.6875 31.703125 33.019531 C 32.09375 33.703125 31.769531 34.347656 30.726562 34.949219 C 30.726562 34.949219 29.535156 35.636719 29.535156 35.636719 C 29.535156 35.636719 29.535156 35.632812 29.535156 35.632812 Z M 28.804688 34.363281 C 28.804688 34.363281 29.207031 35.0625 29.207031 35.0625 C 29.207031 35.0625 30.292969 34.433594 30.292969 34.433594 C 30.46875 34.335938 30.574219 34.230469 30.621094 34.121094 C 30.671875 34.011719 30.660156 33.898438 30.597656 33.792969 C 30.539062 33.683594 30.445312 33.625 30.328125 33.609375 C 30.210938 33.59375 30.066406 33.636719 29.890625 33.738281 C 29.890625 33.738281 28.804688 34.363281 28.804688 34.363281 Z M 28.804688 34.363281 "/>
<path style=" stroke:none;fill-rule:nonzero;fill:rgb(67.45098%,86.666667%,74.117647%);fill-opacity:1;" d="M 3.257812 5.292969 C 3.257812 5.292969 3.296875 5.472656 3.296875 5.472656 C 3.296875 5.472656 13.855469 10.179688 13.855469 10.179688 C 13.855469 10.179688 21.605469 -11.988281 21.605469 -11.988281 C 21.605469 -11.988281 10.957031 -16.734375 10.957031 -16.734375 C 10.957031 -16.734375 3.257812 5.292969 3.257812 5.292969 Z M 3.257812 5.292969 "/>
<path style=" stroke:none;fill-rule:nonzero;fill:rgb(67.45098%,86.666667%,74.117647%);fill-opacity:1;" d="M 45.125 9.222656 C 45.125 9.222656 69.332031 17.660156 69.332031 17.660156 C 69.332031 17.660156 80.351562 11.726562 80.351562 11.726562 C 80.351562 11.726562 56.144531 3.285156 56.144531 3.285156 C 56.144531 3.285156 45.125 9.222656 45.125 9.222656 Z M 56.144531 3.285156 Z M 56.144531 3.285156 "/>
<path style=" stroke:none;fill-rule:nonzero;fill:rgb(51.764706%,78.431373%,61.176471%);fill-opacity:1;" d="M 61.734375 10.261719 C 61.734375 10.261719 61.539062 10.722656 61.539062 10.722656 C 61.539062 10.722656 64.292969 11.882812 64.292969 11.882812 C 64.292969 11.882812 63.996094 12.585938 63.996094 12.585938 C 63.996094 12.585938 61.242188 11.421875 61.242188 11.421875 C 61.242188 11.421875 60.953125 12.109375 60.953125 12.109375 C 60.953125 12.109375 59.121094 11.335938 59.121094 11.335938 C 59.121094 11.335938 59.410156 10.648438 59.410156 10.648438 C 59.410156 10.648438 58.796875 10.390625 58.796875 10.390625 C 58.796875 10.390625 59.09375 9.6875 59.09375 9.6875 C 59.09375 9.6875 59.707031 9.945312 59.707031 9.945312 C 59.707031 9.945312 59.902344 9.484375 59.902344 9.484375 C 59.902344 9.484375 59.289062 9.226562 59.289062 9.226562 C 59.289062 9.226562 59.585938 8.523438 59.585938 8.523438 C 59.585938 8.523438 60.199219 8.785156 60.199219 8.785156 C 60.199219 8.785156 61.003906 6.871094 61.003906 6.871094 C 61.003906 6.871094 64.796875 8.472656 64.796875 8.472656 C 65.648438 8.832031 66.234375 9.226562 66.566406 9.65625 C 66.898438 10.082031 66.980469 10.5 66.808594 10.914062 C 66.453125 11.753906 65.410156 11.8125 63.691406 11.085938 C 63.691406 11.085938 61.734375 10.257812 61.734375 10.257812 C 61.734375 10.257812 61.734375 10.261719 61.734375 10.261719 Z M 62.390625 8.699219 C 62.390625 8.699219 62.027344 9.5625 62.027344 9.5625 C 62.027344 9.5625 63.816406 10.316406 63.816406 10.316406 C 64.101562 10.4375 64.328125 10.488281 64.496094 10.464844 C 64.667969 10.445312 64.78125 10.371094 64.839844 10.234375 C 64.894531 10.105469 64.867188 9.972656 64.765625 9.839844 C 64.660156 9.707031 64.464844 9.578125 64.183594 9.457031 C 64.183594 9.457031 62.394531 8.703125 62.394531 8.703125 C 62.394531 8.703125 62.390625 8.699219 62.390625 8.699219 Z M 62.390625 8.699219 "/>
</g>
</svg>
