<?xml version="1.0" encoding="UTF-8"?>
<svg xmlns="http://www.w3.org/2000/svg" xmlns:xlink="http://www.w3.org/1999/xlink" width="80px" height="80px" viewBox="0 0 80 80" version="1.1">
<g id="surface1">
<path style="fill:none;stroke-width:11;stroke-linecap:butt;stroke-linejoin:miter;stroke:rgb(75.294118%,61.960784%,100%);stroke-opacity:1;stroke-miterlimit:10;" d="M -41.241036 -75.740651 C -41.241036 -75.740651 41.233278 75.726331 41.233278 75.726331 " transform="matrix(0.156219,0.00310303,-0.00310303,0.156219,28.906834,66.534334)"/>
<path style=" stroke:none;fill-rule:nonzero;fill:rgb(53.72549%,31.372549%,90.196078%);fill-opacity:1;" d="M 0.578125 50.769531 C 0.578125 50.769531 7.875 64.832031 7.875 64.832031 C 7.875 64.832031 41.355469 47.460938 41.355469 47.460938 C 41.355469 47.460938 34.058594 33.398438 34.058594 33.398438 C 34.058594 33.398438 0.578125 50.769531 0.578125 50.769531 Z M 0.578125 50.769531 "/>
<path style=" stroke:none;fill-rule:nonzero;fill:rgb(100%,100%,100%);fill-opacity:1;" d="M 5.503906 55.230469 C 5.503906 55.230469 4.203125 52.722656 4.203125 52.722656 C 4.203125 52.722656 7.152344 51.199219 7.152344 51.199219 C 7.152344 51.199219 8.453125 53.707031 8.453125 53.707031 C 8.453125 53.707031 7.507812 54.199219 7.507812 54.199219 C 7.507812 54.199219 6.570312 52.394531 6.570312 52.394531 C 6.570312 52.394531 5.511719 52.945312 5.511719 52.945312 C 5.511719 52.945312 6.449219 54.75 6.449219 54.75 C 6.449219 54.75 5.503906 55.230469 5.503906 55.230469 Z M 5.503906 55.230469 "/>
<path style=" stroke:none;fill-rule:nonzero;fill:rgb(100%,100%,100%);fill-opacity:1;" d="M 8.242188 52.230469 C 7.851562 51.480469 8.125 50.621094 9.246094 50.035156 C 10.363281 49.449219 11.234375 49.722656 11.621094 50.472656 C 12.007812 51.222656 11.734375 52.082031 10.617188 52.667969 C 9.496094 53.253906 8.640625 52.980469 8.242188 52.230469 Z M 10.636719 50.976562 C 10.425781 50.570312 10.039062 50.453125 9.597656 50.6875 C 9.15625 50.921875 9.023438 51.308594 9.234375 51.714844 C 9.445312 52.121094 9.835938 52.238281 10.277344 52.003906 C 10.71875 51.78125 10.847656 51.382812 10.636719 50.976562 Z M 10.636719 50.976562 "/>
<path style=" stroke:none;fill-rule:nonzero;fill:rgb(100%,100%,100%);fill-opacity:1;" d="M 11.980469 50.285156 C 11.59375 49.523438 11.863281 48.675781 12.996094 48.078125 C 13.488281 47.820312 14 47.746094 14.269531 47.761719 C 14.269531 47.761719 14.632812 48.464844 14.632812 48.464844 C 14.363281 48.433594 13.902344 48.488281 13.46875 48.710938 C 12.917969 49.003906 12.773438 49.414062 12.960938 49.78125 C 13.148438 50.152344 13.574219 50.28125 14.089844 50.011719 C 14.496094 49.800781 14.78125 49.488281 14.921875 49.25 C 14.921875 49.25 15.273438 49.925781 15.273438 49.925781 C 15.121094 50.140625 14.773438 50.511719 14.316406 50.746094 C 13.234375 51.308594 12.378906 51.046875 11.980469 50.285156 Z M 11.980469 50.285156 "/>
<path style=" stroke:none;fill-rule:nonzero;fill:rgb(100%,100%,100%);fill-opacity:1;" d="M 17.96875 48.96875 C 17.96875 48.96875 16.023438 47.699219 16.023438 47.699219 C 16.023438 47.699219 15.996094 47.710938 15.996094 47.710938 C 15.996094 47.710938 16.839844 49.347656 16.839844 49.347656 C 16.839844 49.347656 15.894531 49.839844 15.894531 49.839844 C 15.894531 49.839844 14.59375 47.332031 14.59375 47.332031 C 14.59375 47.332031 15.894531 46.652344 15.894531 46.652344 C 15.894531 46.652344 17.230469 47.589844 17.230469 47.589844 C 17.230469 47.589844 17.253906 47.578125 17.253906 47.578125 C 17.253906 47.578125 17.261719 45.949219 17.261719 45.949219 C 17.261719 45.949219 18.550781 45.28125 18.550781 45.28125 C 18.550781 45.28125 19.851562 47.789062 19.851562 47.789062 C 19.851562 47.789062 18.90625 48.28125 18.90625 48.28125 C 18.90625 48.28125 18.0625 46.644531 18.0625 46.644531 C 18.0625 46.644531 18.039062 46.65625 18.039062 46.65625 C 18.039062 46.65625 17.96875 48.96875 17.96875 48.96875 Z M 17.96875 48.96875 "/>
<path style=" stroke:none;fill-rule:nonzero;fill:rgb(100%,100%,100%);fill-opacity:1;" d="M 19.664062 46.300781 C 19.277344 45.550781 19.550781 44.691406 20.667969 44.105469 C 21.800781 43.519531 22.660156 43.792969 23.046875 44.542969 C 23.433594 45.292969 23.160156 46.152344 22.039062 46.738281 C 20.910156 47.324219 20.050781 47.050781 19.664062 46.300781 Z M 22.0625 45.058594 C 21.851562 44.652344 21.464844 44.535156 21.019531 44.769531 C 20.578125 45.003906 20.449219 45.390625 20.660156 45.796875 C 20.871094 46.203125 21.257812 46.320312 21.699219 46.085938 C 22.144531 45.851562 22.261719 45.464844 22.0625 45.058594 Z M 22.0625 45.058594 "/>
<path style=" stroke:none;fill-rule:nonzero;fill:rgb(100%,100%,100%);fill-opacity:1;" d="M 24.917969 45.164062 C 24.917969 45.164062 23.980469 43.355469 23.980469 43.355469 C 23.980469 43.355469 22.972656 43.871094 22.972656 43.871094 C 22.972656 43.871094 22.609375 43.171875 22.609375 43.171875 C 22.609375 43.171875 25.5625 41.648438 25.5625 41.648438 C 25.5625 41.648438 25.925781 42.347656 25.925781 42.347656 C 25.925781 42.347656 24.929688 42.863281 24.929688 42.863281 C 24.929688 42.863281 25.867188 44.671875 25.867188 44.671875 C 25.867188 44.671875 24.917969 45.164062 24.917969 45.164062 Z M 24.917969 45.164062 "/>
<path style=" stroke:none;fill-rule:nonzero;fill:rgb(100%,100%,100%);fill-opacity:1;" d="M 27.605469 44.828125 C 27.605469 44.828125 25.867188 41.484375 25.867188 41.484375 C 25.867188 41.484375 26.816406 40.992188 26.816406 40.992188 C 26.816406 40.992188 26.980469 41.308594 26.980469 41.308594 C 26.980469 41.308594 27.015625 41.285156 27.015625 41.285156 C 27.070312 41.042969 27.320312 40.636719 27.800781 40.390625 C 28.539062 40.003906 29.289062 40.25 29.722656 41.074219 C 30.144531 41.898438 29.910156 42.644531 29.171875 43.035156 C 28.695312 43.28125 28.207031 43.246094 27.988281 43.15625 C 27.988281 43.15625 27.953125 43.179688 27.953125 43.179688 C 27.953125 43.179688 28.550781 44.335938 28.550781 44.335938 C 28.550781 44.335938 27.605469 44.828125 27.605469 44.828125 Z M 28.726562 41.601562 C 28.527344 41.21875 28.164062 41.101562 27.757812 41.3125 C 27.464844 41.464844 27.3125 41.730469 27.273438 41.886719 C 27.273438 41.886719 27.660156 42.636719 27.660156 42.636719 C 27.804688 42.703125 28.121094 42.71875 28.402344 42.566406 C 28.820312 42.34375 28.925781 41.980469 28.726562 41.601562 Z M 28.726562 41.601562 "/>
<path style=" stroke:none;fill-rule:nonzero;fill:rgb(100%,100%,100%);fill-opacity:1;" d="M 34.371094 38.671875 C 34.757812 39.433594 34.496094 40.277344 33.539062 40.769531 C 32.652344 41.226562 31.839844 41.03125 31.429688 40.386719 C 31.429688 40.386719 31.195312 40.519531 31.195312 40.519531 C 31.195312 40.519531 31.769531 41.613281 31.769531 41.613281 C 31.769531 41.613281 30.820312 42.105469 30.820312 42.105469 C 30.820312 42.105469 29.519531 39.597656 29.519531 39.597656 C 29.519531 39.597656 30.46875 39.105469 30.46875 39.105469 C 30.46875 39.105469 31.019531 40.171875 31.019531 40.171875 C 31.019531 40.171875 31.265625 40.042969 31.265625 40.042969 C 31.011719 39.34375 31.304688 38.585938 32.179688 38.128906 C 33.125 37.648438 33.972656 37.917969 34.371094 38.671875 Z M 33.425781 39.164062 C 33.199219 38.742188 32.839844 38.628906 32.507812 38.804688 C 32.175781 38.980469 32.058594 39.34375 32.28125 39.761719 C 32.503906 40.179688 32.867188 40.296875 33.199219 40.121094 C 33.53125 39.945312 33.648438 39.582031 33.425781 39.164062 Z M 33.425781 39.164062 "/>
<path style=" stroke:none;fill-rule:nonzero;fill:rgb(100%,100%,100%);fill-opacity:1;" d="M 12.46875 56.820312 C 12.925781 56.609375 13.289062 56.699219 13.441406 57.007812 C 13.628906 57.363281 13.484375 57.800781 12.734375 58.1875 C 12.734375 58.1875 10.867188 59.160156 10.867188 59.160156 C 10.867188 59.160156 9.5625 56.652344 9.5625 56.652344 C 9.5625 56.652344 11.371094 55.714844 11.371094 55.714844 C 12.160156 55.304688 12.628906 55.445312 12.832031 55.828125 C 13.007812 56.160156 12.863281 56.546875 12.445312 56.78125 C 12.445312 56.78125 12.46875 56.820312 12.46875 56.820312 Z M 11.738281 56.972656 C 12.007812 56.832031 12.058594 56.675781 11.976562 56.515625 C 11.894531 56.355469 11.738281 56.304688 11.46875 56.445312 C 11.46875 56.445312 10.789062 56.796875 10.789062 56.796875 C 10.789062 56.796875 11.070312 57.339844 11.070312 57.339844 C 11.070312 57.339844 11.738281 56.972656 11.738281 56.972656 Z M 12.183594 57.703125 C 12.417969 57.574219 12.457031 57.453125 12.386719 57.316406 C 12.316406 57.179688 12.183594 57.140625 11.949219 57.257812 C 11.949219 57.257812 11.222656 57.632812 11.222656 57.632812 C 11.222656 57.632812 11.445312 58.078125 11.445312 58.078125 C 11.445312 58.078125 12.183594 57.703125 12.183594 57.703125 Z M 12.183594 57.703125 "/>
<path style=" stroke:none;fill-rule:nonzero;fill:rgb(100%,100%,100%);fill-opacity:1;" d="M 15.40625 56.546875 C 15.40625 56.546875 15.066406 55.898438 15.066406 55.898438 C 15.3125 55.902344 15.800781 55.824219 16.230469 55.601562 C 16.722656 55.34375 16.761719 55.175781 16.691406 55.054688 C 16.632812 54.929688 16.464844 54.890625 15.972656 55.148438 C 15.972656 55.148438 15.453125 55.417969 15.453125 55.417969 C 15.453125 55.417969 15.289062 55.097656 15.289062 55.097656 C 15.289062 55.097656 15.769531 54.851562 15.769531 54.851562 C 16.273438 54.582031 16.339844 54.414062 16.269531 54.289062 C 16.199219 54.15625 15.992188 54.089844 15.550781 54.324219 C 15.070312 54.570312 14.722656 54.941406 14.585938 55.132812 C 14.585938 55.132812 14.234375 54.445312 14.234375 54.445312 C 14.394531 54.242188 14.816406 53.847656 15.417969 53.53125 C 16.378906 53.039062 16.910156 53.195312 17.097656 53.574219 C 17.273438 53.90625 17.09375 54.316406 16.652344 54.566406 C 16.652344 54.566406 16.675781 54.601562 16.675781 54.601562 C 17.179688 54.367188 17.578125 54.449219 17.742188 54.769531 C 17.941406 55.152344 17.800781 55.648438 16.863281 56.140625 C 16.273438 56.433594 15.6875 56.554688 15.40625 56.546875 Z M 15.40625 56.546875 "/>
<path style=" stroke:none;fill-rule:nonzero;fill:rgb(100%,100%,100%);fill-opacity:1;" d="M 18.097656 54.628906 C 17.863281 54.175781 18.042969 53.714844 18.980469 53.1875 C 19.644531 52.8125 19.695312 52.691406 19.636719 52.578125 C 19.578125 52.457031 19.410156 52.40625 18.890625 52.675781 C 18.363281 52.945312 17.953125 53.363281 17.792969 53.589844 C 17.792969 53.589844 17.40625 52.839844 17.40625 52.839844 C 17.554688 52.613281 17.988281 52.207031 18.605469 51.890625 C 19.671875 51.328125 20.300781 51.535156 20.59375 52.113281 C 20.59375 52.113281 21.414062 53.699219 21.414062 53.699219 C 21.414062 53.699219 20.46875 54.191406 20.46875 54.191406 C 20.46875 54.191406 20.292969 53.847656 20.292969 53.847656 C 20.292969 53.847656 20.257812 53.871094 20.257812 53.871094 C 20.179688 54.136719 19.890625 54.582031 19.359375 54.851562 C 18.734375 55.152344 18.296875 55.023438 18.097656 54.628906 Z M 20.058594 53.390625 C 20.058594 53.390625 19.847656 52.984375 19.847656 52.984375 C 19.820312 53.058594 19.660156 53.214844 19.351562 53.390625 C 18.972656 53.613281 18.917969 53.78125 18.988281 53.929688 C 19.058594 54.066406 19.214844 54.117188 19.476562 53.976562 C 19.808594 53.800781 20.007812 53.535156 20.058594 53.390625 Z M 20.058594 53.390625 "/>
<path style=" stroke:none;fill-rule:nonzero;fill:rgb(100%,100%,100%);fill-opacity:1;" d="M 21.921875 53.429688 C 21.921875 53.429688 20.617188 50.921875 20.617188 50.921875 C 20.617188 50.921875 23.570312 49.398438 23.570312 49.398438 C 23.570312 49.398438 24.871094 51.90625 24.871094 51.90625 C 24.871094 51.90625 23.925781 52.398438 23.925781 52.398438 C 23.925781 52.398438 22.988281 50.589844 22.988281 50.589844 C 22.988281 50.589844 21.929688 51.140625 21.929688 51.140625 C 21.929688 51.140625 22.867188 52.949219 22.867188 52.949219 C 22.867188 52.949219 21.921875 53.429688 21.921875 53.429688 Z M 21.921875 53.429688 "/>
<path style=" stroke:none;fill-rule:nonzero;fill:rgb(100%,100%,100%);fill-opacity:1;" d="M 25.398438 51.625 C 25.398438 51.625 24.097656 49.113281 24.097656 49.113281 C 24.097656 49.113281 25.046875 48.621094 25.046875 48.621094 C 25.046875 48.621094 26.089844 50.628906 26.089844 50.628906 C 26.089844 50.628906 26.113281 50.617188 26.113281 50.617188 C 26.113281 50.617188 25.929688 48.152344 25.929688 48.152344 C 25.929688 48.152344 27.074219 47.554688 27.074219 47.554688 C 27.074219 47.554688 28.375 50.0625 28.375 50.0625 C 28.375 50.0625 27.429688 50.554688 27.429688 50.554688 C 27.429688 50.554688 26.386719 48.550781 26.386719 48.550781 C 26.386719 48.550781 26.363281 48.5625 26.363281 48.5625 C 26.363281 48.5625 26.542969 51.027344 26.542969 51.027344 C 26.542969 51.027344 25.398438 51.625 25.398438 51.625 Z M 25.398438 51.625 "/>
<path style=" stroke:none;fill-rule:nonzero;fill:rgb(100%,100%,100%);fill-opacity:1;" d="M 28.160156 48.597656 C 27.773438 47.835938 28.046875 46.992188 29.179688 46.390625 C 29.671875 46.132812 30.183594 46.058594 30.453125 46.078125 C 30.453125 46.078125 30.816406 46.777344 30.816406 46.777344 C 30.546875 46.75 30.082031 46.800781 29.652344 47.023438 C 29.101562 47.316406 28.957031 47.726562 29.144531 48.09375 C 29.332031 48.464844 29.757812 48.59375 30.273438 48.324219 C 30.679688 48.113281 30.964844 47.804688 31.101562 47.5625 C 31.101562 47.5625 31.453125 48.238281 31.453125 48.238281 C 31.304688 48.453125 30.957031 48.824219 30.5 49.058594 C 29.417969 49.621094 28.5625 49.347656 28.160156 48.597656 Z M 28.160156 48.597656 "/>
<path style=" stroke:none;fill-rule:nonzero;fill:rgb(100%,100%,100%);fill-opacity:1;" d="M 32.089844 48.140625 C 32.089844 48.140625 30.789062 45.632812 30.789062 45.632812 C 30.789062 45.632812 31.734375 45.140625 31.734375 45.140625 C 31.734375 45.140625 32.777344 47.144531 32.777344 47.144531 C 32.777344 47.144531 32.804688 47.132812 32.804688 47.132812 C 32.804688 47.132812 32.621094 44.671875 32.621094 44.671875 C 32.621094 44.671875 33.765625 44.074219 33.765625 44.074219 C 33.765625 44.074219 35.066406 46.582031 35.066406 46.582031 C 35.066406 46.582031 34.117188 47.074219 34.117188 47.074219 C 34.117188 47.074219 33.074219 45.070312 33.074219 45.070312 C 33.074219 45.070312 33.050781 45.082031 33.050781 45.082031 C 33.050781 45.082031 33.234375 47.542969 33.234375 47.542969 C 33.234375 47.542969 32.089844 48.140625 32.089844 48.140625 Z M 32.089844 48.140625 "/>
<path style=" stroke:none;fill-rule:nonzero;fill:rgb(100%,60%,0%);fill-opacity:1;" d="M 42.5 30.441406 C 42.5 30.441406 54.351562 48.339844 54.351562 48.339844 C 54.351562 48.339844 80 30.503906 80 30.503906 C 80 30.503906 80 80 80 80 C 80 80 28.703125 80 28.703125 80 C 28.703125 80 42.5 30.441406 42.5 30.441406 Z M 42.5 30.441406 "/>
<path style="fill:none;stroke-width:8;stroke-linecap:butt;stroke-linejoin:miter;stroke:rgb(0%,0%,0%);stroke-opacity:1;stroke-miterlimit:10;" d="M 88.333997 -19.471997 C 59.308997 6.778003 -57.816003 9.678003 -90.216003 -23.571997 " transform="matrix(0.15625,0,0,0.15625,57.514219,64.147968)"/>
<path style=" stroke:none;fill-rule:nonzero;fill:rgb(100%,100%,100%);fill-opacity:1;" d="M 68.925781 48.789062 C 64.203125 48.753906 61.25 51.097656 59.4375 55.089844 C 59.4375 55.089844 77.859375 55.089844 77.859375 55.089844 C 77.140625 50.769531 74.375 48.828125 68.925781 48.789062 Z M 68.925781 48.789062 "/>
<path style=" stroke:none;fill-rule:nonzero;fill:rgb(0%,0%,0%);fill-opacity:1;" d="M 73.789062 49.808594 C 74.746094 49.808594 75.519531 50.582031 75.519531 51.539062 C 75.519531 52.492188 74.746094 53.265625 73.789062 53.265625 C 72.835938 53.265625 72.0625 52.492188 72.0625 51.539062 C 72.0625 50.582031 72.835938 49.808594 73.789062 49.808594 Z M 73.789062 49.808594 "/>
<path style=" stroke:none;fill-rule:nonzero;fill:rgb(100%,100%,100%);fill-opacity:1;" d="M 46.660156 48.398438 C 41.9375 48.359375 38.90625 51.097656 37.171875 55.089844 C 37.171875 55.089844 55.589844 55.089844 55.589844 55.089844 C 54.875 50.769531 51.953125 48.4375 46.660156 48.398438 Z M 46.660156 48.398438 "/>
<path style=" stroke:none;fill-rule:nonzero;fill:rgb(0%,0%,0%);fill-opacity:1;" d="M 51.269531 49.46875 C 52.222656 49.46875 52.996094 50.242188 52.996094 51.195312 C 52.996094 52.152344 52.222656 52.925781 51.269531 52.925781 C 50.3125 52.925781 49.539062 52.152344 49.539062 51.195312 C 49.539062 50.242188 50.3125 49.46875 51.269531 49.46875 Z M 51.269531 49.46875 "/>
</g>
</svg>
