<?xml version="1.0" encoding="UTF-8"?>
<svg xmlns="http://www.w3.org/2000/svg" xmlns:xlink="http://www.w3.org/1999/xlink" width="80px" height="80px" viewBox="0 0 80 80" version="1.1">
<g id="surface1">
<path style=" stroke:none;fill-rule:nonzero;fill:rgb(100%,60%,0%);fill-opacity:1;" d="M 45.574219 11.449219 C 45.574219 7.621094 42.503906 4.507812 38.691406 4.441406 C 34.816406 4.371094 31.582031 7.519531 31.550781 11.394531 C 31.535156 13.195312 32.199219 14.839844 33.304688 16.089844 C 34.214844 17.117188 34.742188 18.421875 34.742188 19.789062 C 34.742188 19.789062 34.742188 20.046875 34.742188 20.046875 C 34.742188 20.046875 42.382812 20.046875 42.382812 20.046875 C 42.382812 20.046875 42.382812 19.882812 42.382812 19.882812 C 42.382812 18.46875 42.925781 17.117188 43.855469 16.046875 C 44.925781 14.816406 45.574219 13.210938 45.574219 11.449219 Z M 45.574219 11.449219 "/>
<path style=" stroke:none;fill-rule:nonzero;fill:rgb(53.72549%,31.372549%,90.196078%);fill-opacity:1;" d="M 42.394531 20.039062 C 42.394531 20.039062 34.730469 20.039062 34.730469 20.039062 C 34.730469 20.039062 34.730469 24.457031 34.730469 24.457031 C 34.730469 24.457031 42.394531 24.457031 42.394531 24.457031 C 42.394531 24.457031 42.394531 20.039062 42.394531 20.039062 Z M 42.394531 20.039062 "/>
<path style=" stroke:none;fill-rule:nonzero;fill:rgb(100%,98.039216%,95.294118%);fill-opacity:1;" d="M 26.339844 77.601562 C 26.339844 77.601562 7.96875 72.519531 7.96875 72.519531 C 7.96875 72.519531 4.460938 60.710938 4.460938 60.710938 C 4.460938 60.710938 22.832031 65.789062 22.832031 65.789062 C 22.832031 65.789062 26.339844 77.601562 26.339844 77.601562 Z M 26.339844 77.601562 "/>
<path style=" stroke:none;fill-rule:nonzero;fill:rgb(95.294118%,98.039216%,100%);fill-opacity:1;" d="M 65.710938 58.683594 C 65.710938 58.683594 59.035156 67.183594 59.035156 67.183594 C 59.035156 67.183594 76.824219 76.84375 76.824219 76.84375 C 76.824219 76.84375 76.929688 76.804688 76.929688 76.804688 C 76.929688 76.804688 83.554688 68.371094 83.554688 68.371094 C 83.554688 68.371094 65.710938 58.683594 65.710938 58.683594 Z M 65.710938 58.683594 "/>
<path style="fill:none;stroke-width:4;stroke-linecap:round;stroke-linejoin:miter;stroke:rgb(26.27451%,18.039216%,18.039216%);stroke-opacity:1;stroke-miterlimit:10;" d="M -12.11728 17.358954 C -12.11728 17.358954 12.148965 -17.361369 12.148965 -17.361369 " transform="matrix(0.0903142,-0.0391573,0.0391573,0.0903142,68.172445,82.117917)"/>
<path style="fill:none;stroke-width:4;stroke-linecap:round;stroke-linejoin:miter;stroke:rgb(26.27451%,18.039216%,18.039216%);stroke-opacity:1;stroke-miterlimit:10;" d="M 2.772685 -53.487062 C 2.772685 -53.487062 30.562539 -34.085472 30.562539 -34.085472 C 30.562539 -34.085472 -30.577775 53.461059 -30.577775 53.461059 " transform="matrix(0.0903142,-0.0391573,0.0391573,0.0903142,77.676028,60.267335)"/>
<path style=" stroke:none;fill-rule:nonzero;fill:rgb(44.705882%,37.647059%,64.313725%);fill-opacity:1;" d="M 75.367188 51.484375 C 75.367188 51.484375 72.96875 51 72.96875 51 C 72.96875 51 72.101562 55.25 72.101562 55.25 C 72.101562 55.25 74.5 55.738281 74.5 55.738281 C 74.5 55.738281 75.367188 51.484375 75.367188 51.484375 Z M 75.367188 51.484375 "/>
<path style=" stroke:none;fill-rule:nonzero;fill:rgb(95.686275%,61.960784%,20%);fill-opacity:1;" d="M 72.597656 77.371094 C 72.597656 77.371094 68.511719 82.402344 68.511719 82.402344 C 68.511719 82.402344 67.894531 82.277344 67.894531 82.277344 C 67.894531 82.277344 65.949219 76.019531 65.949219 76.019531 C 65.949219 76.019531 70.472656 53.785156 70.472656 53.785156 C 70.472656 53.785156 77.121094 55.136719 77.121094 55.136719 C 77.121094 55.136719 72.597656 77.371094 72.597656 77.371094 Z M 72.597656 77.371094 "/>
<path style=" stroke:none;fill-rule:nonzero;fill:rgb(100%,60%,0%);fill-opacity:1;" d="M 54.367188 17.804688 C 54.367188 17.804688 43.214844 34.597656 43.214844 34.597656 C 43.214844 34.597656 19.074219 17.863281 19.074219 17.863281 C 19.074219 17.863281 18.78125 74.277344 18.78125 74.277344 C 18.78125 74.277344 70.59375 74.863281 70.59375 74.863281 C 70.59375 74.863281 54.367188 17.804688 54.367188 17.804688 Z M 54.367188 17.804688 "/>
<path style=" stroke:none;fill-rule:nonzero;fill:rgb(0%,0%,0%);fill-opacity:1;" d="M 42.710938 60.324219 C 40.480469 60.324219 38.546875 58.457031 38.003906 55.785156 C 38.003906 55.785156 39.277344 55.527344 39.277344 55.527344 C 39.695312 57.589844 41.109375 59.03125 42.710938 59.03125 C 44.316406 59.03125 45.730469 57.589844 46.148438 55.527344 C 46.148438 55.527344 47.421875 55.785156 47.421875 55.785156 C 46.878906 58.457031 44.941406 60.324219 42.714844 60.324219 C 42.714844 60.324219 42.710938 60.324219 42.710938 60.324219 Z M 42.710938 60.324219 "/>
<path style=" stroke:none;fill-rule:nonzero;fill:rgb(100%,100%,100%);fill-opacity:1;" d="M 33.25 54.179688 C 37.046875 54.179688 40.125 49.902344 40.125 44.625 C 40.125 39.34375 37.046875 35.066406 33.25 35.066406 C 29.457031 35.066406 26.378906 39.34375 26.378906 44.625 C 26.378906 49.902344 29.457031 54.179688 33.25 54.179688 Z M 33.25 54.179688 "/>
<path style=" stroke:none;fill-rule:nonzero;fill:rgb(100%,100%,100%);fill-opacity:1;" d="M 51.414062 54.035156 C 55.210938 54.035156 58.289062 49.753906 58.289062 44.476562 C 58.289062 39.195312 55.210938 34.917969 51.414062 34.917969 C 47.617188 34.917969 44.542969 39.195312 44.542969 44.476562 C 44.542969 49.753906 47.621094 54.035156 51.414062 54.035156 Z M 51.414062 54.035156 "/>
<path style=" stroke:none;fill-rule:nonzero;fill:rgb(0%,0%,0%);fill-opacity:1;" d="M 33.25 49.609375 C 35.503906 49.609375 37.328125 47.183594 37.328125 44.191406 C 37.328125 41.199219 35.503906 38.773438 33.25 38.773438 C 31 38.773438 29.171875 41.199219 29.171875 44.191406 C 29.171875 47.183594 31 49.609375 33.25 49.609375 Z M 33.25 49.609375 "/>
<path style=" stroke:none;fill-rule:nonzero;fill:rgb(100%,100%,100%);fill-opacity:1;" d="M 32.761719 43.304688 C 34.074219 43.304688 35.140625 42.246094 35.140625 40.933594 C 35.140625 39.625 34.074219 38.5625 32.761719 38.5625 C 31.445312 38.5625 30.378906 39.625 30.378906 40.933594 C 30.378906 42.246094 31.445312 43.304688 32.761719 43.304688 Z M 32.761719 43.304688 "/>
<path style=" stroke:none;fill-rule:nonzero;fill:rgb(100%,100%,100%);fill-opacity:1;" d="M 36.730469 44.171875 C 37.441406 44.171875 38.019531 43.59375 38.019531 42.882812 C 38.019531 42.175781 37.441406 41.597656 36.730469 41.597656 C 36.015625 41.597656 35.441406 42.175781 35.441406 42.882812 C 35.441406 43.59375 36.015625 44.171875 36.730469 44.171875 Z M 36.730469 44.171875 "/>
<path style=" stroke:none;fill-rule:nonzero;fill:rgb(100%,100%,100%);fill-opacity:1;" d="M 35.289062 45.894531 C 35.671875 45.894531 35.984375 45.582031 35.984375 45.203125 C 35.984375 44.820312 35.671875 44.511719 35.289062 44.511719 C 34.90625 44.511719 34.597656 44.820312 34.597656 45.203125 C 34.597656 45.582031 34.90625 45.894531 35.289062 45.894531 Z M 35.289062 45.894531 "/>
<path style=" stroke:none;fill-rule:nonzero;fill:rgb(0%,0%,0%);fill-opacity:1;" d="M 51.414062 49.464844 C 53.667969 49.464844 55.492188 47.039062 55.492188 44.042969 C 55.492188 41.050781 53.667969 38.625 51.414062 38.625 C 49.164062 38.625 47.335938 41.050781 47.335938 44.042969 C 47.335938 47.039062 49.164062 49.464844 51.414062 49.464844 Z M 51.414062 49.464844 "/>
<path style=" stroke:none;fill-rule:nonzero;fill:rgb(100%,100%,100%);fill-opacity:1;" d="M 50.925781 43.160156 C 52.238281 43.160156 53.304688 42.097656 53.304688 40.789062 C 53.304688 39.476562 52.238281 38.417969 50.925781 38.417969 C 49.609375 38.417969 48.542969 39.476562 48.542969 40.789062 C 48.542969 42.097656 49.609375 43.160156 50.925781 43.160156 Z M 50.925781 43.160156 "/>
<path style=" stroke:none;fill-rule:nonzero;fill:rgb(100%,100%,100%);fill-opacity:1;" d="M 54.894531 44.023438 C 55.605469 44.023438 56.183594 43.445312 56.183594 42.738281 C 56.183594 42.027344 55.605469 41.449219 54.894531 41.449219 C 54.179688 41.449219 53.605469 42.027344 53.605469 42.738281 C 53.605469 43.445312 54.179688 44.023438 54.894531 44.023438 Z M 54.894531 44.023438 "/>
<path style=" stroke:none;fill-rule:nonzero;fill:rgb(100%,100%,100%);fill-opacity:1;" d="M 53.453125 45.777344 C 53.835938 45.777344 54.148438 45.464844 54.148438 45.085938 C 54.148438 44.703125 53.835938 44.394531 53.453125 44.394531 C 53.070312 44.394531 52.761719 44.703125 52.761719 45.085938 C 52.761719 45.464844 53.070312 45.777344 53.453125 45.777344 Z M 53.453125 45.777344 "/>
<path style=" stroke:none;fill-rule:nonzero;fill:rgb(100%,100%,100%);fill-opacity:1;" d="M 77.882812 71.203125 C 77.882812 71.203125 56.847656 53.296875 56.847656 53.296875 C 56.847656 53.296875 36.160156 77.554688 36.160156 77.554688 C 36.160156 77.554688 55.292969 93.835938 55.292969 93.835938 C 55.292969 93.835938 57.222656 95.433594 57.222656 95.433594 C 57.222656 95.433594 77.882812 71.203125 77.882812 71.203125 Z M 77.882812 71.203125 "/>
<path style="fill:none;stroke-width:2.32;stroke-linecap:butt;stroke-linejoin:miter;stroke:rgb(74.117647%,86.27451%,91.764706%);stroke-opacity:1;stroke-miterlimit:10;" d="M -57.532228 -67.108507 C -57.532228 -67.108507 57.536527 67.119782 57.536527 67.119782 " transform="matrix(0.154326,-0.0244429,0.0244429,0.154326,64.663593,65.419104)"/>
<path style="fill:none;stroke-width:2.32;stroke-linecap:butt;stroke-linejoin:miter;stroke:rgb(74.117647%,86.27451%,91.764706%);stroke-opacity:1;stroke-miterlimit:10;" d="M -57.537389 -67.122504 C -57.537389 -67.122504 57.531366 67.105785 57.531366 67.105785 " transform="matrix(0.154326,-0.0244429,0.0244429,0.154326,62.477232,67.983638)"/>
<path style="fill:none;stroke-width:2.32;stroke-linecap:butt;stroke-linejoin:miter;stroke:rgb(74.117647%,86.27451%,91.764706%);stroke-opacity:1;stroke-miterlimit:10;" d="M -57.536451 -67.122825 C -57.536451 -67.122825 57.532303 67.105463 57.532303 67.105463 " transform="matrix(0.154326,-0.0244429,0.0244429,0.154326,60.289595,70.550117)"/>
<path style="fill:none;stroke-width:2.32;stroke-linecap:butt;stroke-linejoin:miter;stroke:rgb(74.117647%,86.27451%,91.764706%);stroke-opacity:1;stroke-miterlimit:10;" d="M -57.530596 -67.126813 C -57.530596 -67.126813 57.534248 67.126168 57.534248 67.126168 " transform="matrix(0.154326,-0.0244429,0.0244429,0.154326,58.101289,73.113376)"/>
<path style="fill:none;stroke-width:2.32;stroke-linecap:butt;stroke-linejoin:miter;stroke:rgb(74.117647%,86.27451%,91.764706%);stroke-opacity:1;stroke-miterlimit:10;" d="M -57.528681 -67.12512 C -57.528681 -67.12512 57.536163 67.127861 57.536163 67.127861 " transform="matrix(0.154326,-0.0244429,0.0244429,0.154326,55.913452,75.679567)"/>
<path style="fill:none;stroke-width:2.32;stroke-linecap:butt;stroke-linejoin:miter;stroke:rgb(74.117647%,86.27451%,91.764706%);stroke-opacity:1;stroke-miterlimit:10;" d="M -57.534849 -67.129108 C -57.534849 -67.129108 57.529995 67.123873 57.529995 67.123873 " transform="matrix(0.154326,-0.0244429,0.0244429,0.154326,53.727001,78.242532)"/>
<path style="fill:none;stroke-width:2.32;stroke-linecap:butt;stroke-linejoin:miter;stroke:rgb(74.117647%,86.27451%,91.764706%);stroke-opacity:1;stroke-miterlimit:10;" d="M -57.533911 -67.129399 C -57.533911 -67.129399 57.530932 67.123582 57.530932 67.123582 " transform="matrix(0.154326,-0.0244429,0.0244429,0.154326,51.539363,80.809006)"/>
<path style="fill:none;stroke-width:2.32;stroke-linecap:butt;stroke-linejoin:miter;stroke:rgb(74.117647%,86.27451%,91.764706%);stroke-opacity:1;stroke-miterlimit:10;" d="M -57.518291 -67.113786 C -57.518291 -67.113786 57.525771 67.110592 57.525771 67.110592 " transform="matrix(0.154326,-0.0244429,0.0244429,0.154326,49.352977,83.373385)"/>
<path style="fill:none;stroke-width:2.32;stroke-linecap:butt;stroke-linejoin:miter;stroke:rgb(100%,30.588235%,30.588235%);stroke-opacity:1;stroke-miterlimit:10;" d="M 77.417139 -66.218758 C 77.417139 -66.218758 -77.406508 66.216989 -77.406508 66.216989 " transform="matrix(0.154326,-0.0244429,0.0244429,0.154326,49.409358,67.928001)"/>
<path style=" stroke:none;fill-rule:nonzero;fill:rgb(100%,100%,100%);fill-opacity:1;" d="M 19.421875 54.027344 C 19.421875 54.027344 0.46875 74.128906 0.46875 74.128906 C 0.46875 74.128906 21.25 93.679688 21.25 93.679688 C 21.25 93.679688 23.789062 95.957031 23.789062 95.957031 C 23.789062 95.957031 42.636719 75.871094 42.636719 75.871094 C 42.636719 75.871094 19.421875 54.027344 19.421875 54.027344 Z M 19.421875 54.027344 "/>
<path style="fill:none;stroke-width:2.32;stroke-linecap:butt;stroke-linejoin:miter;stroke:rgb(74.117647%,86.27451%,91.764706%);stroke-opacity:1;stroke-miterlimit:10;" d="M -62.200382 62.808907 C -62.200382 62.808907 62.221342 -62.798871 62.221342 -62.798871 " transform="matrix(0.156203,-0.00383661,0.00383661,0.156203,12.978813,66.930897)"/>
<path style="fill:none;stroke-width:2.32;stroke-linecap:butt;stroke-linejoin:miter;stroke:rgb(74.117647%,86.27451%,91.764706%);stroke-opacity:1;stroke-miterlimit:10;" d="M -62.205903 62.798939 C -62.205903 62.798939 62.21582 -62.808839 62.21582 -62.808839 " transform="matrix(0.156203,-0.00383661,0.00383661,0.156203,15.432838,69.241027)"/>
<path style="fill:none;stroke-width:2.32;stroke-linecap:butt;stroke-linejoin:miter;stroke:rgb(74.117647%,86.27451%,91.764706%);stroke-opacity:1;stroke-miterlimit:10;" d="M -62.221041 62.815978 C -62.221041 62.815978 62.201296 -62.816793 62.201296 -62.816793 " transform="matrix(0.156203,-0.00383661,0.00383661,0.156203,17.888262,71.550807)"/>
<path style="fill:none;stroke-width:2.32;stroke-linecap:butt;stroke-linejoin:miter;stroke:rgb(74.117647%,86.27451%,91.764706%);stroke-opacity:1;stroke-miterlimit:10;" d="M -62.200571 62.806654 C -62.200571 62.806654 62.221153 -62.801124 62.221153 -62.801124 " transform="matrix(0.156203,-0.00383661,0.00383661,0.156203,20.342132,73.860936)"/>
<path style="fill:none;stroke-width:2.32;stroke-linecap:butt;stroke-linejoin:miter;stroke:rgb(74.117647%,86.27451%,91.764706%);stroke-opacity:1;stroke-miterlimit:10;" d="M -62.216102 62.796686 C -62.216102 62.796686 62.205622 -62.811092 62.205622 -62.811092 " transform="matrix(0.156203,-0.00383661,0.00383661,0.156203,22.797721,76.171027)"/>
<path style="fill:none;stroke-width:2.32;stroke-linecap:butt;stroke-linejoin:miter;stroke:rgb(74.117647%,86.27451%,91.764706%);stroke-opacity:1;stroke-miterlimit:10;" d="M -62.22123 62.811741 C -62.22123 62.811741 62.200494 -62.796037 62.200494 -62.796037 " transform="matrix(0.156203,-0.00383661,0.00383661,0.156203,25.251589,78.481156)"/>
<path style="fill:none;stroke-width:2.32;stroke-linecap:butt;stroke-linejoin:miter;stroke:rgb(74.117647%,86.27451%,91.764706%);stroke-opacity:1;stroke-miterlimit:10;" d="M -62.211769 62.804401 C -62.211769 62.804401 62.209955 -62.803377 62.209955 -62.803377 " transform="matrix(0.156203,-0.00383661,0.00383661,0.156203,27.707171,80.790932)"/>
<path style="fill:none;stroke-width:2.32;stroke-linecap:butt;stroke-linejoin:miter;stroke:rgb(74.117647%,86.27451%,91.764706%);stroke-opacity:1;stroke-miterlimit:10;" d="M -62.215905 62.819426 C -62.215905 62.819426 62.206433 -62.813345 62.206433 -62.813345 " transform="matrix(0.156203,-0.00383661,0.00383661,0.156203,30.160884,83.101069)"/>
<path style="fill:none;stroke-width:2.32;stroke-linecap:butt;stroke-linejoin:miter;stroke:rgb(100%,30.588235%,30.588235%);stroke-opacity:1;stroke-miterlimit:10;" d="M -72.438547 -71.614597 C -72.438547 -71.614597 72.438326 71.610935 72.438326 71.610935 " transform="matrix(0.156203,-0.00383661,0.00383661,0.156203,14.72268,82.275676)"/>
<path style=" stroke:none;fill-rule:nonzero;fill:rgb(100%,100%,100%);fill-opacity:1;" d="M -27.476562 89.425781 C -27.476562 89.425781 -6.242188 114.476562 -6.242188 114.476562 C -6.242188 114.476562 23.941406 88.589844 23.941406 88.589844 C 23.941406 88.589844 23.976562 88.558594 23.976562 88.558594 C 23.976562 88.558594 3.585938 63.84375 3.585938 63.84375 C 3.585938 63.84375 -27.476562 89.425781 -27.476562 89.425781 Z M -27.476562 89.425781 "/>
<path style=" stroke:none;fill-rule:nonzero;fill:rgb(100%,98.039216%,95.294118%);fill-opacity:1;" d="M 98.707031 83.949219 C 98.707031 83.949219 62.734375 119.535156 62.734375 119.535156 C 62.734375 119.535156 40.285156 96.992188 40.285156 96.992188 C 40.285156 96.992188 39.789062 96.621094 39.789062 96.621094 C 39.796875 96.617188 39.832031 96.585938 39.890625 96.535156 C 40.082031 96.363281 75.535156 62.320312 75.804688 62.054688 C 75.867188 62 75.914062 61.957031 75.945312 61.925781 C 75.972656 61.894531 75.988281 61.882812 75.988281 61.882812 C 75.988281 61.882812 76.152344 62.035156 76.152344 62.035156 C 76.152344 62.035156 77.171875 62.988281 77.171875 62.988281 C 77.171875 62.988281 77.175781 62.992188 77.175781 62.992188 C 77.175781 62.992188 79.484375 65.152344 79.484375 65.152344 C 79.484375 65.152344 79.492188 65.15625 79.492188 65.15625 C 79.492188 65.15625 82.863281 68.304688 82.863281 68.304688 C 82.863281 68.304688 83.308594 68.726562 83.308594 68.726562 C 83.308594 68.726562 83.414062 68.820312 83.414062 68.820312 C 83.414062 68.820312 98.707031 83.949219 98.707031 83.949219 Z M 98.707031 83.949219 "/>
<path style=" stroke:none;fill-rule:nonzero;fill:rgb(95.294118%,98.039216%,100%);fill-opacity:1;" d="M 3.476562 94.300781 C 3.476562 94.300781 27.636719 117.453125 27.636719 117.453125 C 27.636719 117.453125 47.429688 98.164062 47.429688 98.164062 C 47.429688 98.164062 61.550781 85.457031 61.550781 85.457031 C 61.550781 85.457031 37.109375 61.558594 37.109375 61.558594 C 37.109375 61.558594 3.476562 94.300781 3.476562 94.300781 Z M 3.476562 94.300781 "/>
</g>
</svg>
