<?xml version="1.0" encoding="UTF-8"?>
<svg xmlns="http://www.w3.org/2000/svg" xmlns:xlink="http://www.w3.org/1999/xlink" width="80px" height="80px" viewBox="0 0 80 80" version="1.1">
<g id="surface1">
<path style=" stroke:none;fill-rule:nonzero;fill:rgb(100%,60%,0%);fill-opacity:1;" d="M 37.050781 23.867188 C 37.050781 23.867188 50.46875 44.144531 50.46875 44.144531 C 50.46875 44.144531 79.511719 23.921875 79.511719 23.921875 C 79.511719 23.921875 79.511719 80 79.511719 80 C 79.511719 80 21.425781 80 21.425781 80 C 21.425781 80 37.050781 23.867188 37.050781 23.867188 Z M 37.050781 23.867188 "/>
<path style="fill:none;stroke-width:8;stroke-linecap:butt;stroke-linejoin:miter;stroke:rgb(0%,0%,0%);stroke-opacity:1;stroke-miterlimit:10;" d="M -71.944972 27.903976 C -45.769972 6.565484 25.380028 -4.453573 71.955028 12.912061 " transform="matrix(0.15625,0,0,0.156334,52.674996,68.110309)"/>
<path style=" stroke:none;fill-rule:nonzero;fill:rgb(100%,100%,100%);fill-opacity:1;" d="M 67.71875 60.902344 C 62.375 61.054688 57.839844 57.222656 56.972656 52.082031 C 56.972656 52.082031 63.992188 52.082031 67.5 52.082031 C 70.945312 52.082031 77.832031 52.082031 77.832031 52.082031 C 77.019531 56.976562 72.859375 60.75 67.71875 60.902344 Z M 67.71875 60.902344 "/>
<path style=" stroke:none;fill-rule:nonzero;fill:rgb(0%,0%,0%);fill-opacity:1;" d="M 68.828125 56.648438 C 69.910156 56.648438 70.785156 55.769531 70.785156 54.691406 C 70.785156 53.609375 69.910156 52.734375 68.828125 52.734375 C 67.75 52.734375 66.875 53.609375 66.875 54.691406 C 66.875 55.769531 67.75 56.648438 68.828125 56.648438 Z M 68.828125 56.648438 "/>
<path style=" stroke:none;fill-rule:nonzero;fill:rgb(100%,100%,100%);fill-opacity:1;" d="M 41.75 60.902344 C 36.402344 61.054688 31.871094 57.222656 31.003906 52.082031 C 31.003906 52.082031 38.171875 52.082031 41.757812 52.082031 C 45.125 52.082031 51.863281 52.082031 51.863281 52.082031 C 51.050781 56.976562 46.886719 60.75 41.75 60.902344 Z M 41.75 60.902344 "/>
<path style=" stroke:none;fill-rule:nonzero;fill:rgb(0%,0%,0%);fill-opacity:1;" d="M 42.84375 56.648438 C 43.925781 56.648438 44.800781 55.769531 44.800781 54.691406 C 44.800781 53.609375 43.925781 52.734375 42.84375 52.734375 C 41.765625 52.734375 40.890625 53.609375 40.890625 54.691406 C 40.890625 55.769531 41.765625 56.648438 42.84375 56.648438 Z M 42.84375 56.648438 "/>
<path style="fill:none;stroke-width:33;stroke-linecap:round;stroke-linejoin:miter;stroke:rgb(92.54902%,43.529412%,0%);stroke-opacity:1;stroke-miterlimit:10;" d="M 13.366022 16.495816 C 13.366022 16.495816 133.066022 16.495816 133.066022 16.495816 " transform="matrix(0.15625,0,0,0.156334,55.99359,47.038326)"/>
<path style="fill:none;stroke-width:33;stroke-linecap:round;stroke-linejoin:miter;stroke:rgb(92.54902%,43.529412%,0%);stroke-opacity:1;stroke-miterlimit:10;" d="M 16.496027 16.495816 C 16.496027 16.495816 135.321027 16.39587 135.321027 16.39587 " transform="matrix(0.15625,0,0,0.156334,29.664683,47.038326)"/>
<path style=" stroke:none;fill-rule:nonzero;fill:rgb(0%,0%,0%);fill-opacity:1;" d="M 52.855469 59.957031 C 52.855469 59.957031 52.855469 63.527344 52.855469 63.527344 C 52.855469 63.527344 39.476562 66.738281 39.476562 66.738281 C 39.476562 66.738281 39.476562 65.042969 39.476562 65.042969 C 39.476562 65.042969 52.855469 59.957031 52.855469 59.957031 Z M 52.855469 59.957031 "/>
<path style=" stroke:none;fill-rule:nonzero;fill:rgb(0%,0%,0%);fill-opacity:1;" d="M 55.238281 59.957031 C 55.238281 59.957031 55.238281 63.527344 55.238281 63.527344 C 55.238281 63.527344 68.617188 66.738281 68.617188 66.738281 C 68.617188 66.738281 68.617188 65.277344 68.617188 65.277344 C 68.617188 65.277344 55.238281 59.957031 55.238281 59.957031 Z M 55.238281 59.957031 "/>
<path style=" stroke:none;fill-rule:nonzero;fill:rgb(53.333333%,31.372549%,90.196078%);fill-opacity:1;" d="M 7.527344 9.511719 C 7.527344 9.511719 8.855469 9.316406 8.855469 9.316406 C 8.855469 9.316406 9.382812 12.851562 9.382812 12.851562 C 9.382812 12.851562 8.054688 13.046875 8.054688 13.046875 C 8.054688 13.046875 7.863281 11.75 7.863281 11.75 C 7.863281 11.75 6.34375 11.976562 6.34375 11.976562 C 6.34375 11.976562 6.535156 13.277344 6.535156 13.277344 C 6.535156 13.277344 5.207031 13.472656 5.207031 13.472656 C 5.207031 13.472656 4.679688 9.9375 4.679688 9.9375 C 4.679688 9.9375 6.011719 9.742188 6.011719 9.742188 C 6.011719 9.742188 6.199219 10.984375 6.199219 10.984375 C 6.199219 10.984375 7.71875 10.753906 7.71875 10.753906 C 7.71875 10.753906 7.527344 9.511719 7.527344 9.511719 Z M 7.527344 9.511719 "/>
<path style=" stroke:none;fill-rule:nonzero;fill:rgb(53.333333%,31.372549%,90.196078%);fill-opacity:1;" d="M 9.742188 10.988281 C 9.578125 9.90625 10.25 9.011719 11.675781 8.800781 C 13.035156 8.597656 13.949219 9.269531 14.113281 10.335938 C 14.113281 10.335938 14.128906 10.441406 14.128906 10.441406 C 14.128906 10.441406 11.144531 10.890625 11.144531 10.890625 C 11.269531 11.300781 11.703125 11.523438 12.542969 11.394531 C 13.09375 11.316406 13.601562 11.039062 13.8125 10.855469 C 13.8125 10.855469 13.96875 11.917969 13.96875 11.917969 C 13.75 12.101562 13.171875 12.386719 12.441406 12.492188 C 10.808594 12.726562 9.898438 12.03125 9.742188 10.988281 Z M 12.695312 10.199219 C 12.582031 9.820312 12.277344 9.566406 11.804688 9.636719 C 11.332031 9.707031 11.066406 10.03125 11.078125 10.445312 C 11.078125 10.445312 12.695312 10.199219 12.695312 10.199219 Z M 12.695312 10.199219 "/>
<path style=" stroke:none;fill-rule:nonzero;fill:rgb(53.333333%,31.372549%,90.196078%);fill-opacity:1;" d="M 17.824219 11.808594 C 17.824219 11.808594 16.023438 9.492188 16.023438 9.492188 C 16.023438 9.492188 15.992188 9.5 15.992188 9.5 C 15.992188 9.5 16.335938 11.800781 16.335938 11.800781 C 16.335938 11.800781 15.007812 12 15.007812 12 C 15.007812 12 14.480469 8.464844 14.480469 8.464844 C 14.480469 8.464844 16.3125 8.191406 16.3125 8.191406 C 16.3125 8.191406 17.527344 9.851562 17.527344 9.851562 C 17.527344 9.851562 17.566406 9.847656 17.566406 9.847656 C 17.566406 9.847656 18.246094 7.902344 18.246094 7.902344 C 18.246094 7.902344 20.066406 7.625 20.066406 7.625 C 20.066406 7.625 20.59375 11.160156 20.59375 11.160156 C 20.59375 11.160156 19.261719 11.359375 19.261719 11.359375 C 19.261719 11.359375 18.917969 9.054688 18.917969 9.054688 C 18.917969 9.054688 18.886719 9.058594 18.886719 9.058594 C 18.886719 9.058594 17.824219 11.808594 17.824219 11.808594 Z M 17.824219 11.808594 "/>
<path style=" stroke:none;fill-rule:nonzero;fill:rgb(53.333333%,31.372549%,90.196078%);fill-opacity:1;" d="M 23.640625 7.105469 C 23.640625 7.105469 24.96875 6.910156 24.96875 6.910156 C 24.96875 6.910156 25.496094 10.445312 25.496094 10.445312 C 25.496094 10.445312 24.164062 10.640625 24.164062 10.640625 C 24.164062 10.640625 23.976562 9.339844 23.976562 9.339844 C 23.976562 9.339844 22.457031 9.570312 22.457031 9.570312 C 22.457031 9.570312 22.648438 10.871094 22.648438 10.871094 C 22.648438 10.871094 21.320312 11.066406 21.320312 11.066406 C 21.320312 11.066406 20.792969 7.53125 20.792969 7.53125 C 20.792969 7.53125 22.121094 7.335938 22.121094 7.335938 C 22.121094 7.335938 22.3125 8.578125 22.3125 8.578125 C 22.3125 8.578125 23.828125 8.347656 23.828125 8.347656 C 23.828125 8.347656 23.640625 7.105469 23.640625 7.105469 Z M 23.640625 7.105469 "/>
<path style=" stroke:none;fill-rule:nonzero;fill:rgb(53.333333%,31.372549%,90.196078%);fill-opacity:1;" d="M 25.863281 8.582031 C 25.707031 7.519531 26.378906 6.605469 27.964844 6.367188 C 29.550781 6.128906 30.472656 6.8125 30.628906 7.867188 C 30.785156 8.921875 30.113281 9.84375 28.527344 10.082031 C 26.929688 10.320312 26.019531 9.636719 25.863281 8.582031 Z M 29.230469 8.074219 C 29.144531 7.511719 28.722656 7.195312 28.101562 7.292969 C 27.472656 7.382812 27.164062 7.804688 27.25 8.375 C 27.339844 8.9375 27.757812 9.253906 28.382812 9.15625 C 29.011719 9.066406 29.316406 8.644531 29.230469 8.074219 Z M 29.230469 8.074219 "/>
<path style=" stroke:none;fill-rule:nonzero;fill:rgb(53.333333%,31.372549%,90.196078%);fill-opacity:1;" d="M 31.511719 9.539062 C 31.511719 9.539062 30.988281 6.003906 30.988281 6.003906 C 30.988281 6.003906 34.367188 5.496094 34.367188 5.496094 C 34.367188 5.496094 34.511719 6.488281 34.511719 6.488281 C 34.511719 6.488281 32.464844 6.792969 32.464844 6.792969 C 32.464844 6.792969 32.84375 9.332031 32.84375 9.332031 C 32.84375 9.332031 31.511719 9.539062 31.511719 9.539062 Z M 31.511719 9.539062 "/>
<path style=" stroke:none;fill-rule:nonzero;fill:rgb(53.333333%,31.372549%,90.196078%);fill-opacity:1;" d="M 34.933594 7.222656 C 34.777344 6.160156 35.453125 5.246094 37.039062 5.007812 C 38.625 4.769531 39.542969 5.453125 39.699219 6.507812 C 39.855469 7.570312 39.183594 8.480469 37.597656 8.722656 C 36.011719 8.960938 35.097656 8.285156 34.933594 7.222656 Z M 38.3125 6.722656 C 38.222656 6.160156 37.800781 5.84375 37.179688 5.945312 C 36.550781 6.03125 36.242188 6.453125 36.332031 7.023438 C 36.417969 7.585938 36.839844 7.90625 37.460938 7.804688 C 38.089844 7.707031 38.398438 7.285156 38.3125 6.722656 Z M 38.3125 6.722656 "/>
<path style=" stroke:none;fill-rule:nonzero;fill:rgb(53.333333%,31.372549%,90.196078%);fill-opacity:1;" d="M 4.417969 22.390625 C 4.417969 22.390625 4.9375 20.675781 4.9375 20.675781 C 4.9375 20.675781 2.71875 17.828125 2.71875 17.828125 C 2.71875 17.828125 4.144531 17.613281 4.144531 17.613281 C 4.144531 17.613281 5.351562 19.207031 5.351562 19.207031 C 5.351562 19.207031 5.390625 19.199219 5.390625 19.199219 C 5.390625 19.199219 5.917969 17.351562 5.917969 17.351562 C 5.917969 17.351562 7.316406 17.144531 7.316406 17.144531 C 7.316406 17.144531 5.785156 22.1875 5.785156 22.1875 C 5.785156 22.1875 4.417969 22.390625 4.417969 22.390625 Z M 4.417969 22.390625 "/>
<path style=" stroke:none;fill-rule:nonzero;fill:rgb(53.333333%,31.372549%,90.196078%);fill-opacity:1;" d="M 11.082031 18.484375 C 11.71875 18.414062 12.109375 18.671875 12.167969 19.101562 C 12.242188 19.605469 11.902344 20.070312 10.835938 20.226562 C 10.835938 20.226562 8.207031 20.625 8.207031 20.625 C 8.207031 20.625 7.679688 17.089844 7.679688 17.089844 C 7.679688 17.089844 10.230469 16.710938 10.230469 16.710938 C 11.34375 16.542969 11.847656 16.910156 11.929688 17.441406 C 12 17.902344 11.675781 18.3125 11.082031 18.425781 C 11.082031 18.425781 11.082031 18.484375 11.082031 18.484375 Z M 10.144531 18.367188 C 10.515625 18.3125 10.648438 18.136719 10.609375 17.910156 C 10.574219 17.683594 10.40625 17.554688 10.023438 17.609375 C 10.023438 17.609375 9.078125 17.75 9.078125 17.75 C 9.078125 17.75 9.1875 18.507812 9.1875 18.507812 C 9.1875 18.507812 10.144531 18.367188 10.144531 18.367188 Z M 10.378906 19.421875 C 10.710938 19.371094 10.808594 19.238281 10.785156 19.042969 C 10.753906 18.84375 10.621094 18.75 10.289062 18.800781 C 10.289062 18.800781 9.261719 18.953125 9.261719 18.953125 C 9.261719 18.953125 9.351562 19.574219 9.351562 19.574219 C 9.351562 19.574219 10.378906 19.421875 10.378906 19.421875 Z M 10.378906 19.421875 "/>
<path style=" stroke:none;fill-rule:nonzero;fill:rgb(53.333333%,31.372549%,90.196078%);fill-opacity:1;" d="M 12.664062 19.066406 C 12.566406 18.425781 12.96875 17.949219 14.3125 17.703125 C 15.273438 17.535156 15.375 17.414062 15.359375 17.246094 C 15.335938 17.082031 15.160156 16.949219 14.429688 17.054688 C 13.683594 17.167969 13.023438 17.480469 12.734375 17.695312 C 12.734375 17.695312 12.578125 16.632812 12.578125 16.632812 C 12.855469 16.425781 13.535156 16.105469 14.402344 15.980469 C 15.917969 15.75 16.578125 16.246094 16.699219 17.0625 C 16.699219 17.0625 17.03125 19.296875 17.03125 19.296875 C 17.03125 19.296875 15.703125 19.496094 15.703125 19.496094 C 15.703125 19.496094 15.632812 19.011719 15.632812 19.011719 C 15.632812 19.011719 15.585938 19.015625 15.585938 19.015625 C 15.382812 19.296875 14.851562 19.71875 14.105469 19.828125 C 13.21875 19.96875 12.753906 19.617188 12.664062 19.066406 Z M 15.523438 18.390625 C 15.523438 18.390625 15.4375 17.828125 15.4375 17.828125 C 15.371094 17.894531 15.121094 18.027344 14.675781 18.109375 C 14.128906 18.21875 13.988281 18.402344 14.019531 18.601562 C 14.050781 18.796875 14.207031 18.917969 14.574219 18.859375 C 15.054688 18.789062 15.398438 18.546875 15.523438 18.390625 Z M 15.523438 18.390625 "/>
<path style=" stroke:none;fill-rule:nonzero;fill:rgb(53.333333%,31.372549%,90.196078%);fill-opacity:1;" d="M 17.335938 19.261719 C 17.335938 19.261719 18.742188 17.210938 18.742188 17.210938 C 18.742188 17.210938 16.8125 15.726562 16.8125 15.726562 C 16.8125 15.726562 18.414062 15.488281 18.414062 15.488281 C 18.414062 15.488281 19.964844 16.75 19.964844 16.75 C 19.964844 16.75 19.992188 16.746094 19.992188 16.746094 C 19.992188 16.746094 19.777344 15.277344 19.777344 15.277344 C 19.777344 15.277344 21.105469 15.082031 21.105469 15.082031 C 21.105469 15.082031 21.320312 16.546875 21.320312 16.546875 C 21.320312 16.546875 21.351562 16.542969 21.351562 16.542969 C 21.351562 16.542969 22.464844 14.878906 22.464844 14.878906 C 22.464844 14.878906 24.070312 14.640625 24.070312 14.640625 C 24.070312 14.640625 22.652344 16.621094 22.652344 16.621094 C 22.652344 16.621094 24.597656 18.167969 24.597656 18.167969 C 24.597656 18.167969 22.992188 18.402344 22.992188 18.402344 C 22.992188 18.402344 21.433594 17.074219 21.433594 17.074219 C 21.433594 17.074219 21.40625 17.082031 21.40625 17.082031 C 21.40625 17.082031 21.632812 18.605469 21.632812 18.605469 C 21.632812 18.605469 20.304688 18.804688 20.304688 18.804688 C 20.304688 18.804688 20.074219 17.277344 20.074219 17.277344 C 20.074219 17.277344 20.046875 17.28125 20.046875 17.28125 C 20.046875 17.28125 18.941406 19.015625 18.941406 19.015625 C 18.941406 19.015625 17.335938 19.261719 17.335938 19.261719 Z M 17.335938 19.261719 "/>
<path style=" stroke:none;fill-rule:nonzero;fill:rgb(53.333333%,31.372549%,90.196078%);fill-opacity:1;" d="M 24.292969 16.410156 C 24.132812 15.324219 24.800781 14.433594 26.230469 14.21875 C 27.589844 14.015625 28.5 14.691406 28.667969 15.753906 C 28.667969 15.753906 28.679688 15.863281 28.679688 15.863281 C 28.679688 15.863281 25.695312 16.308594 25.695312 16.308594 C 25.824219 16.722656 26.257812 16.945312 27.09375 16.816406 C 27.644531 16.738281 28.15625 16.457031 28.363281 16.273438 C 28.363281 16.273438 28.519531 17.335938 28.519531 17.335938 C 28.300781 17.519531 27.722656 17.808594 26.996094 17.914062 C 25.359375 18.15625 24.449219 17.460938 24.292969 16.410156 Z M 27.246094 15.621094 C 27.132812 15.238281 26.832031 14.984375 26.359375 15.058594 C 25.886719 15.128906 25.621094 15.449219 25.632812 15.867188 C 25.632812 15.867188 27.246094 15.621094 27.246094 15.621094 Z M 27.246094 15.621094 "/>
<path style=" stroke:none;fill-rule:nonzero;fill:rgb(53.333333%,31.372549%,90.196078%);fill-opacity:1;" d="M 31.867188 13.476562 C 31.867188 13.476562 33.199219 13.277344 33.199219 13.277344 C 33.199219 13.277344 33.734375 16.804688 33.734375 16.804688 C 33.734375 16.804688 32.40625 17.003906 32.40625 17.003906 C 32.40625 17.003906 32.214844 15.703125 32.214844 15.703125 C 32.214844 15.703125 30.699219 15.933594 30.699219 15.933594 C 30.699219 15.933594 30.890625 17.230469 30.890625 17.230469 C 30.890625 17.230469 29.558594 17.429688 29.558594 17.429688 C 29.558594 17.429688 29.035156 13.894531 29.035156 13.894531 C 29.035156 13.894531 30.363281 13.695312 30.363281 13.695312 C 30.363281 13.695312 30.550781 14.9375 30.550781 14.9375 C 30.550781 14.9375 32.070312 14.710938 32.070312 14.710938 C 32.070312 14.710938 31.867188 13.476562 31.867188 13.476562 Z M 31.867188 13.476562 "/>
<path style=" stroke:none;fill-rule:nonzero;fill:rgb(53.333333%,31.372549%,90.196078%);fill-opacity:1;" d="M 34.472656 16.703125 C 34.472656 16.703125 33.945312 13.167969 33.945312 13.167969 C 33.945312 13.167969 35.277344 12.972656 35.277344 12.972656 C 35.277344 12.972656 35.695312 15.808594 35.695312 15.808594 C 35.695312 15.808594 35.722656 15.800781 35.722656 15.800781 C 35.722656 15.800781 36.515625 12.792969 36.515625 12.792969 C 36.515625 12.792969 38.132812 12.546875 38.132812 12.546875 C 38.132812 12.546875 38.65625 16.082031 38.65625 16.082031 C 38.65625 16.082031 37.328125 16.277344 37.328125 16.277344 C 37.328125 16.277344 36.910156 13.441406 36.910156 13.441406 C 36.910156 13.441406 36.882812 13.449219 36.882812 13.449219 C 36.882812 13.449219 36.089844 16.457031 36.089844 16.457031 C 36.089844 16.457031 34.472656 16.703125 34.472656 16.703125 Z M 34.472656 16.703125 "/>
<path style=" stroke:none;fill-rule:nonzero;fill:rgb(53.333333%,31.372549%,90.196078%);fill-opacity:1;" d="M 39.328125 15.980469 C 39.328125 15.980469 40.027344 14.644531 40.027344 14.644531 C 40.027344 14.644531 40.023438 14.617188 40.023438 14.617188 C 39.609375 14.617188 39.015625 14.355469 38.914062 13.675781 C 38.8125 12.996094 39.265625 12.378906 40.347656 12.21875 C 40.347656 12.21875 42.839844 11.851562 42.839844 11.851562 C 42.839844 11.851562 43.363281 15.386719 43.363281 15.386719 C 43.363281 15.386719 42.035156 15.582031 42.035156 15.582031 C 42.035156 15.582031 41.855469 14.402344 41.855469 14.402344 C 41.855469 14.402344 41.445312 14.460938 41.445312 14.460938 C 41.445312 14.460938 40.757812 15.765625 40.757812 15.765625 C 40.757812 15.765625 39.328125 15.980469 39.328125 15.980469 Z M 41.792969 13.949219 C 41.792969 13.949219 41.628906 12.875 41.628906 12.875 C 41.628906 12.875 40.96875 12.976562 40.96875 12.976562 C 40.457031 13.054688 40.28125 13.28125 40.339844 13.625 C 40.390625 13.960938 40.621094 14.128906 41.132812 14.050781 C 41.132812 14.050781 41.792969 13.949219 41.792969 13.949219 Z M 41.792969 13.949219 "/>
<path style="fill:none;stroke-width:8;stroke-linecap:butt;stroke-linejoin:miter;stroke:rgb(53.333333%,31.372549%,90.196078%);stroke-opacity:1;stroke-miterlimit:4;" d="M -17.657266 -30.596754 C -19.738365 -14.68747 -15.212952 19.852962 19.751063 30.596757 " transform="matrix(0.155685,0.0132727,-0.0132727,0.155685,27.948342,27.318136)"/>
</g>
</svg>
