<?xml version="1.0" encoding="UTF-8"?>
<svg xmlns="http://www.w3.org/2000/svg" xmlns:xlink="http://www.w3.org/1999/xlink" width="80px" height="80px" viewBox="0 0 80 80" version="1.1">
<g id="surface1">
<path style=" stroke:none;fill-rule:nonzero;fill:rgb(100%,60%,0%);fill-opacity:1;" d="M 59.472656 19.617188 C 59.472656 19.617188 58.230469 14.875 58.230469 14.875 C 58.230469 14.875 56.414062 17.804688 56.414062 17.804688 C 56.398438 17.824219 56.382812 17.84375 56.367188 17.863281 C 56.367188 17.863281 44.265625 36.613281 44.265625 36.613281 C 44.265625 36.613281 17.503906 17.472656 17.503906 17.472656 C 17.503906 17.472656 14.039062 14.953125 14.039062 14.953125 C 14.039062 14.953125 14.039062 18.011719 14.039062 18.011719 C 14.039062 18.011719 14.039062 21.929688 14.039062 21.929688 C 14.039062 21.929688 14.039062 21.953125 14.039062 21.953125 C 14.039062 21.953125 14.039062 83.765625 14.039062 83.765625 C 14.039062 83.765625 77.882812 83.925781 77.882812 83.925781 C 77.882812 83.925781 59.472656 19.617188 59.472656 19.617188 Z M 59.472656 19.617188 "/>
<path style=" stroke:none;fill-rule:nonzero;fill:rgb(100%,30.588235%,30.588235%);fill-opacity:1;" d="M 31.722656 59.171875 C 31.722656 65.445312 26.78125 70.535156 20.6875 70.535156 C 14.597656 70.535156 9.65625 65.445312 9.65625 59.171875 C 9.65625 52.894531 14.597656 47.804688 20.6875 47.804688 C 26.78125 47.804688 31.722656 52.894531 31.722656 59.171875 Z M 31.722656 59.171875 "/>
<path style=" stroke:none;fill-rule:nonzero;fill:rgb(100%,30.588235%,30.588235%);fill-opacity:1;" d="M 78.050781 59.171875 C 78.050781 65.445312 73.113281 70.535156 67.019531 70.535156 C 60.925781 70.535156 55.988281 65.445312 55.988281 59.171875 C 55.988281 52.894531 60.925781 47.804688 67.019531 47.804688 C 73.113281 47.804688 78.050781 52.894531 78.050781 59.171875 Z M 78.050781 59.171875 "/>
<path style="fill:none;stroke-width:10.694;stroke-linecap:butt;stroke-linejoin:miter;stroke:rgb(0%,0%,0%);stroke-opacity:1;stroke-miterlimit:10;" d="M -26.679638 -8.205799 C -20.411952 1.796292 -10.794734 8.201572 -0.0102548 8.201572 C 10.7996 8.201572 20.416818 1.796292 26.684503 -8.205799 " transform="matrix(0.153939,0,0,0.158561,44.591422,65.918304)"/>
<path style="fill:none;stroke-width:15.468;stroke-linecap:butt;stroke-linejoin:miter;stroke:rgb(0%,0%,0%);stroke-opacity:1;stroke-miterlimit:10;" d="M -63.053868 75.496576 C -63.053868 75.496576 -63.053868 -12.42821 -63.053868 -12.42821 C -63.053868 -47.263079 -34.836595 -75.495583 0.00361673 -75.495583 C 34.818453 -75.495583 63.061102 -47.263079 63.061102 -12.42821 C 63.061102 -12.42821 63.061102 75.496576 63.061102 75.496576 " transform="matrix(0.153939,0,0,0.158561,44.546318,70.548749)"/>
<path style="fill:none;stroke-width:10.694;stroke-linecap:butt;stroke-linejoin:miter;stroke:rgb(0%,0%,0%);stroke-opacity:1;stroke-miterlimit:10;" d="M 40.438647 7.393482 C 29.197414 -1.869539 15.012651 -7.41257 -0.364747 -7.41257 C -15.437643 -7.41257 -29.317902 -2.115896 -40.457635 6.802225 " transform="matrix(0.153939,0,0,0.158561,56.497555,47.101123)"/>
<path style="fill:none;stroke-width:10.694;stroke-linecap:butt;stroke-linejoin:miter;stroke:rgb(0%,0%,0%);stroke-opacity:1;stroke-miterlimit:10;" d="M 40.443802 7.393482 C 29.202569 -1.869539 15.017807 -7.41257 -0.384967 -7.41257 C -15.432488 -7.41257 -29.312747 -2.115896 -40.45248 6.802225 " transform="matrix(0.153939,0,0,0.158561,31.410824,47.101123)"/>
<path style=" stroke:none;fill-rule:nonzero;fill:rgb(50.588235%,29.411765%,84.705882%);fill-opacity:1;" d="M 14.765625 15.0625 C 14.117188 18.082031 10.921875 19.898438 7.621094 19.136719 C 4.324219 18.371094 2.222656 15.324219 2.871094 12.300781 C 3.519531 9.28125 6.714844 7.464844 10.015625 8.226562 C 13.316406 8.992188 15.453125 12.0625 14.765625 15.0625 Z M 14.765625 15.0625 "/>
<path style=" stroke:none;fill-rule:nonzero;fill:rgb(50.588235%,29.411765%,85.098039%);fill-opacity:1;" d="M 14.597656 16.472656 C 11.664062 15.804688 10.070312 11.695312 11.027344 7.394531 C 12.003906 3.054688 15.109375 0.113281 18.042969 0.78125 C 20.976562 1.449219 22.570312 5.558594 21.617188 9.859375 C 20.679688 14.222656 17.53125 17.140625 14.597656 16.472656 Z M 14.597656 16.472656 "/>
<path style=" stroke:none;fill-rule:nonzero;fill:rgb(63.137255%,45.882353%,91.764706%);fill-opacity:1;" d="M 15.558594 2.832031 C 13.871094 3.664062 13.167969 5.796875 13.996094 7.492188 C 14.804688 9.230469 16.875 9.953125 18.519531 9.101562 C 20.207031 8.269531 20.890625 6.179688 20.082031 4.441406 C 19.273438 2.703125 17.246094 2 15.558594 2.832031 Z M 15.558594 2.832031 "/>
<path style="fill:none;stroke-width:4.658;stroke-linecap:butt;stroke-linejoin:miter;stroke:rgb(74.117647%,86.27451%,91.764706%);stroke-opacity:1;stroke-miterlimit:10;" d="M -15.507216 20.390761 C -15.507216 20.390761 2.064442 9.044776 2.064442 9.044776 C 10.662704 3.471478 15.521704 -6.460139 14.446892 -16.789025 C 14.446892 -16.789025 14.27551 -20.389091 14.27551 -20.389091 " transform="matrix(0.143778,-0.0566544,0.0550033,0.148094,21.529906,9.933736)"/>
<path style=" stroke:none;fill-rule:nonzero;fill:rgb(74.117647%,86.27451%,91.764706%);fill-opacity:1;" d="M 20.4375 16.539062 C 20.4375 16.539062 10.964844 22.257812 10.964844 22.257812 C 10.105469 22.777344 9.003906 22.480469 8.5 21.59375 C 7.996094 20.710938 8.285156 19.574219 9.144531 19.054688 C 9.144531 19.054688 18.613281 13.335938 18.613281 13.335938 C 19.472656 12.816406 20.578125 13.113281 21.082031 14 C 21.582031 14.882812 21.296875 16.019531 20.4375 16.539062 Z M 20.4375 16.539062 "/>
<path style=" stroke:none;fill-rule:nonzero;fill:rgb(53.72549%,31.372549%,90.196078%);fill-opacity:1;" d="M 13.847656 15.703125 C 13.199219 18.722656 10.003906 20.539062 6.703125 19.777344 C 3.402344 19.011719 1.304688 15.960938 1.953125 12.941406 C 2.601562 9.921875 5.796875 8.105469 9.09375 8.867188 C 12.394531 9.632812 14.535156 12.703125 13.847656 15.703125 Z M 13.847656 15.703125 "/>
<path style=" stroke:none;fill-rule:nonzero;fill:rgb(53.72549%,31.372549%,90.196078%);fill-opacity:1;" d="M 13.679688 17.113281 C 10.746094 16.445312 9.152344 12.335938 10.105469 8.035156 C 11.082031 3.695312 14.191406 0.753906 17.125 1.421875 C 20.054688 2.089844 21.652344 6.199219 20.695312 10.5 C 19.757812 14.863281 16.613281 17.78125 13.679688 17.113281 Z M 13.679688 17.113281 "/>
<path style=" stroke:none;fill-rule:nonzero;fill:rgb(68.235294%,49.411765%,98.823529%);fill-opacity:1;" d="M 14.636719 3.472656 C 12.949219 4.304688 12.25 6.4375 13.078125 8.132812 C 13.886719 9.871094 15.953125 10.59375 17.601562 9.742188 C 19.289062 8.910156 19.96875 6.820312 19.164062 5.082031 C 18.355469 3.34375 16.324219 2.640625 14.636719 3.472656 Z M 14.636719 3.472656 "/>
</g>
</svg>
