<?xml version="1.0" encoding="UTF-8"?>
<svg xmlns="http://www.w3.org/2000/svg" xmlns:xlink="http://www.w3.org/1999/xlink" width="80px" height="80px" viewBox="0 0 80 80" version="1.1">
<g id="surface1">
<path style=" stroke:none;fill-rule:nonzero;fill:rgb(100%,60%,0%);fill-opacity:1;" d="M 79.410156 82.675781 C 79.410156 82.675781 72.085938 59.363281 69.984375 47.449219 C 67.886719 35.535156 65.816406 9.730469 65.816406 9.730469 C 65.816406 9.730469 39.527344 31.472656 39.527344 31.472656 C 39.527344 31.472656 14.769531 7.929688 14.769531 7.929688 C 14.769531 7.929688 4.648438 38.964844 4.484375 50.226562 C 4.324219 61.488281 5.878906 82.128906 5.878906 82.128906 C 5.878906 82.128906 79.410156 82.675781 79.410156 82.675781 Z M 79.410156 82.675781 "/>
<path style=" stroke:none;fill-rule:nonzero;fill:rgb(100%,100%,100%);fill-opacity:1;" d="M 33.871094 49 C 34.148438 55.621094 29.007812 61.210938 22.386719 61.484375 C 15.769531 61.761719 10.179688 56.621094 9.902344 50.003906 C 9.628906 43.386719 14.769531 37.796875 21.386719 37.519531 C 28.003906 37.242188 33.59375 42.382812 33.871094 49 Z M 33.871094 49 "/>
<path style=" stroke:none;fill-rule:nonzero;fill:rgb(100%,100%,100%);fill-opacity:1;" d="M 63.265625 47.773438 C 63.542969 54.390625 58.402344 59.980469 51.785156 60.257812 C 45.164062 60.53125 39.578125 55.394531 39.300781 48.773438 C 39.023438 42.15625 44.164062 36.566406 50.78125 36.289062 C 57.398438 36.011719 62.988281 41.152344 63.265625 47.773438 Z M 63.265625 47.773438 "/>
<path style="fill:none;stroke-width:13.381;stroke-linecap:butt;stroke-linejoin:miter;stroke:rgb(0%,0%,0%);stroke-opacity:1;stroke-miterlimit:10;" d="M -43.942657 51.352574 C -57.123704 39.650496 -64.340276 23.039969 -64.335247 3.996506 C -64.343178 -31.239393 -35.765907 -59.453898 -0.515952 -59.80213 C 36.298181 -60.177212 64.325661 -35.224342 63.30412 4.001422 C 62.359811 39.243719 33.850278 60.181941 -1.038791 55.315448 C -27.062238 51.692285 -44.628987 31.232967 -42.236172 2.186377 C -40.307063 -21.47098 -24.239196 -39.805263 -0.528287 -38.971416 C 24.79403 -38.100112 43.59224 -21.08605 41.597489 2.751508 C 39.777173 24.580077 24.669761 38.381221 0.725581 33.230985 C -15.962695 29.648359 -23.509092 15.688909 -22.290646 4.003745 C -21.032352 -7.941671 -12.529187 -17.75041 -0.523191 -17.757529 C 11.498549 -17.743212 21.434215 -9.696242 20.494786 2.278972 C 19.521201 14.47726 4.596644 18.013764 -0.700745 9.992088 " transform="matrix(-0.0869408,0.118379,-0.118379,-0.0869408,21.559429,48.604018)"/>
<path style="fill:none;stroke-width:13.381;stroke-linecap:butt;stroke-linejoin:miter;stroke:rgb(0%,0%,0%);stroke-opacity:1;stroke-miterlimit:10;" d="M -43.942282 51.360892 C -57.123329 39.658814 -64.355644 23.026851 -64.334872 4.004824 C -64.342803 -31.231076 -35.765532 -59.44558 -0.53132 -59.815248 C 36.298557 -60.168895 64.347472 -35.231768 63.304495 4.00974 C 62.360186 39.252037 33.872089 60.174516 -1.038416 55.323766 C -27.061863 51.700603 -44.628612 31.241284 -42.235796 2.194695 C -40.306688 -21.462662 -24.254564 -39.818381 -0.506476 -38.978841 C 24.815841 -38.107537 43.576872 -21.099168 41.597864 2.759825 C 39.761805 24.566959 24.654393 38.368103 0.725956 33.239303 C -15.940884 29.640933 -23.508717 15.697227 -22.290271 4.012063 C -21.031977 -7.933353 -12.544555 -17.763528 -0.522815 -17.749211 C 11.504616 -17.772073 21.456026 -9.703667 20.495161 2.28729 C 19.521576 14.485577 4.597019 18.022082 -0.700369 10.000406 " transform="matrix(-0.0869408,0.118379,-0.118379,-0.0869408,50.954977,47.374228)"/>
<path style="fill:none;stroke-width:13.381;stroke-linecap:butt;stroke-linejoin:miter;stroke:rgb(0%,0%,0%);stroke-opacity:1;stroke-miterlimit:10;" d="M 39.479747 5.26645 C 46.087266 0.0327474 47.146336 -10.01155 58.16625 -10.003043 C 73.100103 -10.017127 62.771201 15.451049 79.680312 15.306651 C 110.209104 14.747142 96.719397 -7.032563 116.352244 -7.38244 C 130.870942 -7.653462 127.008699 14.039163 144.013092 13.526085 C 161.016373 13.03958 159.077026 -9.321666 175.58633 -8.817315 C 187.044636 -8.47104 190.67667 2.062323 196.8781 8.444139 " transform="matrix(0.146747,-0.0061393,0.0061393,0.146747,21.654616,68.778138)"/>
</g>
</svg>
