<?xml version="1.0" encoding="UTF-8"?>
<svg xmlns="http://www.w3.org/2000/svg" xmlns:xlink="http://www.w3.org/1999/xlink" width="80px" height="80px" viewBox="0 0 80 80" version="1.1">
<g id="surface1">
<path style=" stroke:none;fill-rule:nonzero;fill:rgb(73.72549%,86.27451%,91.764706%);fill-opacity:1;" d="M 70.726562 36.285156 C 70.726562 36.285156 8.335938 44.425781 8.335938 44.425781 C 8.335938 44.425781 10.113281 58.058594 10.113281 58.058594 C 10.113281 58.058594 72.503906 49.921875 72.503906 49.921875 C 72.503906 49.921875 70.726562 36.285156 70.726562 36.285156 Z M 70.726562 36.285156 "/>
<path style=" stroke:none;fill-rule:nonzero;fill:rgb(73.72549%,86.27451%,91.764706%);fill-opacity:1;" d="M 65.320312 24.601562 C 65.320312 24.601562 12.445312 31.5 12.445312 31.5 C 12.445312 31.5 14.222656 45.136719 14.222656 45.136719 C 14.222656 45.136719 67.097656 38.238281 67.097656 38.238281 C 67.097656 38.238281 65.320312 24.601562 65.320312 24.601562 Z M 65.320312 24.601562 "/>
<path style=" stroke:none;fill-rule:nonzero;fill:rgb(0%,0%,0%);fill-opacity:1;" d="M 18.191406 51.824219 C 18.410156 51.410156 18.585938 50.773438 18.699219 49.9375 C 18.8125 49.082031 18.832031 48.164062 18.726562 47.164062 C 18.726562 47.164062 18.460938 44.65625 18.460938 44.65625 C 18.460938 44.65625 25.421875 43.710938 25.421875 43.710938 C 25.421875 43.710938 26.390625 50.847656 26.390625 50.847656 C 26.390625 50.847656 24.195312 51.144531 24.195312 51.144531 C 24.195312 51.144531 23.464844 45.84375 23.464844 45.84375 C 23.464844 45.84375 20.8125 46.207031 20.8125 46.207031 C 20.8125 46.207031 20.894531 46.867188 20.894531 46.867188 C 21.015625 47.894531 21.015625 48.84375 20.902344 49.710938 C 20.804688 50.574219 20.648438 51.222656 20.445312 51.667969 C 20.445312 51.667969 18.1875 51.972656 18.1875 51.972656 C 18.1875 51.972656 18.191406 51.824219 18.191406 51.824219 Z M 36.695312 49.453125 C 36.695312 49.453125 34.246094 49.789062 34.246094 49.789062 C 34.246094 49.789062 33.375 48.417969 33.375 48.417969 C 33.375 48.417969 29.929688 48.890625 29.929688 48.890625 C 29.929688 48.890625 29.457031 50.433594 29.457031 50.433594 C 29.457031 50.433594 27.007812 50.769531 27.007812 50.769531 C 27.007812 50.769531 29.433594 43.167969 29.433594 43.167969 C 29.433594 43.167969 32.304688 42.769531 32.304688 42.769531 C 32.304688 42.769531 36.695312 49.453125 36.695312 49.453125 Z M 31.101562 45.007812 C 31.101562 45.007812 30.28125 47.691406 30.28125 47.691406 C 30.28125 47.691406 32.699219 47.359375 32.699219 47.359375 C 32.699219 47.359375 31.1875 45.003906 31.1875 45.003906 C 31.1875 45.003906 31.101562 45.007812 31.101562 45.007812 Z M 39.492188 49.0625 C 39.492188 49.0625 37.292969 49.363281 37.292969 49.363281 C 37.292969 49.363281 36.320312 42.230469 36.320312 42.230469 C 36.320312 42.230469 44.351562 41.128906 44.351562 41.128906 C 44.351562 41.128906 45.324219 48.265625 45.324219 48.265625 C 45.324219 48.265625 43.125 48.566406 43.125 48.566406 C 43.125 48.566406 42.394531 43.261719 42.394531 43.261719 C 42.394531 43.261719 38.761719 43.761719 38.761719 43.761719 C 38.761719 43.761719 39.492188 49.0625 39.492188 49.0625 Z M 48.941406 47.765625 C 48.941406 47.765625 46.746094 48.066406 46.746094 48.066406 C 46.746094 48.066406 45.773438 40.933594 45.773438 40.933594 C 45.773438 40.933594 47.96875 40.632812 47.96875 40.632812 C 47.96875 40.632812 48.375 43.636719 48.375 43.636719 C 48.375 43.636719 48.421875 43.632812 48.421875 43.632812 C 48.421875 43.632812 51.398438 40.164062 51.398438 40.164062 C 51.398438 40.164062 54.195312 39.789062 54.195312 39.789062 C 54.195312 39.789062 50.824219 43.730469 50.824219 43.730469 C 50.824219 43.730469 50.828125 43.773438 50.828125 43.773438 C 50.828125 43.773438 54.875 46.960938 54.875 46.960938 C 54.875 46.960938 52.121094 47.332031 52.121094 47.332031 C 52.121094 47.332031 48.546875 44.511719 48.546875 44.511719 C 48.546875 44.511719 48.503906 44.515625 48.503906 44.515625 C 48.503906 44.515625 48.941406 47.765625 48.941406 47.765625 Z M 58.304688 46.492188 C 58.304688 46.492188 55.578125 46.863281 55.578125 46.863281 C 55.578125 46.863281 54.605469 39.726562 54.605469 39.726562 C 54.605469 39.726562 56.804688 39.425781 56.804688 39.425781 C 56.804688 39.425781 57.433594 43.96875 57.433594 43.96875 C 57.433594 43.96875 57.476562 43.964844 57.476562 43.964844 C 57.476562 43.964844 59.707031 39.027344 59.707031 39.027344 C 59.707031 39.027344 62.429688 38.65625 62.429688 38.65625 C 62.429688 38.65625 63.402344 45.792969 63.402344 45.792969 C 63.402344 45.792969 61.207031 46.09375 61.207031 46.09375 C 61.207031 46.09375 60.578125 41.550781 60.578125 41.550781 C 60.578125 41.550781 60.535156 41.554688 60.535156 41.554688 C 60.535156 41.554688 58.304688 46.492188 58.304688 46.492188 Z M 58.304688 46.492188 "/>
<path style=" stroke:none;fill-rule:nonzero;fill:rgb(0%,0%,0%);fill-opacity:1;" d="M 20.621094 34.914062 C 20.621094 34.914062 22.066406 34.710938 22.066406 34.710938 C 22.066406 34.710938 20.917969 38.027344 20.917969 38.027344 C 20.753906 38.492188 20.519531 38.875 20.226562 39.152344 C 19.929688 39.4375 19.535156 39.613281 19.042969 39.679688 C 18.691406 39.722656 18.367188 39.738281 18.039062 39.710938 C 18.039062 39.710938 17.929688 38.914062 17.929688 38.914062 C 18.09375 38.917969 18.210938 38.917969 18.300781 38.910156 C 18.390625 38.902344 18.492188 38.894531 18.589844 38.878906 C 18.722656 38.859375 18.839844 38.832031 18.953125 38.789062 C 19.070312 38.742188 19.15625 38.691406 19.222656 38.628906 C 19.222656 38.628906 16.800781 35.433594 16.800781 35.433594 C 16.800781 35.433594 18.351562 35.222656 18.351562 35.222656 C 18.351562 35.222656 19.847656 37.195312 19.847656 37.195312 C 19.847656 37.195312 19.902344 37.191406 19.902344 37.191406 C 19.902344 37.191406 20.621094 34.914062 20.621094 34.914062 Z M 29.027344 35.097656 C 29.027344 35.097656 27.59375 38.625 27.59375 38.625 C 27.59375 38.625 25.246094 35.617188 25.246094 35.617188 C 25.246094 35.617188 25.222656 35.617188 25.222656 35.617188 C 25.222656 35.617188 25.636719 38.667969 25.636719 38.667969 C 25.636719 38.667969 24.292969 38.855469 24.292969 38.855469 C 24.292969 38.855469 23.691406 34.484375 23.691406 34.484375 C 23.691406 34.484375 25.636719 34.214844 25.636719 34.214844 C 25.636719 34.214844 27.296875 36.4375 27.296875 36.4375 C 27.296875 36.4375 27.324219 36.433594 27.324219 36.433594 C 27.324219 36.433594 28.304688 33.847656 28.304688 33.847656 C 28.304688 33.847656 30.214844 33.582031 30.214844 33.582031 C 30.214844 33.582031 30.816406 37.949219 30.816406 37.949219 C 30.816406 37.949219 29.46875 38.136719 29.46875 38.136719 C 29.46875 38.136719 29.050781 35.085938 29.050781 35.085938 C 29.050781 35.085938 29.027344 35.097656 29.027344 35.097656 Z M 32.78125 35.8125 C 32.78125 35.8125 32.890625 36.621094 32.890625 36.621094 C 32.890625 36.621094 35.527344 36.253906 35.527344 36.253906 C 35.527344 36.253906 35.671875 37.285156 35.671875 37.285156 C 35.671875 37.285156 31.695312 37.835938 31.695312 37.835938 C 31.695312 37.835938 31.09375 33.46875 31.09375 33.46875 C 31.09375 33.46875 34.945312 32.933594 34.945312 32.933594 C 34.945312 32.933594 35.085938 33.964844 35.085938 33.964844 C 35.085938 33.964844 32.574219 34.3125 32.574219 34.3125 C 32.574219 34.3125 32.683594 35.121094 32.683594 35.121094 C 32.683594 35.121094 34.945312 34.808594 34.945312 34.808594 C 34.945312 34.808594 35.042969 35.5 35.042969 35.5 C 35.042969 35.5 32.78125 35.8125 32.78125 35.8125 Z M 39.601562 33.941406 C 39.601562 33.941406 39.378906 32.316406 39.378906 32.316406 C 39.378906 32.316406 40.722656 32.132812 40.722656 32.132812 C 40.722656 32.132812 41.324219 36.503906 41.324219 36.503906 C 41.324219 36.503906 39.976562 36.6875 39.976562 36.6875 C 39.976562 36.6875 39.753906 35.0625 39.753906 35.0625 C 39.753906 35.0625 37.472656 35.375 37.472656 35.375 C 37.472656 35.375 37.699219 37 37.699219 37 C 37.699219 37 36.351562 37.1875 36.351562 37.1875 C 36.351562 37.1875 35.75 32.816406 35.75 32.816406 C 35.75 32.816406 37.097656 32.628906 37.097656 32.628906 C 37.097656 32.628906 37.324219 34.253906 37.324219 34.253906 C 37.324219 34.253906 39.601562 33.941406 39.601562 33.941406 Z M 46.179688 31.382812 C 46.179688 31.382812 46.78125 35.753906 46.78125 35.753906 C 46.78125 35.753906 45.433594 35.9375 45.433594 35.9375 C 45.433594 35.9375 45.234375 34.511719 45.234375 34.511719 C 45.234375 34.511719 44.40625 34.628906 44.40625 34.628906 C 44.40625 34.628906 43.675781 36.183594 43.675781 36.183594 C 43.675781 36.183594 42.160156 36.390625 42.160156 36.390625 C 42.160156 36.390625 42.964844 34.722656 42.964844 34.722656 C 42.847656 34.714844 42.6875 34.683594 42.492188 34.617188 C 42.296875 34.550781 42.117188 34.425781 41.929688 34.25 C 41.742188 34.074219 41.632812 33.828125 41.59375 33.535156 C 41.554688 33.246094 41.585938 32.972656 41.703125 32.726562 C 41.820312 32.480469 42.011719 32.277344 42.28125 32.101562 C 42.558594 31.933594 42.902344 31.816406 43.324219 31.757812 C 43.324219 31.757812 46.179688 31.382812 46.179688 31.382812 Z M 45.152344 33.828125 C 45.152344 33.828125 44.984375 32.601562 44.984375 32.601562 C 44.984375 32.601562 43.757812 32.765625 43.757812 32.765625 C 43.496094 32.804688 43.3125 32.882812 43.1875 33.019531 C 43.058594 33.148438 43.015625 33.304688 43.042969 33.492188 C 43.066406 33.683594 43.15625 33.820312 43.308594 33.917969 C 43.460938 34.015625 43.664062 34.042969 43.925781 34.007812 C 43.925781 34.007812 45.152344 33.828125 45.152344 33.828125 Z M 50.523438 35.238281 C 50.523438 35.238281 48.878906 35.464844 48.878906 35.464844 C 48.878906 35.464844 50.492188 32.953125 50.492188 32.953125 C 50.492188 32.953125 50.488281 32.925781 50.488281 32.925781 C 50.488281 32.925781 48.117188 31.125 48.117188 31.125 C 48.117188 31.125 49.796875 30.894531 49.796875 30.894531 C 49.796875 30.894531 51.863281 32.503906 51.863281 32.503906 C 51.863281 32.503906 51.917969 32.5 51.917969 32.5 C 51.917969 32.5 51.664062 30.640625 51.664062 30.640625 C 51.664062 30.640625 53.007812 30.453125 53.007812 30.453125 C 53.007812 30.453125 53.261719 32.3125 53.261719 32.3125 C 53.261719 32.3125 53.316406 32.308594 53.316406 32.308594 C 53.316406 32.308594 54.867188 30.191406 54.867188 30.191406 C 54.867188 30.191406 56.542969 29.964844 56.542969 29.964844 C 56.542969 29.964844 54.75 32.34375 54.75 32.34375 C 54.75 32.34375 54.753906 32.371094 54.753906 32.371094 C 54.753906 32.371094 56.984375 34.355469 56.984375 34.355469 C 56.984375 34.355469 55.34375 34.582031 55.34375 34.582031 C 55.34375 34.582031 53.394531 32.847656 53.394531 32.847656 C 53.394531 32.847656 53.347656 32.851562 53.347656 32.851562 C 53.347656 32.851562 53.617188 34.816406 53.617188 34.816406 C 53.617188 34.816406 52.273438 35 52.273438 35 C 52.273438 35 52.003906 33.035156 52.003906 33.035156 C 52.003906 33.035156 51.957031 33.039062 51.957031 33.039062 C 51.957031 33.039062 50.523438 35.238281 50.523438 35.238281 Z M 58.445312 32.265625 C 58.445312 32.265625 58.554688 33.074219 58.554688 33.074219 C 58.554688 33.074219 61.191406 32.707031 61.191406 32.707031 C 61.191406 32.707031 61.335938 33.738281 61.335938 33.738281 C 61.335938 33.738281 57.359375 34.289062 57.359375 34.289062 C 57.359375 34.289062 56.757812 29.917969 56.757812 29.917969 C 56.757812 29.917969 60.609375 29.386719 60.609375 29.386719 C 60.609375 29.386719 60.75 30.417969 60.75 30.417969 C 60.75 30.417969 58.238281 30.765625 58.238281 30.765625 C 58.238281 30.765625 58.347656 31.574219 58.347656 31.574219 C 58.347656 31.574219 60.609375 31.261719 60.609375 31.261719 C 60.609375 31.261719 60.707031 31.953125 60.707031 31.953125 C 60.707031 31.953125 58.445312 32.265625 58.445312 32.265625 Z M 58.445312 32.265625 "/>
<path style=" stroke:none;fill-rule:nonzero;fill:rgb(100%,62.352941%,0%);fill-opacity:1;" d="M 27.402344 60.292969 C 27.402344 60.292969 26.160156 56.882812 26.160156 56.882812 C 26.160156 56.882812 10.871094 86.757812 10.871094 86.757812 C 10.871094 86.757812 20.707031 86.757812 20.707031 86.757812 C 20.707031 86.757812 35.25 57.8125 35.25 57.8125 C 35.25 57.8125 31.292969 60.292969 31.292969 60.292969 C 31.292969 60.292969 30.554688 56.882812 30.554688 56.882812 C 30.554688 56.882812 27.402344 60.292969 27.402344 60.292969 Z M 27.402344 60.292969 "/>
<path style=" stroke:none;fill-rule:nonzero;fill:rgb(100%,62.352941%,0%);fill-opacity:1;" d="M 49.152344 58.925781 C 49.152344 58.925781 47.652344 55.523438 47.652344 55.523438 C 47.652344 55.523438 39.21875 90.359375 39.21875 90.359375 C 39.21875 90.359375 49.085938 90.320312 49.085938 90.320312 C 49.085938 90.320312 55.039062 56.367188 55.039062 56.367188 C 55.039062 56.367188 52.378906 58.914062 52.378906 58.914062 C 52.378906 58.914062 51.496094 55.507812 51.496094 55.507812 C 51.496094 55.507812 49.152344 58.925781 49.152344 58.925781 Z M 49.152344 58.925781 "/>
</g>
</svg>
