<?xml version="1.0" encoding="UTF-8"?>
<svg xmlns="http://www.w3.org/2000/svg" xmlns:xlink="http://www.w3.org/1999/xlink" width="80px" height="80px" viewBox="0 0 80 80" version="1.1">
<g id="surface1">
<path style=" stroke:none;fill-rule:nonzero;fill:rgb(100%,60%,0%);fill-opacity:1;" d="M 55.972656 27.511719 C 55.972656 27.511719 54.300781 30.09375 54.300781 30.09375 C 54.285156 30.109375 43.144531 46.660156 43.144531 46.660156 C 43.144531 46.660156 15.378906 27.589844 15.378906 27.589844 C 15.378906 27.589844 15.378906 58.382812 15.378906 58.382812 C 15.378906 58.382812 15.378906 80.570312 15.378906 80.570312 C 15.378906 80.570312 70.894531 80.570312 70.894531 80.570312 C 70.894531 80.570312 64.652344 58.433594 64.652344 58.433594 C 64.652344 58.433594 55.972656 27.511719 55.972656 27.511719 Z M 55.972656 27.511719 "/>
<path style=" stroke:none;fill-rule:nonzero;fill:rgb(100%,100%,100%);fill-opacity:1;" d="M 21.628906 61.21875 C 24.113281 70.679688 32.816406 77.664062 43.144531 77.664062 C 53.488281 77.664062 62.175781 70.679688 64.660156 61.21875 C 64.660156 61.21875 21.628906 61.21875 21.628906 61.21875 Z M 21.628906 61.21875 "/>
<path style="fill:none;stroke-width:8;stroke-linecap:butt;stroke-linejoin:miter;stroke:rgb(0%,0%,0%);stroke-opacity:1;stroke-miterlimit:10;" d="M 43.999976 17.852621 C 38.899976 -2.746719 21.199976 -17.861326 -0.0000244141 -17.861326 C -21.200024 -17.861326 -38.900024 -2.645618 -44.000024 17.852621 " transform="matrix(0.15625,0,0,0.154548,53.031254,54.041688)"/>
<path style="fill:none;stroke-width:8;stroke-linecap:butt;stroke-linejoin:miter;stroke:rgb(0%,0%,0%);stroke-opacity:1;stroke-miterlimit:10;" d="M 43.999985 17.852621 C 38.899985 -2.746719 21.199985 -17.861326 -0.0000152588 -17.861326 C -21.200015 -17.861326 -38.900015 -2.645618 -44.000015 17.852621 " transform="matrix(0.15625,0,0,0.154548,30.703127,54.041688)"/>
<path style=" stroke:none;fill-rule:nonzero;fill:rgb(73.72549%,86.27451%,91.764706%);fill-opacity:1;" d="M 11.222656 70.160156 C 11.222656 70.160156 15.375 60.675781 15.375 60.675781 C 15.660156 60.050781 15.105469 59.363281 14.433594 59.480469 C 14.433594 59.480469 6.863281 60.976562 4.351562 61.484375 C 3.785156 61.929688 3.308594 62.484375 2.949219 63.125 C 2.589844 63.753906 2.367188 64.457031 2.277344 65.171875 C 2.1875 65.890625 2.246094 66.621094 2.457031 67.324219 C 2.648438 68.027344 2.976562 68.667969 3.441406 69.25 C 3.890625 69.820312 4.441406 70.296875 5.085938 70.65625 C 5.710938 71.011719 6.414062 71.238281 7.128906 71.328125 C 7.847656 71.417969 8.578125 71.355469 9.28125 71.148438 C 10 70.953125 10.65625 70.625 11.222656 70.160156 Z M 11.222656 70.160156 "/>
<path style=" stroke:none;fill-rule:nonzero;fill:rgb(73.72549%,86.27451%,91.764706%);fill-opacity:1;" d="M 7.371094 53.863281 C 7.371094 53.863281 14.855469 52.128906 14.855469 52.128906 C 15.363281 52.011719 15.527344 51.382812 15.140625 51.039062 C 15.140625 51.039062 9.476562 45.933594 9.476562 45.933594 C 8.957031 45.796875 8.402344 45.753906 7.878906 45.828125 C 7.355469 45.902344 6.835938 46.082031 6.355469 46.351562 C 5.894531 46.632812 5.476562 46.976562 5.148438 47.410156 C 4.816406 47.84375 4.578125 48.335938 4.445312 48.84375 C 4.308594 49.367188 4.265625 49.921875 4.339844 50.441406 C 4.414062 50.964844 4.59375 51.488281 4.863281 51.964844 C 5.148438 52.429688 5.488281 52.847656 5.921875 53.175781 C 6.355469 53.488281 6.835938 53.730469 7.371094 53.863281 Z M 7.371094 53.863281 "/>
<path style=" stroke:none;fill-rule:nonzero;fill:rgb(73.72549%,86.27451%,91.764706%);fill-opacity:1;" d="M 73.621094 66.605469 C 73.621094 66.605469 68.800781 60.125 68.800781 60.125 C 68.476562 59.699219 68.773438 59.078125 69.304688 59.054688 C 69.304688 59.054688 75.324219 58.859375 77.320312 58.804688 C 77.832031 59.046875 78.292969 59.382812 78.675781 59.808594 C 79.058594 60.222656 79.351562 60.714844 79.546875 61.246094 C 79.742188 61.773438 79.824219 62.339844 79.789062 62.910156 C 79.761719 63.480469 79.625 64.023438 79.375 64.546875 C 79.136719 65.058594 78.800781 65.519531 78.375 65.90625 C 77.960938 66.285156 77.464844 66.582031 76.9375 66.773438 C 76.40625 66.96875 75.839844 67.050781 75.269531 67.015625 C 74.691406 66.992188 74.132812 66.859375 73.621094 66.605469 Z M 73.621094 66.605469 "/>
<path style=" stroke:none;fill-rule:nonzero;fill:rgb(73.72549%,86.27451%,91.764706%);fill-opacity:1;" d="M 75.824219 48.015625 C 75.824219 48.015625 69.832031 48.011719 69.832031 48.011719 C 69.425781 48.007812 69.191406 47.558594 69.425781 47.230469 C 69.425781 47.230469 72.832031 42.355469 72.832031 42.355469 C 73.207031 42.160156 73.617188 42.03125 74.027344 41.996094 C 74.441406 41.960938 74.867188 42.003906 75.277344 42.125 C 75.679688 42.257812 76.058594 42.445312 76.382812 42.71875 C 76.710938 42.992188 76.976562 43.324219 77.167969 43.683594 C 77.363281 44.058594 77.496094 44.472656 77.53125 44.882812 C 77.566406 45.292969 77.519531 45.722656 77.398438 46.132812 C 77.265625 46.535156 77.078125 46.910156 76.804688 47.238281 C 76.53125 47.550781 76.210938 47.816406 75.824219 48.015625 Z M 75.824219 48.015625 "/>
</g>
</svg>
