<?xml version="1.0" encoding="UTF-8"?>
<svg xmlns="http://www.w3.org/2000/svg" xmlns:xlink="http://www.w3.org/1999/xlink" width="16px" height="16px" viewBox="0 0 16 16" version="1.1">
<defs>
<linearGradient id="linear0" gradientUnits="userSpaceOnUse" x1="-487.5" y1="-304.75" x2="-487.5" y2="-380.95" gradientTransform="matrix(0.00000000000000002,-0.333333,0.333333,0.00000000000000002,123.5,-154.5)">
<stop offset="0" style="stop-color:rgb(15.294118%,91.372549%,87.058824%);stop-opacity:1;"/>
<stop offset="0.52" style="stop-color:rgb(1.176471%,64.313725%,92.54902%);stop-opacity:1;"/>
<stop offset="1" style="stop-color:rgb(14.509804%,27.843137%,65.882353%);stop-opacity:1;"/>
</linearGradient>
<linearGradient id="linear1" gradientUnits="userSpaceOnUse" x1="-487.5" y1="-322.12" x2="-487.5" y2="-373.07" gradientTransform="matrix(0.00000000000000002,-0.333333,0.333333,0.00000000000000002,123.5,-154.5)">
<stop offset="0" style="stop-color:rgb(15.294118%,91.372549%,87.058824%);stop-opacity:1;"/>
<stop offset="0.52" style="stop-color:rgb(1.176471%,64.313725%,92.54902%);stop-opacity:1;"/>
<stop offset="1" style="stop-color:rgb(14.509804%,27.843137%,65.882353%);stop-opacity:1;"/>
</linearGradient>
</defs>
<g id="surface1">
<path style=" stroke:none;fill-rule:nonzero;fill:url(#linear0);" d="M 7.703125 1.242188 L 3.394531 6.242188 C 3.292969 6.359375 3.269531 6.523438 3.332031 6.664062 C 3.398438 6.800781 3.535156 6.890625 3.691406 6.890625 L 5.5 6.890625 L 5.5 14.503906 C 5.5 14.71875 5.675781 14.894531 5.890625 14.894531 L 10.109375 14.894531 C 10.324219 14.894531 10.5 14.71875 10.5 14.503906 L 10.5 6.894531 L 12.308594 6.894531 C 12.464844 6.894531 12.601562 6.804688 12.667969 6.664062 C 12.730469 6.527344 12.707031 6.363281 12.605469 6.246094 L 8.296875 1.246094 C 8.222656 1.160156 8.113281 1.109375 8 1.109375 C 7.886719 1.109375 7.777344 1.15625 7.703125 1.242188 Z M 7.703125 1.242188 "/>
<path style=" stroke:none;fill-rule:nonzero;fill:url(#linear1);" d="M 10.109375 14.894531 C 10.324219 14.894531 10.5 14.71875 10.5 14.503906 L 10.5 6.894531 L 12.308594 6.894531 C 12.464844 6.894531 12.601562 6.804688 12.667969 6.664062 C 12.730469 6.527344 12.707031 6.363281 12.605469 6.246094 L 8.296875 1.246094 C 8.222656 1.160156 8.113281 1.109375 8 1.105469 L 8 14.894531 Z M 10.109375 14.894531 "/>
</g>
</svg>
