<?xml version="1.0" encoding="UTF-8"?>
<svg xmlns="http://www.w3.org/2000/svg" xmlns:xlink="http://www.w3.org/1999/xlink" width="16px" height="16px" viewBox="0 0 16 16" version="1.1">
<g id="surface1">
<path style=" stroke:none;fill-rule:nonzero;fill:rgb(0%,0%,0%);fill-opacity:1;" d="M 4.414062 7.191406 C 5.375 9.078125 6.921875 10.625 8.808594 11.585938 L 10.273438 10.121094 C 10.460938 9.933594 10.71875 9.878906 10.953125 9.953125 C 11.699219 10.199219 12.5 10.332031 13.332031 10.332031 C 13.703125 10.332031 14 10.632812 14 11 L 14 13.332031 C 14 13.703125 13.703125 14 13.332031 14 C 7.074219 14 2 8.925781 2 2.667969 C 2 2.296875 2.296875 2 2.667969 2 L 5 2 C 5.367188 2 5.667969 2.296875 5.667969 2.667969 C 5.667969 3.5 5.800781 4.300781 6.046875 5.046875 C 6.121094 5.28125 6.066406 5.539062 5.878906 5.726562 Z M 4.414062 7.191406 "/>
</g>
</svg>
