<?xml version="1.0" encoding="UTF-8"?>
<svg xmlns="http://www.w3.org/2000/svg" xmlns:xlink="http://www.w3.org/1999/xlink" width="18px" height="18px" viewBox="0 0 18 18" version="1.1">
<g id="surface1">
<path style=" stroke:none;fill-rule:evenodd;fill:rgb(72.156863%,72.156863%,72.156863%);fill-opacity:1;" d="M 0 9 C 0 13.96875 4.03125 18 9 18 C 13.96875 18 18 13.96875 18 9 C 18 4.03125 13.96875 0 9 0 C 4.03125 0 0 4.03125 0 9 Z M 15.75 9 C 15.75 12.726562 12.726562 15.75 9 15.75 C 5.273438 15.75 2.25 12.726562 2.25 9 C 2.25 5.273438 5.273438 2.25 9 2.25 C 12.726562 2.25 15.75 5.273438 15.75 9 Z M 15.75 9 "/>
<path style=" stroke:none;fill-rule:nonzero;fill:rgb(72.156863%,72.156863%,72.156863%);fill-opacity:1;" d="M 6.582031 11.121094 C 6.355469 10.722656 6.476562 10.207031 6.863281 9.96875 C 7.253906 9.722656 7.761719 9.855469 7.992188 10.257812 C 8.277344 10.753906 8.589844 10.964844 9 10.964844 C 9.410156 10.964844 9.722656 10.753906 10.007812 10.257812 C 10.238281 9.855469 10.746094 9.722656 11.136719 9.96875 C 11.523438 10.207031 11.644531 10.722656 11.417969 11.121094 C 10.84375 12.121094 10.011719 12.65625 9 12.65625 C 7.988281 12.65625 7.15625 12.121094 6.582031 11.121094 Z M 6.582031 11.121094 "/>
<path style=" stroke:none;fill-rule:evenodd;fill:rgb(72.156863%,72.156863%,72.156863%);fill-opacity:1;" d="M 5.625 9 C 6.246094 9 6.75 8.496094 6.75 7.875 C 6.75 7.253906 6.246094 6.75 5.625 6.75 C 5.003906 6.75 4.5 7.253906 4.5 7.875 C 4.5 8.496094 5.003906 9 5.625 9 Z M 5.625 9 "/>
<path style=" stroke:none;fill-rule:evenodd;fill:rgb(72.156863%,72.156863%,72.156863%);fill-opacity:1;" d="M 12.375 9 C 12.996094 9 13.5 8.496094 13.5 7.875 C 13.5 7.253906 12.996094 6.75 12.375 6.75 C 11.753906 6.75 11.25 7.253906 11.25 7.875 C 11.25 8.496094 11.753906 9 12.375 9 Z M 12.375 9 "/>
</g>
</svg>
