<?xml version="1.0" encoding="UTF-8"?>
<svg xmlns="http://www.w3.org/2000/svg" xmlns:xlink="http://www.w3.org/1999/xlink" width="16px" height="16px" viewBox="0 0 16 16" version="1.1">
<g id="surface1">
<path style=" stroke:none;fill-rule:evenodd;fill:rgb(80.784314%,7.45098%,7.058824%);fill-opacity:1;" d="M 15.839844 4.777344 C 15.839844 4.777344 15.683594 3.667969 15.203125 3.179688 C 14.59375 2.535156 13.914062 2.535156 13.601562 2.496094 C 11.363281 2.332031 8.003906 2.332031 8.003906 2.332031 L 7.996094 2.332031 C 7.996094 2.332031 4.636719 2.332031 2.398438 2.496094 C 2.085938 2.535156 1.40625 2.535156 0.796875 3.179688 C 0.316406 3.667969 0.160156 4.777344 0.160156 4.777344 C 0.160156 4.777344 0 6.082031 0 7.386719 L 0 8.609375 C 0 9.914062 0.160156 11.214844 0.160156 11.214844 C 0.160156 11.214844 0.316406 12.328125 0.796875 12.816406 C 1.40625 13.457031 2.203125 13.4375 2.558594 13.503906 C 3.839844 13.628906 8 13.667969 8 13.667969 C 8 13.667969 11.363281 13.660156 13.601562 13.5 C 13.914062 13.460938 14.59375 13.457031 15.203125 12.816406 C 15.683594 12.328125 15.839844 11.214844 15.839844 11.214844 C 15.839844 11.214844 16 9.914062 16 8.609375 L 16 7.386719 C 16 6.082031 15.839844 4.777344 15.839844 4.777344 Z M 6.347656 10.089844 L 6.347656 5.5625 L 10.671875 7.835938 Z M 6.347656 10.089844 "/>
</g>
</svg>
