<?xml version="1.0" encoding="UTF-8"?>
<svg xmlns="http://www.w3.org/2000/svg" xmlns:xlink="http://www.w3.org/1999/xlink" width="48px" height="48px" viewBox="0 0 48 48" version="1.1">
<g id="surface1">
<path style=" stroke:none;fill-rule:nonzero;fill:rgb(0%,0%,0%);fill-opacity:1;" d="M 24 30 C 28.96875 30 33 25.96875 33 21 L 33 12 C 33 7.03125 28.96875 3 24 3 C 19.03125 3 15 7.03125 15 12 L 15 21 C 15 25.96875 19.03125 30 24 30 Z M 24 30 "/>
<path style=" stroke:none;fill-rule:nonzero;fill:rgb(0%,0%,0%);fill-opacity:1;" d="M 39 21 C 39 20.167969 38.332031 19.5 37.5 19.5 C 36.667969 19.5 36 20.167969 36 21 C 36 27.632812 30.632812 33 24 33 C 17.367188 33 12 27.632812 12 21 C 12 20.167969 11.332031 19.5 10.5 19.5 C 9.667969 19.5 9 20.167969 9 21 C 9 28.699219 14.835938 35.15625 22.5 35.929688 L 22.5 42 L 16.5 42 C 15.667969 42 15 42.667969 15 43.5 C 15 44.332031 15.667969 45 16.5 45 L 31.5 45 C 32.332031 45 33 44.332031 33 43.5 C 33 42.667969 32.332031 42 31.5 42 L 25.5 42 L 25.5 35.929688 C 33.164062 35.15625 39 28.699219 39 21 Z M 39 21 "/>
</g>
</svg>
