<?xml version="1.0" encoding="UTF-8"?>
<svg xmlns="http://www.w3.org/2000/svg" xmlns:xlink="http://www.w3.org/1999/xlink" width="32px" height="32px" viewBox="0 0 32 32" version="1.1">
<g id="surface1">
<path style=" stroke:none;fill-rule:nonzero;fill:rgb(0%,0%,0%);fill-opacity:1;" d="M 16.527344 18.976562 C 13.179688 18.976562 10.472656 17.53125 10.472656 15.757812 L 10.472656 8.53125 C 10.472656 6.742188 13.179688 5.3125 16.527344 5.3125 C 19.875 5.3125 22.582031 6.757812 22.582031 8.53125 L 22.582031 15.742188 C 22.582031 17.53125 19.875 18.976562 16.527344 18.976562 Z M 24.777344 13.71875 L 28.832031 13.71875 L 28.832031 16.453125 C 28.832031 19.515625 24.277344 22.039062 18.554688 22.21875 L 18.554688 24.460938 L 24.652344 24.460938 L 24.652344 26.609375 L 8.390625 26.609375 L 8.390625 24.460938 L 14.5 24.460938 L 14.5 22.21875 C 8.777344 22.039062 4.222656 19.515625 4.222656 16.453125 L 4.222656 13.71875 L 8.277344 13.71875 L 8.277344 16.453125 C 8.277344 18.460938 11.375 20.070312 15.140625 20.070312 L 17.890625 20.070312 C 21.679688 20.070312 24.734375 18.445312 24.734375 16.453125 L 24.734375 13.71875 Z M 24.777344 13.71875 "/>
</g>
</svg>
