<?xml version="1.0" encoding="UTF-8"?>
<svg xmlns="http://www.w3.org/2000/svg" xmlns:xlink="http://www.w3.org/1999/xlink" width="40px" height="40px" viewBox="0 0 40 40" version="1.1">
<g id="surface1">
<path style=" stroke:none;fill-rule:nonzero;fill:rgb(0%,0%,0%);fill-opacity:1;" d="M 20 25 C 24.140625 25 27.5 21.640625 27.5 17.5 L 27.5 10 C 27.5 5.859375 24.140625 2.5 20 2.5 C 15.859375 2.5 12.5 5.859375 12.5 10 L 12.5 17.5 C 12.5 21.640625 15.859375 25 20 25 Z M 20 25 "/>
<path style=" stroke:none;fill-rule:nonzero;fill:rgb(0%,0%,0%);fill-opacity:1;" d="M 32.5 17.5 C 32.5 16.804688 31.945312 16.25 31.25 16.25 C 30.554688 16.25 30 16.804688 30 17.5 C 30 23.027344 25.527344 27.5 20 27.5 C 14.472656 27.5 10 23.027344 10 17.5 C 10 16.804688 9.445312 16.25 8.75 16.25 C 8.054688 16.25 7.5 16.804688 7.5 17.5 C 7.5 23.914062 12.363281 29.296875 18.75 29.941406 L 18.75 35 L 13.75 35 C 13.054688 35 12.5 35.554688 12.5 36.25 C 12.5 36.945312 13.054688 37.5 13.75 37.5 L 26.25 37.5 C 26.945312 37.5 27.5 36.945312 27.5 36.25 C 27.5 35.554688 26.945312 35 26.25 35 L 21.25 35 L 21.25 29.941406 C 27.636719 29.296875 32.5 23.914062 32.5 17.5 Z M 32.5 17.5 "/>
</g>
</svg>
