<?xml version="1.0" encoding="UTF-8"?>
<svg xmlns="http://www.w3.org/2000/svg" xmlns:xlink="http://www.w3.org/1999/xlink" width="32px" height="32px" viewBox="0 0 32 32" version="1.1">
<g id="surface1">
<path style=" stroke:none;fill-rule:nonzero;fill:rgb(0%,0%,0%);fill-opacity:1;" d="M 16 20 C 19.3125 20 22 17.3125 22 14 L 22 8 C 22 4.6875 19.3125 2 16 2 C 12.6875 2 10 4.6875 10 8 L 10 14 C 10 17.3125 12.6875 20 16 20 Z M 16 20 "/>
<path style=" stroke:none;fill-rule:nonzero;fill:rgb(0%,0%,0%);fill-opacity:1;" d="M 26 14 C 26 13.449219 25.550781 13 25 13 C 24.449219 13 24 13.449219 24 14 C 24 18.417969 20.417969 22 16 22 C 11.582031 22 8 18.417969 8 14 C 8 13.449219 7.550781 13 7 13 C 6.449219 13 6 13.449219 6 14 C 6 19.136719 9.890625 23.4375 15 23.949219 L 15 28 L 11 28 C 10.449219 28 10 28.449219 10 29 C 10 29.550781 10.449219 30 11 30 L 21 30 C 21.550781 30 22 29.550781 22 29 C 22 28.449219 21.550781 28 21 28 L 17 28 L 17 23.949219 C 22.109375 23.4375 26 19.136719 26 14 Z M 26 14 "/>
</g>
</svg>
