<?xml version="1.0" encoding="UTF-8"?>
<svg xmlns="http://www.w3.org/2000/svg" xmlns:xlink="http://www.w3.org/1999/xlink" width="48px" height="48px" viewBox="0 0 48 48" version="1.1">
<g id="surface1">
<path style=" stroke:none;fill-rule:nonzero;fill:rgb(0%,0%,0%);fill-opacity:1;" d="M 13.242188 21.574219 C 16.125 27.234375 20.765625 31.875 26.425781 34.757812 L 30.820312 30.363281 C 31.382812 29.800781 32.15625 29.636719 32.859375 29.859375 C 35.097656 30.597656 37.5 30.996094 39.996094 30.996094 C 41.109375 30.996094 42 31.898438 42 33 L 42 39.996094 C 42 41.109375 41.109375 42 39.996094 42 C 21.222656 42 6 26.777344 6 8.003906 C 6 6.890625 6.890625 6 8.003906 6 L 15 6 C 16.101562 6 17.003906 6.890625 17.003906 8.003906 C 17.003906 10.5 17.402344 12.902344 18.140625 15.140625 C 18.363281 15.84375 18.199219 16.617188 17.636719 17.179688 Z M 13.242188 21.574219 "/>
</g>
</svg>
