<?xml version="1.0" encoding="UTF-8"?>
<svg xmlns="http://www.w3.org/2000/svg" xmlns:xlink="http://www.w3.org/1999/xlink" width="32px" height="32px" viewBox="0 0 32 32" version="1.1">
<g id="surface1">
<path style=" stroke:none;fill-rule:nonzero;fill:rgb(0%,0%,0%);fill-opacity:1;" d="M 8.828125 14.382812 C 10.75 18.15625 13.84375 21.25 17.617188 23.171875 L 20.546875 20.242188 C 20.921875 19.867188 21.4375 19.757812 21.90625 19.90625 C 23.398438 20.398438 25 20.664062 26.664062 20.664062 C 27.40625 20.664062 28 21.265625 28 22 L 28 26.664062 C 28 27.40625 27.40625 28 26.664062 28 C 14.148438 28 4 17.851562 4 5.335938 C 4 4.59375 4.59375 4 5.335938 4 L 10 4 C 10.734375 4 11.335938 4.59375 11.335938 5.335938 C 11.335938 7 11.601562 8.601562 12.09375 10.09375 C 12.242188 10.5625 12.132812 11.078125 11.757812 11.453125 Z M 8.828125 14.382812 "/>
</g>
</svg>
