<?xml version="1.0" encoding="UTF-8"?>
<svg xmlns="http://www.w3.org/2000/svg" xmlns:xlink="http://www.w3.org/1999/xlink" width="40px" height="40px" viewBox="0 0 40 40" version="1.1">
<g id="surface1">
<path style=" stroke:none;fill-rule:nonzero;fill:rgb(0%,0%,0%);fill-opacity:1;" d="M 11.035156 17.976562 C 13.4375 22.695312 17.304688 26.5625 22.023438 28.964844 L 25.683594 25.304688 C 26.152344 24.835938 26.796875 24.695312 27.382812 24.882812 C 29.25 25.5 31.25 25.828125 33.328125 25.828125 C 34.257812 25.828125 35 26.582031 35 27.5 L 35 33.328125 C 35 34.257812 34.257812 35 33.328125 35 C 17.6875 35 5 22.3125 5 6.671875 C 5 5.742188 5.742188 5 6.671875 5 L 12.5 5 C 13.417969 5 14.171875 5.742188 14.171875 6.671875 C 14.171875 8.75 14.5 10.75 15.117188 12.617188 C 15.304688 13.203125 15.164062 13.847656 14.695312 14.316406 Z M 11.035156 17.976562 "/>
</g>
</svg>
