<?xml version="1.0" encoding="UTF-8"?>
<svg xmlns="http://www.w3.org/2000/svg" xmlns:xlink="http://www.w3.org/1999/xlink" width="40px" height="40px" viewBox="0 0 40 40" version="1.1">
<defs>
<linearGradient id="linear0" gradientUnits="userSpaceOnUse" x1="1.979737" y1="0.499847" x2="-0.720983" y2="0.499847" gradientTransform="matrix(-23.34375,-0.000000000000002859,0.00000000000000422,-34.460938,31.671875,34.726562)">
<stop offset="0" style="stop-color:rgb(15.294118%,91.372549%,87.058824%);stop-opacity:1;"/>
<stop offset="0.52" style="stop-color:rgb(1.176471%,64.313725%,92.54902%);stop-opacity:1;"/>
<stop offset="1" style="stop-color:rgb(14.509804%,27.843137%,65.882353%);stop-opacity:1;"/>
</linearGradient>
<linearGradient id="linear1" gradientUnits="userSpaceOnUse" x1="1.728201" y1="0.499989" x2="-1.883392" y2="0.499989" gradientTransform="matrix(-11.671875,-0.000000000000001429,0.000000000000004221,-34.46875,20,34.734375)">
<stop offset="0" style="stop-color:rgb(15.294118%,91.372549%,87.058824%);stop-opacity:1;"/>
<stop offset="0.52" style="stop-color:rgb(1.176471%,64.313725%,92.54902%);stop-opacity:1;"/>
<stop offset="1" style="stop-color:rgb(14.509804%,27.843137%,65.882353%);stop-opacity:1;"/>
</linearGradient>
</defs>
<g id="surface1">
<path style=" stroke:none;fill-rule:nonzero;fill:url(#linear0);" d="M 20.742188 34.394531 L 31.515625 21.894531 C 31.765625 21.601562 31.828125 21.191406 31.671875 20.839844 C 31.503906 20.5 31.160156 20.273438 30.769531 20.273438 L 26.25 20.273438 L 26.25 1.238281 C 26.25 0.703125 25.8125 0.265625 25.273438 0.265625 L 14.726562 0.265625 C 14.1875 0.265625 13.75 0.703125 13.75 1.238281 L 13.75 20.265625 L 9.230469 20.265625 C 8.839844 20.265625 8.496094 20.488281 8.328125 20.839844 C 8.171875 21.183594 8.234375 21.59375 8.484375 21.886719 L 19.257812 34.386719 C 19.441406 34.597656 19.71875 34.726562 20 34.726562 C 20.28125 34.726562 20.558594 34.609375 20.742188 34.394531 Z M 20.742188 34.394531 "/>
<path style=" stroke:none;fill-rule:nonzero;fill:url(#linear1);" d="M 14.726562 0.265625 C 14.1875 0.265625 13.75 0.703125 13.75 1.238281 L 13.75 20.265625 L 9.230469 20.265625 C 8.839844 20.265625 8.496094 20.488281 8.328125 20.839844 C 8.171875 21.183594 8.234375 21.59375 8.484375 21.886719 L 19.257812 34.386719 C 19.441406 34.597656 19.71875 34.726562 20 34.734375 L 20 0.265625 Z M 14.726562 0.265625 "/>
</g>
</svg>
