<?xml version="1.0" encoding="UTF-8"?>
<svg xmlns="http://www.w3.org/2000/svg" xmlns:xlink="http://www.w3.org/1999/xlink" width="32px" height="32px" viewBox="0 0 32 32" version="1.1">
<defs>
<linearGradient id="linear0" gradientUnits="userSpaceOnUse" x1="1.979737" y1="0.499847" x2="-0.720983" y2="0.499847" gradientTransform="matrix(-18.671875,-0.000000000000002287,0.000000000000003376,-27.570313,25.335938,27.78125)">
<stop offset="0" style="stop-color:rgb(15.294118%,91.372549%,87.058824%);stop-opacity:1;"/>
<stop offset="0.52" style="stop-color:rgb(1.176471%,64.313725%,92.54902%);stop-opacity:1;"/>
<stop offset="1" style="stop-color:rgb(14.509804%,27.843137%,65.882353%);stop-opacity:1;"/>
</linearGradient>
<linearGradient id="linear1" gradientUnits="userSpaceOnUse" x1="1.728201" y1="0.499989" x2="-1.883392" y2="0.499989" gradientTransform="matrix(-9.335938,-0.000000000000001143,0.000000000000003377,-27.578125,16,27.789063)">
<stop offset="0" style="stop-color:rgb(15.294118%,91.372549%,87.058824%);stop-opacity:1;"/>
<stop offset="0.52" style="stop-color:rgb(1.176471%,64.313725%,92.54902%);stop-opacity:1;"/>
<stop offset="1" style="stop-color:rgb(14.509804%,27.843137%,65.882353%);stop-opacity:1;"/>
</linearGradient>
</defs>
<g id="surface1">
<path style=" stroke:none;fill-rule:nonzero;fill:url(#linear0);" d="M 16.59375 27.515625 L 25.210938 17.515625 C 25.414062 17.28125 25.460938 16.953125 25.335938 16.671875 C 25.203125 16.398438 24.929688 16.21875 24.617188 16.21875 L 21 16.21875 L 21 0.992188 C 21 0.5625 20.648438 0.210938 20.21875 0.210938 L 11.78125 0.210938 C 11.351562 0.210938 11 0.5625 11 0.992188 L 11 16.210938 L 7.382812 16.210938 C 7.070312 16.210938 6.796875 16.390625 6.664062 16.671875 C 6.539062 16.945312 6.585938 17.273438 6.789062 17.507812 L 15.40625 27.507812 C 15.554688 27.679688 15.773438 27.78125 16 27.78125 C 16.226562 27.78125 16.445312 27.6875 16.59375 27.515625 Z M 16.59375 27.515625 "/>
<path style=" stroke:none;fill-rule:nonzero;fill:url(#linear1);" d="M 11.78125 0.210938 C 11.351562 0.210938 11 0.5625 11 0.992188 L 11 16.210938 L 7.382812 16.210938 C 7.070312 16.210938 6.796875 16.390625 6.664062 16.671875 C 6.539062 16.945312 6.585938 17.273438 6.789062 17.507812 L 15.40625 27.507812 C 15.554688 27.679688 15.773438 27.78125 16 27.789062 L 16 0.210938 Z M 11.78125 0.210938 "/>
</g>
</svg>
