<?xml version="1.0" encoding="UTF-8"?>
<svg xmlns="http://www.w3.org/2000/svg" xmlns:xlink="http://www.w3.org/1999/xlink" width="48px" height="48px" viewBox="0 0 48 48" version="1.1">
<defs>
<linearGradient id="linear0" gradientUnits="userSpaceOnUse" x1="1.979737" y1="0.499847" x2="-0.720983" y2="0.499847" gradientTransform="matrix(-28.007813,-0.00000000000000343,0.000000000000005065,-41.355469,38.003906,41.671875)">
<stop offset="0" style="stop-color:rgb(15.294118%,91.372549%,87.058824%);stop-opacity:1;"/>
<stop offset="0.52" style="stop-color:rgb(1.176471%,64.313725%,92.54902%);stop-opacity:1;"/>
<stop offset="1" style="stop-color:rgb(14.509804%,27.843137%,65.882353%);stop-opacity:1;"/>
</linearGradient>
<linearGradient id="linear1" gradientUnits="userSpaceOnUse" x1="1.728201" y1="0.499989" x2="-1.883392" y2="0.499989" gradientTransform="matrix(-14.003906,-0.000000000000001715,0.000000000000005066,-41.367188,24,41.683594)">
<stop offset="0" style="stop-color:rgb(15.294118%,91.372549%,87.058824%);stop-opacity:1;"/>
<stop offset="0.52" style="stop-color:rgb(1.176471%,64.313725%,92.54902%);stop-opacity:1;"/>
<stop offset="1" style="stop-color:rgb(14.509804%,27.843137%,65.882353%);stop-opacity:1;"/>
</linearGradient>
</defs>
<g id="surface1">
<path style=" stroke:none;fill-rule:nonzero;fill:url(#linear0);" d="M 24.890625 41.273438 L 37.816406 26.273438 C 38.121094 25.921875 38.191406 25.429688 38.003906 25.007812 C 37.804688 24.597656 37.394531 24.328125 36.925781 24.328125 L 31.5 24.328125 L 31.5 1.488281 C 31.5 0.84375 30.972656 0.316406 30.328125 0.316406 L 17.671875 0.316406 C 17.027344 0.316406 16.5 0.84375 16.5 1.488281 L 16.5 24.316406 L 11.074219 24.316406 C 10.605469 24.316406 10.195312 24.585938 9.996094 25.007812 C 9.808594 25.417969 9.878906 25.910156 10.183594 26.261719 L 23.109375 41.261719 C 23.332031 41.519531 23.660156 41.671875 24 41.671875 C 24.339844 41.671875 24.667969 41.53125 24.890625 41.273438 Z M 24.890625 41.273438 "/>
<path style=" stroke:none;fill-rule:nonzero;fill:url(#linear1);" d="M 17.671875 0.316406 C 17.027344 0.316406 16.5 0.84375 16.5 1.488281 L 16.5 24.316406 L 11.074219 24.316406 C 10.605469 24.316406 10.195312 24.585938 9.996094 25.007812 C 9.808594 25.417969 9.878906 25.910156 10.183594 26.261719 L 23.109375 41.261719 C 23.332031 41.519531 23.660156 41.671875 24 41.683594 L 24 0.316406 Z M 17.671875 0.316406 "/>
</g>
</svg>
