<?xml version="1.0" encoding="UTF-8"?>
<svg xmlns="http://www.w3.org/2000/svg" xmlns:xlink="http://www.w3.org/1999/xlink" width="12px" height="16px" viewBox="0 0 12 16" version="1.1">
<g id="surface1">
<path style=" stroke:none;fill-rule:nonzero;fill:rgb(0%,0%,0%);fill-opacity:1;" d="M 6.3125 0 C 3.820312 0 2.203125 1.023438 0.933594 2.84375 C 0.703125 3.175781 0.777344 3.628906 1.097656 3.871094 L 2.445312 4.894531 C 2.769531 5.140625 3.230469 5.082031 3.484375 4.765625 C 4.265625 3.785156 4.847656 3.21875 6.070312 3.21875 C 7.03125 3.21875 8.21875 3.835938 8.21875 4.769531 C 8.21875 5.476562 7.640625 5.835938 6.691406 6.367188 C 5.582031 6.988281 4.117188 7.761719 4.117188 9.695312 L 4.117188 10 C 4.117188 10.414062 4.453125 10.75 4.867188 10.75 L 7.132812 10.75 C 7.546875 10.75 7.882812 10.414062 7.882812 10 L 7.882812 9.820312 C 7.882812 8.480469 11.796875 8.425781 11.796875 4.800781 C 11.796875 2.070312 8.964844 0 6.3125 0 Z M 6 11.671875 C 4.804688 11.671875 3.835938 12.640625 3.835938 13.835938 C 3.835938 15.027344 4.804688 16 6 16 C 7.195312 16 8.164062 15.027344 8.164062 13.835938 C 8.164062 12.640625 7.195312 11.671875 6 11.671875 Z M 6 11.671875 "/>
</g>
</svg>
