<?xml version="1.0" encoding="UTF-8"?>
<svg xmlns="http://www.w3.org/2000/svg" xmlns:xlink="http://www.w3.org/1999/xlink" width="16px" height="16px" viewBox="0 0 16 16" version="1.1">
<g id="surface1">
<path style=" stroke:none;fill-rule:nonzero;fill:rgb(0%,0%,0%);fill-opacity:1;" d="M 8.265625 9.488281 C 6.589844 9.488281 5.234375 8.765625 5.234375 7.878906 L 5.234375 4.265625 C 5.234375 3.371094 6.589844 2.65625 8.265625 2.65625 C 9.9375 2.65625 11.292969 3.378906 11.292969 4.265625 L 11.292969 7.871094 C 11.292969 8.765625 9.9375 9.488281 8.265625 9.488281 Z M 12.390625 6.859375 L 14.417969 6.859375 L 14.417969 8.226562 C 14.417969 9.757812 12.140625 11.019531 9.277344 11.109375 L 9.277344 12.230469 L 12.328125 12.230469 L 12.328125 13.304688 L 4.195312 13.304688 L 4.195312 12.230469 L 7.25 12.230469 L 7.25 11.109375 C 4.390625 11.019531 2.109375 9.757812 2.109375 8.226562 L 2.109375 6.859375 L 4.140625 6.859375 L 4.140625 8.226562 C 4.140625 9.230469 5.6875 10.035156 7.570312 10.035156 L 8.945312 10.035156 C 10.839844 10.035156 12.367188 9.222656 12.367188 8.226562 L 12.367188 6.859375 Z M 12.390625 6.859375 "/>
</g>
</svg>
