<?xml version="1.0" encoding="UTF-8"?>
<svg xmlns="http://www.w3.org/2000/svg" xmlns:xlink="http://www.w3.org/1999/xlink" width="16px" height="16px" viewBox="0 0 16 16" version="1.1">
<g id="surface1">
<path style=" stroke:none;fill-rule:nonzero;fill:rgb(0%,0%,0%);fill-opacity:1;" d="M 8 10 C 9.65625 10 11 8.65625 11 7 L 11 4 C 11 2.34375 9.65625 1 8 1 C 6.34375 1 5 2.34375 5 4 L 5 7 C 5 8.65625 6.34375 10 8 10 Z M 8 10 "/>
<path style=" stroke:none;fill-rule:nonzero;fill:rgb(0%,0%,0%);fill-opacity:1;" d="M 13 7 C 13 6.722656 12.777344 6.5 12.5 6.5 C 12.222656 6.5 12 6.722656 12 7 C 12 9.210938 10.210938 11 8 11 C 5.789062 11 4 9.210938 4 7 C 4 6.722656 3.777344 6.5 3.5 6.5 C 3.222656 6.5 3 6.722656 3 7 C 3 9.566406 4.945312 11.71875 7.5 11.976562 L 7.5 14 L 5.5 14 C 5.222656 14 5 14.222656 5 14.5 C 5 14.777344 5.222656 15 5.5 15 L 10.5 15 C 10.777344 15 11 14.777344 11 14.5 C 11 14.222656 10.777344 14 10.5 14 L 8.5 14 L 8.5 11.976562 C 11.054688 11.71875 13 9.566406 13 7 Z M 13 7 "/>
</g>
</svg>
