<?xml version="1.0" encoding="UTF-8"?>
<svg xmlns="http://www.w3.org/2000/svg" xmlns:xlink="http://www.w3.org/1999/xlink" width="9px" height="16px" viewBox="0 0 9 15" version="1.1">
<g id="surface1">
<path style=" stroke:none;fill-rule:nonzero;fill:rgb(0%,0%,0%);fill-opacity:1;" d="M 4.648438 8.988281 C 3.707031 8.988281 2.945312 8.265625 2.945312 7.378906 L 2.945312 3.765625 C 2.945312 2.871094 3.707031 2.15625 4.648438 2.15625 C 5.589844 2.15625 6.351562 2.878906 6.351562 3.765625 L 6.351562 7.371094 C 6.351562 8.265625 5.589844 8.988281 4.648438 8.988281 Z M 6.96875 6.359375 L 8.109375 6.359375 L 8.109375 7.726562 C 8.109375 9.257812 6.828125 10.519531 5.21875 10.609375 L 5.21875 11.730469 L 6.933594 11.730469 L 6.933594 12.804688 L 2.359375 12.804688 L 2.359375 11.730469 L 4.078125 11.730469 L 4.078125 10.609375 C 2.46875 10.519531 1.1875 9.257812 1.1875 7.726562 L 1.1875 6.359375 L 2.328125 6.359375 L 2.328125 7.726562 C 2.328125 8.730469 3.199219 9.535156 4.257812 9.535156 L 5.03125 9.535156 C 6.097656 9.535156 6.957031 8.722656 6.957031 7.726562 L 6.957031 6.359375 Z M 6.96875 6.359375 "/>
</g>
</svg>
