<?xml version="1.0" encoding="UTF-8"?>
<svg xmlns="http://www.w3.org/2000/svg" xmlns:xlink="http://www.w3.org/1999/xlink" width="16px" height="16px" viewBox="0 0 16 16" version="1.1">
<g id="surface1">
<path style=" stroke:none;fill-rule:nonzero;fill:rgb(0%,0%,0%);fill-opacity:1;" d="M 4.152344 13.046875 L 11.859375 13.046875 L 11.859375 13.640625 L 4.152344 13.640625 Z M 4.152344 13.046875 "/>
<path style=" stroke:none;fill-rule:nonzero;fill:rgb(0%,0%,0%);fill-opacity:1;" d="M 4.152344 4.152344 L 8.300781 4.152344 L 8.300781 4.746094 L 4.152344 4.746094 Z M 4.152344 4.152344 "/>
<path style=" stroke:none;fill-rule:nonzero;fill:rgb(0%,0%,0%);fill-opacity:1;" d="M 4.152344 11.265625 L 11.859375 11.265625 L 11.859375 11.859375 L 4.152344 11.859375 Z M 4.152344 11.265625 "/>
<path style=" stroke:none;fill-rule:nonzero;fill:rgb(0%,0%,0%);fill-opacity:1;" d="M 4.152344 2.371094 L 8.300781 2.371094 L 8.300781 2.964844 L 4.152344 2.964844 Z M 4.152344 2.371094 "/>
<path style=" stroke:none;fill-rule:nonzero;fill:rgb(0%,0%,0%);fill-opacity:1;" d="M 10.082031 0 L 3.558594 0 C 2.90625 0 2.371094 0.535156 2.371094 1.1875 L 2.371094 14.824219 C 2.371094 15.476562 2.90625 16.011719 3.558594 16.011719 L 12.453125 16.011719 C 13.105469 16.011719 13.640625 15.476562 13.640625 14.824219 L 13.640625 4.152344 Z M 10.082031 0.890625 L 12.867188 4.152344 L 10.675781 4.152344 C 10.378906 4.152344 10.082031 3.855469 10.082031 3.558594 Z M 13.046875 14.824219 C 13.046875 15.121094 12.808594 15.417969 12.453125 15.417969 L 3.558594 15.417969 C 3.261719 15.417969 2.964844 15.179688 2.964844 14.824219 L 2.964844 1.1875 C 2.964844 0.890625 3.203125 0.59375 3.558594 0.59375 L 9.488281 0.59375 L 9.488281 3.558594 C 9.488281 4.210938 10.023438 4.746094 10.675781 4.746094 L 13.046875 4.746094 Z M 13.046875 14.824219 "/>
<path style=" stroke:none;fill-rule:nonzero;fill:rgb(0%,0%,0%);fill-opacity:1;" d="M 4.152344 9.488281 L 11.859375 9.488281 L 11.859375 10.082031 L 4.152344 10.082031 Z M 4.152344 9.488281 "/>
<path style=" stroke:none;fill-rule:nonzero;fill:rgb(0%,0%,0%);fill-opacity:1;" d="M 4.152344 5.929688 L 11.859375 5.929688 L 11.859375 6.523438 L 4.152344 6.523438 Z M 4.152344 5.929688 "/>
<path style=" stroke:none;fill-rule:nonzero;fill:rgb(0%,0%,0%);fill-opacity:1;" d="M 4.152344 7.710938 L 11.859375 7.710938 L 11.859375 8.300781 L 4.152344 8.300781 Z M 4.152344 7.710938 "/>
</g>
</svg>
