<!-- icon666.com - MILLIONS vector ICONS FREE --><svg viewBox="-21 1 511 511.9985" xmlns="http://www.w3.org/2000/svg"><path d="m22.433594 490.0625c-29.246094-29.246094-29.246094-76.835938 0-106.082031l268.40625-268.402344c17.546875-17.550781 46.101562-17.550781 63.648437 0 17.589844 17.585937 17.59375 46.058594 0 63.648437l-194.144531 194.144532-21.214844-21.214844 194.144532-194.144531c5.863281-5.867188 5.863281-15.355469 0-21.21875-5.863282-5.863281-15.355469-5.863281-21.21875 0l-268.402344 268.402343c-17.546875 17.550782-17.546875 46.101563 0 63.652344 17.546875 17.546875 46.101562 17.546875 63.648437 0l310.839844-310.835937c29.3125-29.316407 29.316406-76.765625 0-106.085938-29.316406-29.3125-76.765625-29.320312-106.085937 0l-247.1875 247.1875-21.214844-21.21875 247.1875-247.183593c40.945312-40.949219 107.570312-40.949219 148.515625 0 40.949219 40.945312 40.949219 107.570312 0 148.515624l-310.835938 310.835938c-29.246093 29.246094-76.835937 29.25-106.085937 0zm0 0"></path></svg>