<?xml version="1.0" encoding="UTF-8"?>
<svg xmlns="http://www.w3.org/2000/svg" xmlns:xlink="http://www.w3.org/1999/xlink" width="150px" height="150px" viewBox="0 0 150 150" version="1.1">
<g id="surface1">
<path style=" stroke:none;fill-rule:nonzero;fill:rgb(0%,0%,0%);fill-opacity:1;" d="M 12.75 143.28125 C 4.164062 134.710938 4.164062 120.769531 12.75 112.203125 L 91.539062 33.566406 C 96.6875 28.425781 105.070312 28.425781 110.222656 33.566406 C 115.386719 38.71875 115.386719 47.0625 110.222656 52.214844 L 53.230469 109.09375 L 47.003906 102.878906 L 103.996094 46 C 105.714844 44.28125 105.714844 41.5 103.996094 39.785156 C 102.273438 38.066406 99.488281 38.066406 97.765625 39.785156 L 18.976562 118.417969 C 13.828125 123.558594 13.828125 131.921875 18.976562 137.066406 C 24.128906 142.207031 32.511719 142.207031 37.660156 137.066406 L 128.90625 46 C 137.511719 37.410156 137.511719 23.511719 128.90625 14.917969 C 120.300781 6.332031 106.371094 6.328125 97.765625 14.917969 L 25.207031 87.339844 L 18.976562 81.121094 L 91.539062 8.703125 C 103.558594 -3.292969 123.113281 -3.292969 135.132812 8.703125 C 147.152344 20.699219 147.152344 40.21875 135.132812 52.214844 L 43.890625 143.28125 C 35.304688 151.847656 21.335938 151.847656 12.75 143.28125 Z M 12.75 143.28125 "/>
</g>
</svg>
