<svg width="16" height="16" xmlns="http://www.w3.org/2000/svg">
 <defs>
  <linearGradient y2="0.499847" x2="-0.720983" y1="0.499847" x1="1.979737" id="linear0">
   <stop stop-color="rgb(15.294118%,91.372549%,87.058824%)" offset="0"/>
   <stop stop-color="rgb(1.176471%,64.313725%,92.54902%)" offset="0.52"/>
   <stop stop-color="rgb(14.509804%,27.843137%,65.882353%)" offset="1"/>
  </linearGradient>
  <linearGradient y2="0.499989" x2="-1.883392" y1="0.499989" x1="1.728201" id="linear1">
   <stop stop-color="rgb(15.294118%,91.372549%,87.058824%)" offset="0"/>
   <stop stop-color="rgb(1.176471%,64.313725%,92.54902%)" offset="0.52"/>
   <stop stop-color="rgb(14.509804%,27.843137%,65.882353%)" offset="1"/>
  </linearGradient>
 </defs>
 <g>
  <title>background</title>
  <rect fill="none" id="canvas_background" height="402" width="582" y="-1" x="-1"/>
 </g>
 <g>
  <title>Layer 1</title>
  <g transform="rotate(-180 8,7.000000476837157) " stroke="null" id="surface1">
   <path stroke="null" id="svg_1" fill-rule="nonzero" fill="url(#linear0)" d="m7.70313,0.24219l-4.3086,5c-0.10156,0.11719 -0.125,0.28125 -0.0625,0.42187c0.06641,0.13672 0.20313,0.22657 0.35938,0.22657l1.80859,0l0,7.61328c0,0.21484 0.17578,0.39062 0.39063,0.39062l4.21875,0c0.21484,0 0.39062,-0.17578 0.39062,-0.39062l0,-7.60938l1.80859,0c0.15625,0 0.29297,-0.08984 0.35938,-0.23047c0.0625,-0.13672 0.03906,-0.30078 -0.0625,-0.41797l-4.30859,-5c-0.07422,-0.08593 -0.1836,-0.13671 -0.29688,-0.13671c-0.11328,0 -0.22266,0.04687 -0.29687,0.13281zm0,0"/>
   <path stroke="null" id="svg_2" fill-rule="nonzero" fill="url(#linear1)" d="m10.10938,13.89453c0.21484,0 0.39062,-0.17578 0.39062,-0.39062l0,-7.60938l1.80859,0c0.15625,0 0.29297,-0.08984 0.35938,-0.23047c0.0625,-0.13672 0.03906,-0.30078 -0.0625,-0.41797l-4.30859,-5c-0.07422,-0.08593 -0.1836,-0.13671 -0.29688,-0.14062l0,13.78906l2.10938,0zm0,0"/>
  </g>
 </g>
</svg>