<?xml version="1.0" encoding="UTF-8"?>
<svg xmlns="http://www.w3.org/2000/svg" xmlns:xlink="http://www.w3.org/1999/xlink" width="16px" height="16px" viewBox="0 0 16 16" version="1.1">
<g id="surface1">
<path style=" stroke:none;fill-rule:nonzero;fill:rgb(0%,0%,0%);fill-opacity:1;" d="M 1.359375 15.285156 C 0.445312 14.371094 0.445312 12.882812 1.359375 11.96875 L 9.765625 3.582031 C 10.3125 3.03125 11.207031 3.03125 11.757812 3.582031 C 12.308594 4.128906 12.308594 5.019531 11.757812 5.570312 L 5.679688 11.636719 L 5.015625 10.972656 L 11.09375 4.90625 C 11.277344 4.722656 11.277344 4.425781 11.09375 4.242188 C 10.910156 4.058594 10.613281 4.058594 10.429688 4.242188 L 2.023438 12.632812 C 1.476562 13.179688 1.476562 14.070312 2.023438 14.621094 C 2.574219 15.167969 3.46875 15.167969 4.015625 14.621094 L 13.75 4.90625 C 14.667969 3.992188 14.667969 2.507812 13.75 1.589844 C 12.832031 0.675781 11.347656 0.675781 10.429688 1.589844 L 2.6875 9.316406 L 2.023438 8.652344 L 9.765625 0.929688 C 11.046875 -0.351562 13.132812 -0.351562 14.414062 0.929688 C 15.695312 2.207031 15.695312 4.289062 14.414062 5.570312 L 4.679688 15.285156 C 3.765625 16.195312 2.277344 16.199219 1.359375 15.285156 Z M 1.359375 15.285156 "/>
</g>
</svg>
