<?xml version="1.0" encoding="UTF-8"?>
<svg xmlns="http://www.w3.org/2000/svg" xmlns:xlink="http://www.w3.org/1999/xlink" width="16px" height="16px" viewBox="0 0 16 16" version="1.1">
<g id="surface1">
<path style="fill:none;stroke-width:2;stroke-linecap:round;stroke-linejoin:round;stroke:rgb(0%,0%,0%);stroke-opacity:1;stroke-miterlimit:4;" d="M 19.998047 12 L 19.998047 21.234375 C 19.998047 21.65625 19.681641 22.001953 19.289062 22.001953 L 4.710938 22.001953 C 4.318359 22.001953 4.001953 21.65625 4.001953 21.234375 L 4.001953 12 Z M 19.998047 12 " transform="matrix(0.666667,0,0,0.666667,0,0)"/>
<path style="fill:none;stroke-width:2;stroke-linecap:round;stroke-linejoin:round;stroke:rgb(0%,0%,0%);stroke-opacity:1;stroke-miterlimit:4;" d="M 21.234375 7.728516 C 21.65625 7.728516 22.001953 8.068359 22.001953 8.490234 L 22.001953 10.998047 C 22.001953 11.554688 21.550781 12 21 12 L 3 12 C 2.449219 12 1.998047 11.554688 1.998047 10.998047 L 1.998047 8.490234 C 1.998047 8.068359 2.34375 7.728516 2.765625 7.728516 L 10.787109 7.728516 C 9.539062 7.728516 7.675781 6.744141 6.966797 6.035156 C 6.041016 5.109375 6.041016 3.615234 6.966797 2.689453 C 7.886719 1.769531 9.386719 1.769531 10.306641 2.689453 C 11.015625 3.398438 12 5.267578 12 6.509766 C 12 5.267578 12.984375 3.398438 13.693359 2.689453 C 14.613281 1.769531 16.113281 1.769531 17.033203 2.689453 C 17.958984 3.615234 17.958984 5.109375 17.033203 6.035156 C 16.324219 6.744141 14.460938 7.728516 13.212891 7.728516 Z M 21.234375 7.728516 " transform="matrix(0.666667,0,0,0.666667,0,0)"/>
<path style="fill:none;stroke-width:2;stroke-linecap:round;stroke-linejoin:round;stroke:rgb(0%,0%,0%);stroke-opacity:1;stroke-miterlimit:4;" d="M 12.304688 7.417969 C 12.087891 7.207031 12 6.884766 12 6.509766 C 12 6.884766 11.912109 7.207031 11.695312 7.417969 C 11.484375 7.634766 11.162109 7.722656 10.787109 7.722656 L 13.212891 7.722656 C 12.837891 7.722656 12.515625 7.634766 12.304688 7.417969 Z M 12.304688 7.417969 " transform="matrix(0.666667,0,0,0.666667,0,0)"/>
<path style="fill:none;stroke-width:2;stroke-linecap:round;stroke-linejoin:round;stroke:rgb(0%,0%,0%);stroke-opacity:1;stroke-miterlimit:4;" d="M 12 12.246094 L 12 22.001953 " transform="matrix(0.666667,0,0,0.666667,0,0)"/>
</g>
</svg>
